<svg width="32" height="32" viewBox="0 0 32 32" fill="none" xmlns="http://www.w3.org/2000/svg">
<g clip-path="url(#clip0)">
<path d="M22.7344 12.7647L16.3359 8.11132C16.1175 7.96471 15.8844 7.96336 15.6641 8.11132L9.26562 12.7647C9.10155 12.884 9 13.0971 9 13.3102V17.9635C9 18.1766 9.10155 18.3897 9.26564 18.509L15.6641 23.1631C15.8825 23.3097 16.1156 23.311 16.3359 23.1631L22.7344 18.509C22.8984 18.3897 23 18.1766 23 17.9635V13.3102C23 13.0971 22.8984 12.884 22.7344 12.7647ZM16.6016 9.884L21.3125 13.3102L19.2109 14.8443L16.6016 12.9437V9.884ZM15.3984 9.884V12.9437L12.7891 14.8443L10.6875 13.3102L15.3984 9.884ZM10.2031 14.5374L11.7109 15.6369L10.2031 16.7363V14.5374ZM15.3984 21.3897L10.6875 17.9636L12.7891 16.4295L15.3984 18.3301V21.3897ZM16 17.188L13.875 15.6369L16 14.0857L18.125 15.6369L16 17.188ZM16.6016 21.3897V18.3301L19.2109 16.4295L21.3125 17.9636L16.6016 21.3897ZM21.7969 16.7363L20.2891 15.6369L21.7969 14.5374V16.7363Z" fill="#F7FAFC"/>
</g>
<circle cx="16" cy="16" r="15.5" stroke="#F7FAFC"/>
<defs>
<clipPath id="clip0">
<rect x="9" y="8" width="14" height="15.2727" fill="white"/>
</clipPath>
</defs>
</svg>
