<svg width="32" height="32" viewBox="0 0 32 32" fill="none" xmlns="http://www.w3.org/2000/svg">
<g clip-path="url(#clip0)">
<path d="M22.7344 12.7648L16.3359 8.11144C16.1175 7.96483 15.8844 7.96349 15.6641 8.11144L9.26562 12.7648C9.10155 12.8841 9 13.0972 9 13.3103V17.9637C9 18.1767 9.10155 18.3898 9.26564 18.5091L15.6641 23.1632C15.8825 23.3098 16.1156 23.3111 16.3359 23.1632L22.7344 18.5091C22.8984 18.3898 23 18.1767 23 17.9637V13.3103C23 13.0972 22.8984 12.8841 22.7344 12.7648ZM16.6016 9.88412L21.3125 13.3103L19.2109 14.8444L16.6016 12.9438V9.88412ZM15.3984 9.88412V12.9438L12.7891 14.8444L10.6875 13.3103L15.3984 9.88412ZM10.2031 14.5376L11.7109 15.637L10.2031 16.7364V14.5376ZM15.3984 21.3899L10.6875 17.9637L12.7891 16.4296L15.3984 18.3302V21.3899ZM16 17.1881L13.875 15.637L16 14.0859L18.125 15.637L16 17.1881ZM16.6016 21.3899V18.3302L19.2109 16.4296L21.3125 17.9637L16.6016 21.3899ZM21.7969 16.7364L20.2891 15.637L21.7969 14.5376V16.7364Z" fill="#555555"/>
</g>
<circle cx="16" cy="16" r="15.5" stroke="#555555"/>
<defs>
<clipPath id="clip0">
<rect x="9" y="8" width="14" height="15.2727" fill="white"/>
</clipPath>
</defs>
</svg>
