<svg width="32" height="32" viewBox="0 0 32 32" fill="none" xmlns="http://www.w3.org/2000/svg">
<path d="M22.7348 13.6916C22.8414 13.5991 23 13.6856 23 13.8318V19.9319C23 20.7224 22.4121 21.3637 21.6875 21.3637H10.3125C9.58789 21.3637 9 20.7224 9 19.9319V13.8347C9 13.6856 9.15586 13.6021 9.26523 13.6945C9.87773 14.2136 10.6898 14.8728 13.4789 17.0832C14.0559 17.5426 15.0293 18.509 16 18.5031C16.9762 18.512 17.9688 17.5247 18.5238 17.0832C21.3129 14.8728 22.1223 14.2106 22.7348 13.6916ZM16 17.5455C16.6344 17.5575 17.5477 16.6745 18.007 16.3106C21.6355 13.438 21.9117 13.1874 22.7484 12.4715C22.907 12.3373 23 12.1285 23 11.9078V11.341C23 10.5505 22.4121 9.90918 21.6875 9.90918H10.3125C9.58789 9.90918 9 10.5505 9 11.341V11.9078C9 12.1285 9.09297 12.3343 9.25156 12.4715C10.0883 13.1845 10.3645 13.438 13.993 16.3106C14.4523 16.6745 15.3656 17.5575 16 17.5455Z" fill="#555555"/>
<circle cx="16" cy="16" r="15.5" stroke="#555555"/>
</svg>
