<svg width="100" height="71" viewBox="0 0 100 71" fill="none" xmlns="http://www.w3.org/2000/svg">
<g clip-path="url(#clip0)">
<path d="M80.3062 65.2772C79.6571 67.7489 77.3826 69.2936 77.3826 69.2936C77.3826 69.2936 76.1606 66.8308 76.8096 64.359C77.4587 61.8872 79.7332 60.3425 79.7332 60.3425C79.7332 60.3425 80.9553 62.8054 80.3062 65.2772Z" fill="#3F3D56"/>
<path d="M79.3217 64.7544C77.5037 66.5505 77.3003 69.2923 77.3003 69.2923C77.3003 69.2923 80.0444 69.1221 81.8624 67.326C83.6803 65.5299 83.8837 62.7881 83.8837 62.7881C83.8837 62.7881 81.1396 62.9583 79.3217 64.7544Z" fill="#325CAE"/>
<path d="M13.4503 55.9268H16.874L25.3111 52.6253C25.3111 52.6253 31.3026 50.1798 30.8135 54.8263C30.3244 59.4728 29.4684 65.7088 29.4684 65.7088C29.4684 65.7088 26.7784 64.4861 25.3111 64.8529C23.8437 65.2197 24.822 57.3941 24.822 57.3941C24.822 57.3941 12.8389 63.141 11.7385 62.4074C10.638 61.6737 10.3934 56.5381 10.3934 56.5381L13.4503 55.9268Z" fill="#2F2E41"/>
<path opacity="0.1" d="M13.4503 55.9268H16.874L25.3111 52.6253C25.3111 52.6253 31.3026 50.1798 30.8135 54.8263C30.3244 59.4728 29.4684 65.7088 29.4684 65.7088C29.4684 65.7088 26.7784 64.4861 25.3111 64.8529C23.8437 65.2197 24.822 57.3941 24.822 57.3941C24.822 57.3941 12.8389 63.141 11.7385 62.4074C10.638 61.6737 10.3934 56.5381 10.3934 56.5381L13.4503 55.9268Z" fill="black"/>
<path d="M18.8444 45.2051L22.9878 51.1582L32.6476 59.2284C32.6476 59.2284 41.5737 61.3071 40.351 62.7744C39.1282 64.2417 31.6694 61.3071 31.6694 61.3071C31.6694 61.3071 20.5423 53.2369 20.1755 52.6255C19.8087 52.0141 15.7736 46.2672 15.7736 46.2672L18.8444 45.2051Z" fill="#A0616A"/>
<path opacity="0.1" d="M18.8444 45.2051L22.9878 51.1582L32.6476 59.2284C32.6476 59.2284 41.5737 61.3071 40.351 62.7744C39.1282 64.2417 31.6694 61.3071 31.6694 61.3071C31.6694 61.3071 20.5423 53.2369 20.1755 52.6255C19.8087 52.0141 15.7736 46.2672 15.7736 46.2672L18.8444 45.2051Z" fill="black"/>
<path d="M16.385 40.3979L19.075 45.6558C19.075 45.6558 18.4636 48.2236 17.4854 48.4681C16.5072 48.7127 12.3499 45.289 12.3499 45.289L16.385 40.3979Z" fill="#D0CDE1"/>
<path opacity="0.1" d="M16.385 40.3979L19.075 45.6558C19.075 45.6558 18.4636 48.2236 17.4854 48.4681C16.5072 48.7127 12.3499 45.289 12.3499 45.289L16.385 40.3979Z" fill="black"/>
<path d="M49.2026 53.2046L49.9972 56.4824C50.0061 56.519 50.0047 56.5572 49.9933 56.5931L46.3887 67.8574C46.3744 67.902 46.3453 67.9403 46.3061 67.9661C46.267 67.9918 46.2202 68.0033 46.1736 67.9987C46.127 67.9941 46.0834 67.9737 46.05 67.9408C46.0166 67.9079 45.9955 67.8646 45.9903 67.8181L45.4916 63.43C45.4883 63.4008 45.4913 63.3713 45.5004 63.3434L48.809 53.1894C48.8228 53.147 48.85 53.1103 48.8866 53.0849C48.9231 53.0594 48.967 53.0465 49.0115 53.0482C49.0561 53.05 49.0988 53.0662 49.1333 53.0944C49.1678 53.1226 49.1921 53.1613 49.2026 53.2046Z" fill="#2F2E41"/>
<path d="M48.9103 53.4814L49.6439 56.2938L46.4647 66.565L45.7311 63.3858L48.9103 53.4814Z" fill="#F2F2F2"/>
<path d="M32.8922 68.7658C33.0145 69.1326 45.6089 68.6435 45.7311 68.5213C45.8378 68.3681 45.9279 68.2042 46.0001 68.0321C46.1151 67.7876 46.2202 67.543 46.2202 67.543L45.7312 63.5838L33.259 63.1411C33.259 63.1411 32.9472 66.4964 32.8836 68.0321C32.8678 68.4198 32.8678 68.6924 32.8922 68.7658Z" fill="#2F2E41"/>
<path opacity="0.1" d="M44.1415 64.1194L44.386 67.5431H38.8837V64.1194H44.1415Z" fill="black"/>
<path opacity="0.1" d="M37.0495 65.2196L37.0823 65.2131L36.9272 66.687H33.8704V65.2196H37.0495Z" fill="black"/>
<path opacity="0.1" d="M32.8922 68.7659C33.0145 69.1327 45.6089 68.6436 45.7311 68.5213C45.8378 68.3682 45.9279 68.2043 46.0001 68.0322H32.8836C32.8678 68.4198 32.8678 68.6925 32.8922 68.7659Z" fill="black"/>
<path d="M18.2191 38.686C21.258 38.686 23.7215 36.2225 23.7215 33.1836C23.7215 30.1447 21.258 27.6812 18.2191 27.6812C15.1802 27.6812 12.7167 30.1447 12.7167 33.1836C12.7167 36.2225 15.1802 38.686 18.2191 38.686Z" fill="#A0616A"/>
<path d="M17.8523 38.0745C17.8523 38.0745 16.0181 41.2537 15.6513 42.9656C15.2845 44.6774 10.1489 39.5418 10.1489 39.5418L9.47638 37.7688C9.47638 37.7688 14.3063 35.5067 13.9394 33.6726C13.5726 31.8385 17.8523 38.0745 17.8523 38.0745Z" fill="#A0616A"/>
<path d="M18.8305 47.6121L23.8438 54.2149L35.8268 63.1411C35.8268 63.1411 44.5084 64.9752 42.552 66.3202C40.5955 67.6653 34.9709 65.0975 34.9709 65.0975C34.9709 65.0975 22.8656 58.6169 20.2978 55.9268C17.73 53.2367 12.9612 48.7125 12.9612 48.7125L18.8305 47.6121Z" fill="#A0616A"/>
<path d="M12.1052 57.8831L13.5726 60.2064L22.3296 57.4513C24.251 56.8468 26.358 57.0693 28.0622 58.143C29.5907 59.1059 30.5689 60.6343 28.3679 62.8964C23.966 67.4206 21.0314 64.9751 21.0314 64.9751C21.0314 64.9751 6.23602 71.9448 3.7905 68.5211C1.34499 65.0974 1.22272 63.3855 1.22272 63.3855C1.22272 63.3855 10.6379 57.5163 12.1052 57.8831Z" fill="#2F2E41"/>
<path d="M30.4467 65.9535C30.4467 65.9535 34.3595 68.5213 29.713 69.7441C25.0665 70.9668 21.6428 69.2549 21.6428 69.2549C21.6428 69.2549 17.6077 69.255 17.6077 67.1763C17.6077 65.0976 18.9528 64.853 18.9528 64.853L23.1101 65.4644C23.1101 65.4644 28.1234 64.1194 30.4467 65.9535Z" fill="#D0CDE1"/>
<path d="M22.733 31.7995C23.1075 31.9664 23.4789 32.164 23.886 32.2125C24.2932 32.2609 24.7569 32.1188 24.9495 31.7568C25.0536 31.5613 25.0655 31.3314 25.0703 31.11C25.0851 30.4385 25.0365 29.7126 24.611 29.193C24.3402 28.8623 23.9449 28.6538 23.6646 28.3312C23.4638 28.1 23.3301 27.8198 23.1862 27.5495C22.6411 26.5256 21.834 25.5417 20.7122 25.2465C20.2438 25.1232 19.7524 25.1292 19.2681 25.1361L16.4433 25.1759C15.9861 25.1824 15.5219 25.1899 15.0843 25.3222C14.1751 25.5971 13.5131 26.3617 12.9067 27.0929C12.4531 27.64 11.9983 28.1927 11.6579 28.8165C11.1698 29.7269 10.923 30.747 10.941 31.7798C10.9372 32.0447 10.9714 32.3087 11.0425 32.5639C11.1258 32.7979 11.2289 33.0244 11.3507 33.2408C11.8805 34.2814 12.195 35.581 11.5984 36.5847C12.6348 36.1614 13.6602 35.6063 14.3438 34.7198C14.6497 34.3232 14.8895 33.859 15.2971 33.568C15.7047 33.2769 16.3688 33.2517 16.6303 33.6788C16.7201 33.8516 16.7664 34.0437 16.7651 34.2385C16.7842 34.5591 16.7837 34.892 16.9196 35.183C17.0555 35.474 17.3793 35.7088 17.6884 35.6217C18.2208 35.4717 18.1698 34.6547 18.5799 34.2835C18.8913 34.0016 19.3717 34.0555 19.7718 33.9275C20.2379 33.7785 20.5877 33.3746 20.787 32.9277C20.9384 32.5879 20.9363 31.6988 21.2229 31.5148C21.5823 31.2841 22.3998 31.6509 22.733 31.7995Z" fill="#2F2E41"/>
<path d="M9.03957 37.1889C9.28711 37.1229 9.54772 37.1236 9.79492 37.1909C10.5798 37.4016 12.3394 37.9594 12.7167 38.8083C13.2058 39.9088 14.9176 41.6206 14.9176 41.6206C14.9176 41.6206 17.2409 43.9439 16.7518 45.5335C16.2627 47.1231 14.4285 48.9572 14.4285 48.9572C14.4285 48.9572 14.9176 56.5383 12.4721 58.4947C10.0266 60.4511 9.0484 59.1061 9.0484 60.9402C9.0484 62.7744 1.46731 68.5213 0 64.9753C0 64.9753 0.733655 58.3724 0.489103 56.0492C0.248078 53.7594 0.600925 39.4735 9.03957 37.1889Z" fill="#D0CDE1"/>
<path d="M12.9612 40.2756C12.9612 40.2756 20.42 45.778 19.075 48.1012C19.075 48.1012 14.5508 50.3021 13.5726 50.1799C12.5944 50.0576 8.80381 45.7779 7.82561 45.4111C6.8474 45.0443 6.3583 38.4414 12.9612 40.2756Z" fill="#D0CDE1"/>
<path d="M46.2857 28.1077C49.6218 28.1077 52.3262 25.4032 52.3262 22.0671C52.3262 18.7311 49.6218 16.0266 46.2857 16.0266C42.9496 16.0266 40.2452 18.7311 40.2452 22.0671C40.2452 25.4032 42.9496 28.1077 46.2857 28.1077Z" fill="#F2F2F2"/>
<path d="M96.1774 14.2221H62.3273V7.13892H96.1774V14.2221ZM62.4764 14.073H96.0283V7.28803H62.4764V14.073Z" fill="#3F3D56"/>
<path d="M93.7169 8.55591H60.0159V15.49H93.7169V8.55591Z" fill="#325CAE"/>
<path d="M38.7119 1.93862C39.0002 1.93862 39.2338 1.70495 39.2338 1.4167C39.2338 1.12845 39.0002 0.894775 38.7119 0.894775C38.4237 0.894775 38.19 1.12845 38.19 1.4167C38.19 1.70495 38.4237 1.93862 38.7119 1.93862Z" fill="#325CAE"/>
<path d="M40.5014 1.93862C40.7896 1.93862 41.0233 1.70495 41.0233 1.4167C41.0233 1.12845 40.7896 0.894775 40.5014 0.894775C40.2131 0.894775 39.9794 1.12845 39.9794 1.4167C39.9794 1.70495 40.2131 1.93862 40.5014 1.93862Z" fill="#325CAE"/>
<path d="M42.2908 1.93862C42.579 1.93862 42.8127 1.70495 42.8127 1.4167C42.8127 1.12845 42.579 0.894775 42.2908 0.894775C42.0025 0.894775 41.7689 1.12845 41.7689 1.4167C41.7689 1.70495 42.0025 1.93862 42.2908 1.93862Z" fill="#325CAE"/>
<path d="M100 40.8587H37.2207V0H100V40.8587ZM37.3698 40.7096H99.8509V0.14912H37.3698V40.7096Z" fill="#3F3D56"/>
<path d="M99.9254 2.26172H37.2953V2.41084H99.9254V2.26172Z" fill="#3F3D56"/>
<path d="M38.8611 1.78939C38.7431 1.78939 38.6278 1.75441 38.5297 1.68887C38.4316 1.62332 38.3551 1.53017 38.31 1.42118C38.2648 1.31218 38.253 1.19225 38.276 1.07655C38.2991 0.960841 38.3559 0.854559 38.4393 0.77114C38.5227 0.687721 38.629 0.630912 38.7447 0.607897C38.8604 0.584882 38.9803 0.596694 39.0893 0.64184C39.1983 0.686986 39.2915 0.763438 39.357 0.861529C39.4226 0.959619 39.4576 1.07494 39.4576 1.19291C39.4574 1.35105 39.3945 1.50266 39.2826 1.61448C39.1708 1.72631 39.0192 1.78921 38.8611 1.78939ZM38.8611 0.745555C38.7726 0.745555 38.6861 0.771792 38.6125 0.820948C38.539 0.870105 38.4816 0.939973 38.4478 1.02172C38.4139 1.10346 38.405 1.19341 38.4223 1.28019C38.4396 1.36697 38.4822 1.44668 38.5447 1.50924C38.6073 1.57181 38.687 1.61441 38.7738 1.63168C38.8606 1.64894 38.9505 1.64008 39.0323 1.60622C39.114 1.57236 39.1839 1.51502 39.233 1.44145C39.2822 1.36788 39.3084 1.28139 39.3084 1.19291C39.3083 1.07431 39.2611 0.960602 39.1773 0.876735C39.0934 0.792869 38.9797 0.745693 38.8611 0.745555Z" fill="#3F3D56"/>
<path d="M40.6505 1.78939C40.5325 1.78939 40.4172 1.75441 40.3191 1.68887C40.221 1.62332 40.1446 1.53017 40.0994 1.42118C40.0543 1.31218 40.0425 1.19225 40.0655 1.07655C40.0885 0.960841 40.1453 0.854559 40.2287 0.77114C40.3121 0.687721 40.4184 0.630912 40.5341 0.607897C40.6498 0.584882 40.7698 0.596694 40.8788 0.64184C40.9878 0.686986 41.0809 0.763438 41.1465 0.861529C41.212 0.959619 41.247 1.07494 41.247 1.19291C41.2468 1.35105 41.1839 1.50266 41.0721 1.61448C40.9603 1.72631 40.8086 1.78921 40.6505 1.78939ZM40.6505 0.745555C40.562 0.745555 40.4755 0.771792 40.402 0.820948C40.3284 0.870105 40.2711 0.939973 40.2372 1.02172C40.2033 1.10346 40.1945 1.19341 40.2117 1.28019C40.229 1.36697 40.2716 1.44668 40.3342 1.50924C40.3967 1.57181 40.4764 1.61441 40.5632 1.63168C40.65 1.64894 40.74 1.64008 40.8217 1.60622C40.9034 1.57236 40.9733 1.51502 41.0225 1.44145C41.0716 1.36788 41.0979 1.28139 41.0979 1.19291C41.0977 1.07431 41.0505 0.960602 40.9667 0.876735C40.8828 0.792869 40.7691 0.745693 40.6505 0.745555Z" fill="#3F3D56"/>
<path d="M42.4399 1.78939C42.3219 1.78939 42.2066 1.75441 42.1085 1.68887C42.0104 1.62333 41.934 1.53017 41.8889 1.42118C41.8437 1.31218 41.8319 1.19225 41.8549 1.07655C41.8779 0.960842 41.9347 0.854559 42.0181 0.77114C42.1016 0.687721 42.2078 0.630913 42.3236 0.607897C42.4393 0.584882 42.5592 0.596694 42.6682 0.64184C42.7772 0.686985 42.8703 0.763437 42.9359 0.861527C43.0014 0.959617 43.0364 1.07494 43.0364 1.19291C43.0362 1.35105 42.9733 1.50266 42.8615 1.61448C42.7497 1.72631 42.5981 1.78921 42.4399 1.78939ZM42.4399 0.745555C42.3514 0.745555 42.265 0.771792 42.1914 0.820948C42.1178 0.870105 42.0605 0.939972 42.0266 1.02172C41.9928 1.10346 41.9839 1.19341 42.0012 1.28019C42.0184 1.36697 42.061 1.44668 42.1236 1.50924C42.1862 1.57181 42.2659 1.61441 42.3526 1.63168C42.4394 1.64894 42.5294 1.64008 42.6111 1.60622C42.6929 1.57236 42.7627 1.51502 42.8119 1.44145C42.861 1.36788 42.8873 1.28139 42.8873 1.19291C42.8871 1.07431 42.84 0.960602 42.7561 0.876736C42.6722 0.79287 42.5585 0.745693 42.4399 0.745555Z" fill="#3F3D56"/>
<path d="M57.0332 2.33643H56.8841V40.8421H57.0332V2.33643Z" fill="#3F3D56"/>
<path d="M74.9651 21.2681H64.0048V22.7593H74.9651V21.2681Z" fill="#F2F2F2"/>
<path d="M92.1884 21.2681H81.2281V22.7593H92.1884V21.2681Z" fill="#F2F2F2"/>
<path d="M75.6362 22.0883H64.5268V20.448H75.6362V22.0883ZM64.6759 21.9392H75.4871V20.5971H64.6759V21.9392Z" fill="#3F3D56"/>
<path d="M74.9651 32.825H64.0048V34.3161H74.9651V32.825Z" fill="#F2F2F2"/>
<path d="M75.6362 33.645H64.5268V32.0046H75.6362V33.645ZM64.6759 33.4958H75.4871V32.1538H64.6759V33.4958Z" fill="#3F3D56"/>
<path d="M92.2257 26.8975H64.0421V28.3887H92.2257V26.8975Z" fill="#F2F2F2"/>
<path d="M92.8967 27.8666H64.564V26.2263H92.8967V27.8666ZM64.7131 27.7175H92.7476V26.3754H64.7131V27.7175Z" fill="#3F3D56"/>
<path d="M92.8595 22.0883H81.7501V20.448H92.8595V22.0883ZM81.8992 21.9392H92.7104V20.5971H81.8992V21.9392Z" fill="#3F3D56"/>
<path d="M47.3079 26.5279C46.0948 26.5279 44.909 26.1682 43.9003 25.4942C42.8917 24.8203 42.1056 23.8624 41.6413 22.7416C41.1771 21.6209 41.0556 20.3877 41.2923 19.1979C41.529 18.0081 42.1131 16.9152 42.9709 16.0574C43.8287 15.1997 44.9215 14.6155 46.1113 14.3788C47.3011 14.1422 48.5343 14.2636 49.6551 14.7279C50.7758 15.1921 51.7337 15.9782 52.4077 16.9869C53.0816 17.9955 53.4414 19.1814 53.4414 20.3945C53.4395 22.0206 52.7927 23.5796 51.6429 24.7294C50.493 25.8793 48.934 26.5261 47.3079 26.5279ZM47.3079 14.4469C46.1316 14.4469 44.9817 14.7957 44.0036 15.4492C43.0255 16.1027 42.2632 17.0316 41.813 18.1184C41.3629 19.2052 41.2451 20.4011 41.4746 21.5548C41.7041 22.7085 42.2705 23.7683 43.1023 24.6C43.9341 25.4318 44.9939 25.9983 46.1476 26.2278C47.3013 26.4573 48.4972 26.3395 49.584 25.8893C50.6707 25.4392 51.5996 24.6768 52.2531 23.6988C52.9067 22.7207 53.2555 21.5708 53.2555 20.3945C53.2537 18.8176 52.6265 17.3058 51.5115 16.1908C50.3965 15.0758 48.8848 14.4486 47.3079 14.4469Z" fill="#3F3D56"/>
<path d="M95.8181 69.1833H69.5186V69.3692H95.8181V69.1833Z" fill="#3F3D56"/>
</g>
<defs>
<clipPath id="clip0">
<rect width="100" height="70.1843" fill="white"/>
</clipPath>
</defs>
</svg>
