<svg width="400" height="317" viewBox="0 0 400 317" fill="none" xmlns="http://www.w3.org/2000/svg">
<g clip-path="url(#clip0)">
<path d="M198.382 82.4833C216.821 79.2477 238.249 79.8099 261.355 82.4833C256.667 55.8989 256.453 29.8605 261.355 4.453H198.382C193.731 30.2552 193.731 56.6812 198.382 82.4833Z" fill="#F2F2F2"/>
<path d="M217.181 7.18701L239.086 7.18701V-4.81606e-05L217.181 -4.81606e-05V7.18701Z" fill="#3F3D56"/>
<path opacity="0.1" d="M149.363 236.55C167.802 233.314 189.23 233.877 212.336 236.55C207.648 209.966 207.434 183.927 212.336 158.52H149.363C144.712 184.322 144.712 210.748 149.363 236.55Z" fill="black"/>
<path d="M146.532 232.91C164.971 229.674 186.398 230.237 209.505 232.91C204.817 206.326 204.603 180.287 209.505 154.88H146.532C141.881 180.682 141.881 207.108 146.532 232.91Z" fill="#F2F2F2"/>
<path d="M165.323 157.614H187.228V150.427H165.323V157.614Z" fill="#3F3D56"/>
<path d="M92.4166 105.537C92.4166 105.537 116.841 36.453 171.256 35.8423" stroke="#3F3D56" stroke-width="2" stroke-miterlimit="10"/>
<path d="M176.137 35.9717C173.82 36.7806 170.94 38.1598 169.136 39.6603L170.617 35.8463L169.314 31.9677C171.045 33.549 173.86 35.0738 176.137 35.9717Z" fill="#3F3D56"/>
<path d="M94.4388 131.826C94.4388 131.826 92.2305 187.414 123.988 194.981" stroke="#3F3D56" stroke-width="2" stroke-miterlimit="10"/>
<path d="M128.817 195.729C126.411 196.198 123.365 197.173 121.371 198.406L123.365 194.835L122.613 190.815C124.109 192.619 126.686 194.516 128.817 195.729Z" fill="#3F3D56"/>
<path d="M100.91 113.626C100.91 113.626 272.647 84.9989 302.119 120.412" stroke="#3F3D56" stroke-width="2" stroke-miterlimit="10"/>
<path d="M304.752 124.546C302.77 123.102 299.984 121.529 297.727 120.906L301.699 119.939L304.125 116.651C303.83 118.981 304.194 122.16 304.752 124.546Z" fill="#3F3D56"/>
<g opacity="0.1">
<path opacity="0.1" d="M200 316.049C310.457 316.049 400 310.073 400 302.702C400 295.331 310.457 289.355 200 289.355C89.5431 289.355 0 295.331 0 302.702C0 310.073 89.5431 316.049 200 316.049Z" fill="#325CAE"/>
</g>
<path opacity="0.1" d="M375.636 203.219C359.3 212.36 343.033 226.318 326.803 242.977C313.65 219.405 297.383 199.078 277.537 182.467L326.37 142.71C346.267 159.783 362.951 180.275 375.636 203.219Z" fill="black"/>
<path d="M376.445 199.984C360.109 209.124 343.842 223.082 327.612 239.741C314.459 216.17 298.192 195.842 278.346 179.232L327.179 139.474C347.076 156.547 363.76 177.039 376.445 199.984Z" fill="#F2F2F2"/>
<path d="M309.803 147.895L292.816 161.724L297.354 167.298L314.341 153.468L309.803 147.895Z" fill="#3F3D56"/>
<path d="M333.766 164.153L303.656 188.667L306.975 192.744L337.085 168.23L333.766 164.153Z" fill="#325CAE"/>
<path d="M379.636 297.561C379.4 297.188 379.103 296.857 378.758 296.582C376.991 294.916 376.17 292.461 375.733 290.063C375.296 287.664 375.171 285.209 374.471 282.855C374.09 281.651 373.614 280.478 373.047 279.349C372.643 278.487 372.133 276.789 371.393 276.186C371.247 276.061 371.072 275.975 370.884 275.935C370.535 275.193 370.037 274.53 369.42 273.99C368.263 272.942 366.851 272.109 366.079 270.754C365.867 270.283 365.605 269.836 365.298 269.42C364.777 268.845 363.951 268.611 363.47 268.004C362.843 267.219 362.985 266.099 363.066 265.096C363.147 264.093 363.066 262.9 362.2 262.378C361.682 262.059 361.015 262.087 360.477 261.808C359.668 261.403 359.349 260.38 359.365 259.47C359.381 258.56 359.664 257.674 359.737 256.768C359.964 253.873 358.055 250.993 358.791 248.186C359.07 247.122 359.709 246.196 360.182 245.209C360.346 244.879 360.481 244.535 360.586 244.182C361.848 244.683 363.174 245.002 364.526 245.128C362.297 240.133 362.863 234.322 361.824 228.95L361.958 228.764C363.008 227.382 363.604 225.707 363.664 223.972C363.664 221.949 362.73 220.101 362.309 218.148C361.949 216.481 361.966 214.746 361.5 213.108C361.178 212.093 360.749 211.114 360.222 210.188C359.718 209.255 359.188 208.336 358.633 207.43C358.115 205.715 357.596 204 357.076 202.285C356.348 199.858 355.6 197.432 354.184 195.353C353.666 194.588 353.509 193.048 352.712 192.582C352.064 192.249 351.33 192.122 350.609 192.218C349.484 191.587 348.497 190.677 348.356 189.432C348.342 189.16 348.369 188.887 348.437 188.623H348.574C350.354 188.457 351.256 186.888 352.182 185.517C353.678 183.288 353.108 180.279 352.182 177.747C351.951 176.949 351.536 176.216 350.969 175.608C349.67 174.394 347.616 174.665 345.941 174.079C345.399 173.84 344.844 173.63 344.279 173.452C343.167 173.189 342.002 173.553 340.983 174.067C339.964 174.58 339.013 175.244 337.945 175.652C336.878 176.061 335.559 176.376 335.296 177.472C335.223 177.841 335.253 178.224 335.385 178.576C335.632 179.278 336.064 179.9 336.635 180.376C336.18 181.314 335.934 182.339 335.914 183.381C335.894 184.423 336.1 185.456 336.518 186.411C336.936 187.366 337.556 188.218 338.335 188.91C339.114 189.602 340.034 190.117 341.031 190.419C341.339 190.908 341.626 191.41 341.889 191.927C342.358 192.833 342.754 193.901 342.593 194.872C342.3 195.181 342.03 195.511 341.784 195.858C340.623 197.476 339.964 199.377 339.357 201.266C338.542 203.684 337.889 206.154 337.403 208.659C336.417 210.754 335.211 212.76 334.495 214.965C333.214 214.968 331.938 214.798 330.702 214.459L327.288 213.682C326.099 213.416 324.861 213.12 323.931 212.34C323.438 211.935 323.054 211.397 322.552 210.993C322.051 210.588 321.043 210.123 320.493 210.455C320.393 210.516 320.299 210.588 320.214 210.669C319.713 209.654 318.483 212.243 317.901 211.284C317.068 209.905 314.144 211.503 312.566 211.244C311.603 211.089 310.618 211.317 309.82 211.879C308.898 212.538 308.32 213.901 309.011 214.823C309.183 215.03 309.371 215.224 309.573 215.401C310.042 215.939 310.461 216.518 310.823 217.132C312.069 218.924 314.936 217.343 317.112 217.755C317.064 217.893 318.637 214.483 318.589 214.625C318.301 215.462 317.691 216.481 317.844 217.355L333.027 222.552C334.001 222.948 335.035 223.175 336.085 223.223C336.494 223.219 336.902 223.166 337.298 223.066V223.842V223.871C337.339 229.205 336.489 234.508 336.332 239.838C336.303 240.809 336.332 241.86 336.946 242.621C337.634 243.454 338.855 243.616 339.919 243.43C340.173 243.389 340.424 243.333 340.671 243.264C341.031 244.604 341.291 245.97 341.448 247.349L342.455 254.532C342.584 255.271 342.637 256.022 342.613 256.772C342.495 258.463 341.602 259.984 340.955 261.549C340.307 263.114 339.923 264.983 340.773 266.447C341.039 266.9 341.407 267.288 341.646 267.757C341.949 268.482 342.087 269.266 342.051 270.051C342.113 272.235 342.172 274.416 342.229 276.595C342.052 276.569 341.871 276.606 341.719 276.7C340.878 277.351 340.971 280.473 340.91 281.44C340.845 283.058 340.91 284.708 340.821 286.342C340.708 288.55 340.344 290.739 339.737 292.866C339.591 293.555 339.273 294.197 338.811 294.73C338.337 295.14 337.773 295.432 337.165 295.583C335.15 296.213 333.043 296.499 330.932 296.429C330.079 296.404 329.189 296.319 328.396 296.647C327.604 296.975 326.965 297.86 327.252 298.669C327.499 299.349 328.247 299.672 328.922 299.927C330.464 300.464 331.953 301.141 333.371 301.949C333.917 302.321 334.492 302.648 335.09 302.928C335.664 303.134 336.258 303.281 336.861 303.365L344.032 304.578C345.501 304.833 347.268 304.983 348.202 303.769C348.708 303.114 348.781 302.224 348.756 301.395C348.716 299.778 348.392 298.127 348.603 296.514C348.762 295.556 349.014 294.616 349.355 293.707L351.498 287.45C352.218 285.318 352.946 283.171 353.225 280.938C353.327 280.129 353.318 279.211 352.7 278.702C352.542 278.575 352.361 278.481 352.166 278.427C352.142 276.477 351.887 274.528 351.996 272.578C352.024 272.089 352.073 271.604 352.113 271.118C352.489 271.474 352.824 271.87 353.112 272.299C353.804 273.379 354.059 274.811 355.114 275.535C356.012 276.146 357.343 276.117 357.974 277.007C358.176 277.348 358.328 277.715 358.427 278.099C358.793 279.054 359.343 279.928 360.044 280.671C360.286 281.559 360.621 282.418 361.043 283.236L362.823 286.997C363.428 288.348 364.103 289.667 364.845 290.948C365.41 291.756 365.865 292.635 366.2 293.561C366.77 295.563 365.84 297.755 364.368 299.223C362.896 300.692 360.954 301.541 359.041 302.33C358.839 302.396 358.654 302.507 358.499 302.653C358.334 302.85 358.246 303.1 358.253 303.357C358.253 304.291 359.021 305.088 359.903 305.379C360.805 305.617 361.748 305.652 362.665 305.48C367.834 304.853 372.987 303.587 377.557 301.08C378.239 300.754 378.844 300.286 379.333 299.709C379.576 299.414 379.734 299.057 379.787 298.678C379.841 298.299 379.788 297.912 379.636 297.561Z" fill="url(#paint0_linear)"/>
<path d="M357.792 206.876C358.655 208.197 359.463 209.553 360.218 210.944C360.745 211.862 361.174 212.833 361.496 213.84C361.966 215.458 361.953 217.185 362.305 218.839C362.71 220.781 363.656 222.633 363.656 224.619C363.594 226.343 362.998 228.005 361.949 229.375C360.903 230.734 359.706 231.97 358.382 233.06C355.328 225.148 353.622 216.78 353.335 208.303C353.294 207.126 353.286 205.917 353.715 204.821C353.978 204.138 355.24 202.253 356.053 202.993C356.348 203.264 356.425 204.481 356.607 204.89C356.95 205.581 357.346 206.245 357.792 206.876Z" fill="#2F2E41"/>
<path opacity="0.1" d="M357.792 206.876C358.655 208.197 359.463 209.553 360.218 210.944C360.745 211.862 361.174 212.833 361.496 213.84C361.966 215.458 361.953 217.185 362.305 218.839C362.71 220.781 363.656 222.633 363.656 224.619C363.594 226.343 362.998 228.005 361.949 229.375C360.903 230.734 359.706 231.97 358.382 233.06C355.328 225.148 353.622 216.78 353.335 208.303C353.294 207.126 353.286 205.917 353.715 204.821C353.978 204.138 355.24 202.253 356.053 202.993C356.348 203.264 356.425 204.481 356.607 204.89C356.95 205.581 357.346 206.245 357.792 206.876Z" fill="black"/>
<path d="M314.374 211.292C312.793 211.033 311.037 211.159 309.808 212.186C309.066 212.816 308.596 213.709 308.498 214.677C308.392 215.802 309.044 217.128 310.168 217.217C310.438 217.22 310.709 217.203 310.977 217.165C311.687 217.16 312.396 217.219 313.096 217.339C314.474 217.468 315.862 217.266 317.145 216.748C318.428 216.23 319.568 215.412 320.469 214.362C321.436 213.169 320.162 212.627 319.021 212.384C317.46 212.053 315.935 211.551 314.374 211.292Z" fill="#FBBEBE"/>
<path d="M341.424 247.814L342.427 254.94C342.555 255.674 342.606 256.42 342.58 257.165C342.463 258.843 341.569 260.352 340.926 261.905C340.283 263.458 339.891 265.314 340.744 266.758C341.007 267.207 341.375 267.591 341.614 268.057C341.917 268.777 342.055 269.557 342.018 270.338L342.293 280.449C345.415 280.663 348.549 280.647 351.668 280.4C351.791 280.405 351.911 280.366 352.008 280.291C352.09 280.188 352.132 280.059 352.125 279.927C352.263 277.561 351.85 275.191 351.984 272.825C352.032 271.959 352.154 271.094 352.17 270.228C352.218 266.706 350.479 263.256 351.005 259.769C351.171 258.891 351.387 258.022 351.652 257.169C353.315 251.122 352.963 244.728 352.595 238.467C352.601 238.365 352.573 238.263 352.514 238.18C352.453 238.121 352.378 238.081 352.295 238.063C350.525 237.533 348.654 237.437 346.84 237.783C345.025 238.129 343.32 238.906 341.869 240.048C341.428 240.404 340.316 240.744 340.024 241.169C339.62 241.763 340.15 242.35 340.384 242.981C340.904 244.55 341.252 246.17 341.424 247.814Z" fill="#3F3D56"/>
<path opacity="0.1" d="M341.424 247.814L342.427 254.94C342.555 255.674 342.606 256.42 342.58 257.165C342.463 258.843 341.569 260.352 340.926 261.905C340.283 263.458 339.891 265.314 340.744 266.758C341.007 267.207 341.375 267.591 341.614 268.057C341.917 268.777 342.055 269.557 342.018 270.338L342.293 280.449C345.415 280.663 348.549 280.647 351.668 280.4C351.791 280.405 351.911 280.366 352.008 280.291C352.09 280.188 352.132 280.059 352.125 279.927C352.263 277.561 351.85 275.191 351.984 272.825C352.032 271.959 352.154 271.094 352.17 270.228C352.218 266.706 350.479 263.256 351.005 259.769C351.171 258.891 351.387 258.022 351.652 257.169C353.315 251.122 352.963 244.728 352.595 238.467C352.601 238.365 352.573 238.263 352.514 238.18C352.453 238.121 352.378 238.081 352.295 238.063C350.525 237.533 348.654 237.437 346.84 237.783C345.025 238.129 343.32 238.906 341.869 240.048C341.428 240.404 340.316 240.744 340.024 241.169C339.62 241.763 340.15 242.35 340.384 242.981C340.904 244.55 341.252 246.17 341.424 247.814Z" fill="black"/>
<path d="M360.162 245.674C359.689 246.657 359.054 247.575 358.77 248.631C358.034 251.418 359.939 254.293 359.713 257.149C359.64 258.046 359.361 258.928 359.341 259.83C359.321 260.732 359.652 261.731 360.453 262.148C360.991 262.427 361.666 262.398 362.172 262.714C363.025 263.231 363.122 264.421 363.037 265.411C362.952 266.402 362.811 267.519 363.442 268.299C363.923 268.902 364.748 269.132 365.266 269.703C365.574 270.113 365.836 270.557 366.047 271.025C366.819 272.372 368.231 273.201 369.387 274.237C370.544 275.272 371.523 276.853 371.005 278.317C370.625 279.397 369.557 280.057 368.53 280.566C366.655 281.491 364.677 282.189 362.637 282.645C362.418 282.713 362.186 282.726 361.962 282.681C361.734 282.598 361.531 282.459 361.371 282.277C360.178 281.112 358.944 279.887 358.394 278.309C358.296 277.928 358.143 277.563 357.941 277.225C357.31 276.344 355.98 276.372 355.082 275.765C354.03 275.049 353.776 273.626 353.088 272.554C352.4 271.482 351.393 270.847 350.661 269.901C349.424 268.332 349.12 266.237 348.235 264.445C347.811 263.71 347.425 262.954 347.078 262.18C346.775 261.23 346.589 260.247 346.524 259.252C345.954 254.532 344.502 249.771 345.416 245.096C345.618 244.065 345.929 243.074 346.059 242.014C346.281 240.178 345.929 238.305 346.2 236.473C346.206 236.244 346.264 236.019 346.37 235.816C346.476 235.613 346.627 235.436 346.811 235.3C347.029 235.201 347.267 235.151 347.507 235.155C349.904 235.028 352.308 235.083 354.698 235.316C355.911 235.438 357.27 235.684 357.998 236.671C358.617 237.521 358.584 238.661 358.783 239.693C359.029 240.958 359.672 241.654 360.348 242.649C361.023 243.644 360.675 244.647 360.162 245.674Z" fill="#3F3D56"/>
<path d="M350.859 278.552C351.498 278.552 352.206 278.511 352.7 278.92C353.314 279.421 353.323 280.348 353.225 281.136C352.942 283.353 352.218 285.484 351.494 287.608L349.343 293.917C349.003 294.819 348.751 295.753 348.59 296.704C348.38 298.321 348.704 299.939 348.744 301.557C348.744 302.366 348.692 303.264 348.186 303.911C347.272 305.088 345.488 304.95 344.02 304.72L336.857 303.506C336.253 303.425 335.659 303.278 335.086 303.07C334.487 302.797 333.912 302.473 333.367 302.103C331.95 301.293 330.46 300.616 328.918 300.081C328.247 299.826 327.494 299.506 327.252 298.831C326.965 298.022 327.604 297.136 328.396 296.809C329.189 296.481 330.075 296.566 330.932 296.594C333.041 296.662 335.146 296.377 337.161 295.749C337.767 295.6 338.329 295.31 338.803 294.904C339.265 294.377 339.584 293.741 339.729 293.055C340.339 290.947 340.703 288.776 340.813 286.584C340.898 284.966 340.841 283.349 340.906 281.731C340.946 280.768 340.853 277.686 341.695 277.027C342.338 276.534 344.983 277.893 345.852 278.095C347.496 278.455 349.178 278.608 350.859 278.552Z" fill="#2F2E41"/>
<path d="M374.443 283.037C375.143 285.359 375.252 287.806 375.705 290.188C376.158 292.57 376.959 295.005 378.726 296.659C379.071 296.931 379.368 297.259 379.604 297.63C379.753 297.976 379.803 298.357 379.75 298.73C379.696 299.104 379.541 299.455 379.3 299.745C378.811 300.318 378.206 300.781 377.525 301.104C372.959 303.6 367.818 304.853 362.637 305.476C361.722 305.651 360.779 305.618 359.879 305.379C358.997 305.08 358.216 304.287 358.233 303.357C358.224 303.103 358.311 302.855 358.475 302.661C358.631 302.515 358.818 302.404 359.021 302.338C360.93 301.557 362.868 300.72 364.344 299.256C365.82 297.792 366.746 295.616 366.176 293.65C365.843 292.729 365.387 291.857 364.821 291.058C364.082 289.785 363.407 288.475 362.799 287.134L361.019 283.401C360.497 282.309 359.972 281.185 359.883 279.98C362.118 280.082 364.351 279.724 366.443 278.928C367.42 278.532 368.33 277.986 369.141 277.31C369.828 276.736 370.455 275.664 371.381 276.417C372.125 277.015 372.595 278.698 373.031 279.555C373.595 280.676 374.067 281.84 374.443 283.037Z" fill="#2F2E41"/>
<path d="M348.364 190.346C348.542 191.895 350.046 192.922 351.482 193.533L342.394 196.449C342.981 195.325 342.508 193.953 341.925 192.809C341.452 191.907 340.911 191.041 340.307 190.22C340.218 190.091 340.117 189.933 340.182 189.792C340.24 189.697 340.33 189.626 340.437 189.594C342.305 188.76 344.23 187.899 346.273 187.596C346.863 187.507 347.98 187.272 348.421 187.871C348.861 188.469 348.279 189.63 348.364 190.346Z" fill="#FBBEBE"/>
<path opacity="0.1" d="M348.364 190.346C348.542 191.895 350.046 192.922 351.482 193.533L342.394 196.449C342.981 195.325 342.508 193.953 341.925 192.809C341.452 191.907 340.911 191.041 340.307 190.22C340.218 190.091 340.117 189.933 340.182 189.792C340.24 189.697 340.33 189.626 340.437 189.594C342.305 188.76 344.23 187.899 346.273 187.596C346.863 187.507 347.98 187.272 348.421 187.871C348.861 188.469 348.279 189.63 348.364 190.346Z" fill="black"/>
<path d="M343.082 191.604C347.018 191.604 350.208 188.413 350.208 184.477C350.208 180.541 347.018 177.351 343.082 177.351C339.146 177.351 335.956 180.541 335.956 184.477C335.956 188.413 339.146 191.604 343.082 191.604Z" fill="#FBBEBE"/>
<path d="M336.922 243.122C337.614 243.931 338.831 244.109 339.895 243.931C342.382 243.527 344.417 241.695 346.851 241.031C349.836 240.222 352.995 241.266 355.814 242.536C358.633 243.806 361.436 245.347 364.518 245.59C361.731 239.377 363.325 231.899 360.659 225.634C360.008 224.101 359.098 222.625 358.953 220.967C358.771 218.908 359.798 216.922 359.956 214.876C360.101 213.052 359.551 211.236 359.025 209.501C358.375 207.365 357.726 205.228 357.076 203.09C356.348 200.7 355.6 198.273 354.188 196.214C353.666 195.458 353.509 193.929 352.716 193.468C350.985 192.469 348.36 193.731 346.483 193.8C344.607 193.869 342.896 195.203 341.8 196.708C340.639 198.326 339.98 200.202 339.373 202.079C338.407 204.873 337.685 207.746 337.217 210.665C337.157 211.102 337.104 211.539 337.064 211.98C336.659 216.134 337.25 220.311 337.282 224.481V224.51C337.323 229.804 336.473 235.066 336.315 240.356C336.299 241.343 336.299 242.382 336.922 243.122Z" fill="#2F2E41"/>
<path opacity="0.1" d="M337.278 224.485C338.673 224.133 339.935 223.231 341.019 222.249C341.956 221.414 342.789 220.47 343.502 219.438C344.399 218.026 345.118 216.508 345.642 214.92C347.14 210.709 348.092 206.322 348.473 201.868C348.578 200.655 348.611 199.357 347.887 198.394C347.481 197.872 346.91 197.503 346.267 197.346C345.625 197.19 344.948 197.256 344.348 197.533C343.393 198.002 342.774 198.944 342.2 199.842C341.064 201.634 339.919 203.442 339.187 205.432C338.863 206.313 338.625 207.223 338.309 208.109C337.988 208.982 337.618 209.837 337.201 210.669C337.14 211.106 337.088 211.543 337.047 211.984C336.671 216.137 337.246 220.311 337.278 224.485Z" fill="black"/>
<path d="M347.867 197.626C348.59 198.588 348.558 199.903 348.457 201.1C348.075 205.555 347.124 209.943 345.626 214.156C345.104 215.744 344.385 217.26 343.486 218.669C342.774 219.702 341.941 220.646 341.003 221.48C339.628 222.738 337.953 223.854 336.089 223.875C335.04 223.823 334.007 223.598 333.031 223.207L317.86 218.05C317.707 217.185 318.318 216.178 318.605 215.345L319.414 212.942C319.644 212.279 319.911 211.567 320.514 211.207C321.116 210.847 322.071 211.341 322.572 211.737C323.074 212.133 323.454 212.667 323.947 213.076C324.882 213.852 326.115 214.139 327.304 214.406L330.714 215.175C331.95 215.51 333.226 215.679 334.508 215.676C335.458 212.776 337.266 210.216 338.289 207.341C338.605 206.455 338.843 205.545 339.171 204.667C339.899 202.673 341.048 200.865 342.184 199.078C342.754 198.176 343.373 197.233 344.332 196.768C344.931 196.49 345.607 196.423 346.249 196.578C346.891 196.734 347.462 197.103 347.867 197.626Z" fill="#2F2E41"/>
<path d="M345.355 186.083C345.3 185.614 345.154 185.161 344.926 184.748C344.806 184.543 344.624 184.38 344.406 184.284C344.188 184.188 343.946 184.164 343.713 184.214C343.001 184.437 342.762 185.541 342.018 185.577C341.517 185.602 341.157 185.092 340.999 184.611C340.841 184.129 340.756 183.591 340.38 183.252C340.118 183.056 339.818 182.918 339.498 182.847C337.771 182.301 335.988 181.29 335.414 179.571C335.278 179.222 335.246 178.842 335.321 178.475C335.583 177.387 336.938 177.064 337.97 176.667C339.001 176.271 339.992 175.604 341.003 175.098C342.014 174.592 343.187 174.224 344.299 174.483C344.864 174.662 345.419 174.87 345.962 175.106C347.636 175.684 349.687 175.414 350.985 176.623C351.551 177.225 351.967 177.952 352.198 178.746C353.104 181.258 353.678 184.243 352.178 186.455C351.252 187.818 350.354 189.375 348.574 189.537C346.504 189.719 345.683 187.83 345.355 186.083Z" fill="#2F2E41"/>
<g opacity="0.1">
<path opacity="0.1" d="M342.192 183.753C342.034 183.276 341.949 182.734 341.577 182.394C341.316 182.198 341.015 182.06 340.696 181.99C338.965 181.444 337.185 180.433 336.607 178.714C336.475 178.364 336.444 177.984 336.518 177.618C336.559 177.446 336.632 177.282 336.732 177.136C336.073 177.424 335.498 177.804 335.337 178.475C335.262 178.842 335.294 179.222 335.43 179.571C336.004 181.29 337.788 182.301 339.515 182.847C339.834 182.918 340.135 183.056 340.396 183.252C340.772 183.591 340.853 184.133 341.015 184.611C341.177 185.088 341.533 185.602 342.034 185.577C342.536 185.553 342.779 185.096 343.098 184.708C342.657 184.655 342.338 184.194 342.192 183.753Z" fill="black"/>
<path opacity="0.1" d="M349.763 188.671C347.685 188.861 346.863 186.973 346.528 185.225C346.483 184.759 346.346 184.307 346.123 183.895C346.003 183.689 345.822 183.526 345.604 183.429C345.386 183.333 345.143 183.307 344.91 183.357C344.526 183.478 344.279 183.858 344.016 184.166C344.201 184.183 344.38 184.243 344.539 184.34C344.697 184.438 344.831 184.57 344.93 184.728C345.158 185.141 345.304 185.594 345.359 186.063C345.687 187.81 346.508 189.703 348.595 189.509C349.419 189.421 350.181 189.027 350.73 188.404C350.425 188.547 350.098 188.637 349.763 188.671Z" fill="black"/>
</g>
<path d="M102.686 154.815C84.2507 151.579 62.819 152.146 39.7128 154.815C44.4004 128.235 44.6188 102.196 39.7128 76.7847H102.686C107.337 102.587 107.337 129.013 102.686 154.815Z" fill="#F2F2F2"/>
<path d="M83.8989 72.3357H61.9939V79.5228H83.8989V72.3357Z" fill="#3F3D56"/>
<path d="M195.753 175.3H156.926V180.558H195.753V175.3Z" fill="#325CAE"/>
<path d="M195.753 186.22H156.926V191.478H195.753V186.22Z" fill="#325CAE"/>
<path d="M247.523 17.5652H208.696V22.823H247.523V17.5652Z" fill="#325CAE"/>
<path d="M247.523 28.4854H208.696V33.7432H247.523V28.4854Z" fill="#325CAE"/>
<path d="M92.2144 91.1749H53.3873V96.4328H92.2144V91.1749Z" fill="#325CAE"/>
<path d="M51.5915 291.733L59.3327 287.183C58.2858 285.395 56.9475 283.794 55.3731 282.447L40.7685 286.989L52.2144 280.259C49.381 278.707 46.1923 277.919 42.9622 277.974C39.732 278.028 36.5717 278.923 33.7923 280.57C31.0129 282.216 28.7103 284.559 27.111 287.366C25.5117 290.173 24.6709 293.348 24.6714 296.578C24.6714 306.855 32.999 307.211 43.276 307.211C53.5531 307.211 61.8807 306.855 61.8807 296.578C61.8843 293.978 61.34 291.407 60.2831 289.031L51.5915 291.733Z" fill="#325CAE"/>
<path opacity="0.1" d="M53.5612 301.723C52.7373 300.897 51.8166 300.173 50.819 299.567C49.4115 298.633 47.9596 297.682 46.3013 297.363C44.8453 297.088 43.3448 297.323 41.8524 297.238C39.2783 297.079 36.8552 295.969 35.0536 294.123C33.998 293.027 33.1648 291.697 31.8948 290.851C30.5238 289.949 28.7846 289.755 27.1587 289.982C26.6869 290.049 26.2196 290.145 25.7594 290.269C25.0291 292.292 24.6568 294.427 24.6593 296.578C24.6593 306.855 32.9869 307.211 43.2639 307.211C48.2508 307.211 52.7765 307.126 56.1173 305.865L55.5713 304.841C55.0374 303.72 54.3618 302.672 53.5612 301.723Z" fill="black"/>
<path d="M241.755 276.894L231.486 270.867C232.878 268.496 234.655 266.374 236.744 264.586L256.113 270.609L240.934 261.686C244.692 259.628 248.92 258.583 253.204 258.655C257.488 258.728 261.679 259.914 265.365 262.098C269.051 264.282 272.105 267.388 274.225 271.111C276.346 274.833 277.461 279.044 277.46 283.329C277.46 296.954 266.415 297.424 252.789 297.424C239.163 297.424 228.117 296.954 228.117 283.329C228.106 279.873 228.824 276.454 230.224 273.294L241.755 276.894Z" fill="#325CAE"/>
<path opacity="0.1" d="M239.139 290.139C240.235 289.046 241.457 288.087 242.779 287.28C244.643 286.046 246.572 284.781 248.768 284.36C250.698 283.992 252.688 284.303 254.649 284.19C258.065 283.984 261.28 282.511 263.668 280.061C265.068 278.609 266.172 276.825 267.858 275.721C269.674 274.508 271.98 274.273 274.135 274.568C274.762 274.661 275.383 274.788 275.996 274.948C276.963 277.634 277.455 280.466 277.452 283.32C277.452 296.946 266.406 297.416 252.781 297.416C246.168 297.416 240.166 297.306 235.733 295.636L236.473 294.253C237.184 292.775 238.08 291.393 239.139 290.139Z" fill="black"/>
</g>
<defs>
<linearGradient id="paint0_linear" x1="346.295" y1="306.16" x2="340.941" y2="173.455" gradientUnits="userSpaceOnUse">
<stop stop-color="#808080" stop-opacity="0.25"/>
<stop offset="0.54" stop-color="#808080" stop-opacity="0.12"/>
<stop offset="1" stop-color="#808080" stop-opacity="0.1"/>
</linearGradient>
<clipPath id="clip0">
<rect width="400" height="316.049" fill="white"/>
</clipPath>
</defs>
</svg>
