<svg width="100" height="89" viewBox="0 0 100 89" fill="none" xmlns="http://www.w3.org/2000/svg">
<g clip-path="url(#clip0)">
<path d="M9.84413 88.3985C15.2809 88.3985 19.6883 87.4772 19.6883 86.3408C19.6883 85.2043 15.2809 84.283 9.84413 84.283C4.40737 84.283 0 85.2043 0 86.3408C0 87.4772 4.40737 88.3985 9.84413 88.3985Z" fill="#E6E6E6"/>
<path d="M18.027 55.7505L18.4122 56.5464C18.4122 56.5464 20.5983 59.464 19.2478 59.921C17.8973 60.3781 17.1807 57.1539 17.1807 57.1539L16.8236 56.7026L18.027 55.7505Z" fill="#A0616A"/>
<path d="M15.5088 40.6796L15.8681 40.5276C15.8681 40.5276 16.2934 40.6796 16.2934 41.3335C16.2934 41.9873 15.7703 51.5335 15.7703 51.5335L16.8165 56.7643L15.378 57.0258L13.1549 52.1873L15.5088 40.6796Z" fill="#575A89"/>
<path d="M15.5088 40.6796L15.8681 40.5276C15.8681 40.5276 16.2934 40.6796 16.2934 41.3335C16.2934 41.9873 15.7703 51.5335 15.7703 51.5335L18.5818 56.045L16.7511 57.3527L13.1549 52.1873L15.5088 40.6796Z" fill="#575A89"/>
<path d="M15.2472 55.8488C15.2472 55.8488 16.9472 56.5026 16.8165 57.6795C16.6857 58.8565 14.9857 82.2642 14.9857 82.2642L15.5088 84.8796L10.5395 85.0104L10.4088 68.1411L6.878 85.0104H1.90875L5.43953 55.3257L15.2472 55.8488Z" fill="#2F2E41"/>
<path d="M14.8549 84.3564L16.0318 85.5334C16.0318 85.5334 18.778 86.0565 18.1242 86.9719C17.4703 87.8873 10.6703 86.7103 10.6703 86.7103L10.8011 84.618L14.8549 84.3564Z" fill="#2F2E41"/>
<path d="M6.35492 84.3564L7.53184 85.5334C7.53184 85.5334 10.278 86.0565 9.62416 86.9719C8.97031 87.8873 2.17029 86.7103 2.17029 86.7103L2.30106 84.618L6.35492 84.3564Z" fill="#2F2E41"/>
<path d="M11.0626 35.9717C12.7959 35.9717 14.2011 34.5666 14.2011 32.8333C14.2011 31.1 12.7959 29.6948 11.0626 29.6948C9.32927 29.6948 7.92413 31.1 7.92413 32.8333C7.92413 34.5666 9.32927 35.9717 11.0626 35.9717Z" fill="#A0616A"/>
<path d="M13.0242 34.6641L12.7626 40.0255L8.70868 37.6717L9.23182 34.6641H13.0242Z" fill="#A0616A"/>
<path d="M8.57794 36.364L12.3703 39.1102L13.0242 37.1486L14.2011 40.2871L13.5472 45.9102L8.57794 36.364Z" fill="#325CAE"/>
<path d="M8.9845 35.9766L12.7626 41.7257L12.9141 36.9191L13.3794 37.2858C13.6355 37.4876 13.8425 37.7449 13.9848 38.0383C14.1271 38.3317 14.2011 38.6535 14.2011 38.9795L16.0318 40.6795L15.378 47.218L15.2472 54.9334C15.2472 54.9334 16.0318 55.5873 15.7703 55.9796C15.5088 56.3719 14.4626 57.2873 13.2857 57.2873C12.1087 57.2873 4.78564 56.3719 4.78564 55.8488C4.78564 55.3257 5.04718 48.5257 5.04718 48.5257V39.3718L8.18566 37.018L8.9845 35.9766Z" fill="#575A89"/>
<path d="M4.52417 57.6796L6.22421 60.1642L6.87796 57.2873L6.09336 56.7642L4.52417 57.6796Z" fill="#A0616A"/>
<path opacity="0.2" d="M12.7707 61.4265L10.2567 68.2361L10.5021 68.3267L13.0161 61.5171L12.7707 61.4265Z" fill="black"/>
<path d="M9.16641 29.7603C9.16641 29.7603 9.55872 27.7987 11.7818 28.191L11.5203 28.3218C11.5203 28.3218 13.6126 28.0603 13.351 29.2372C13.351 29.2372 15.051 30.2833 14.6587 31.4603C14.4281 32.1424 14.2531 32.8421 14.1357 33.5526L13.7433 33.1603C13.7433 33.1603 13.351 30.5449 10.9972 30.8064C9.23179 31.0026 8.51256 31.8362 8.32867 32.4369C8.244 32.7194 8.13593 32.9943 8.00559 33.2588L7.85871 33.291C7.85871 33.291 7.0741 30.4141 9.16641 29.7603Z" fill="#2F2E41"/>
<path d="M6.48567 39.241L5.29523 39.1858L5.0472 39.3718C4.76252 39.6563 4.50021 39.9624 4.26259 40.2872C4.00105 40.6795 0.60104 50.2257 0.60104 50.2257C0.537946 50.8055 0.62813 51.3917 0.86258 51.9257C1.25489 52.8411 4.39336 58.3334 4.39336 58.3334L6.74721 56.895L3.60874 50.4872L5.83182 47.3488L6.48567 39.241Z" fill="#575A89"/>
<path d="M76.0775 20.0273H75.6144V7.34196C75.6144 6.3778 75.4245 5.42308 75.0556 4.53231C74.6866 3.64154 74.1458 2.83217 73.464 2.1504C72.7823 1.46864 71.9729 0.927835 71.0821 0.558868C70.1913 0.189901 69.2366 -2.76884e-06 68.2725 0H41.3968C40.4326 -2.93172e-06 39.4779 0.189901 38.5871 0.558868C37.6964 0.927835 36.887 1.46864 36.2052 2.1504C35.5235 2.83217 34.9827 3.64154 34.6137 4.53231C34.2447 5.42308 34.0548 6.3778 34.0548 7.34196V76.9349C34.0548 77.8991 34.2447 78.8538 34.6137 79.7446C34.9827 80.6354 35.5235 81.4447 36.2052 82.1265C36.887 82.8083 37.6964 83.3491 38.5871 83.718C39.4779 84.087 40.4326 84.2769 41.3968 84.2769H68.2725C69.2366 84.2769 70.1913 84.087 71.0821 83.718C71.9729 83.3491 72.7823 82.8083 73.464 82.1265C74.1458 81.4447 74.6866 80.6354 75.0556 79.7446C75.4245 78.8538 75.6144 77.8991 75.6144 76.9349V29.057H76.0775V20.0273Z" fill="#3F3D56"/>
<path d="M74.1176 6.85025V77.4266C74.1173 78.9031 73.5307 80.3191 72.4866 81.3632C71.4426 82.4072 70.0266 82.9939 68.5501 82.9942H41.1233C39.6465 82.9944 38.23 82.4079 37.1855 81.3638C36.1409 80.3197 35.5539 78.9035 35.5535 77.4266V6.85025C35.5539 5.37338 36.1409 3.95715 37.1855 2.91306C38.23 1.86897 39.6465 1.28253 41.1233 1.28271H44.4504C44.287 1.68447 44.2248 2.1202 44.2693 2.55161C44.3138 2.98301 44.4636 3.39689 44.7055 3.75687C44.9473 4.11684 45.274 4.41188 45.6566 4.61606C46.0392 4.82024 46.4661 4.92731 46.8998 4.92786H62.5368C62.9705 4.92732 63.3974 4.82025 63.78 4.61607C64.1626 4.41189 64.4893 4.11685 64.7312 3.75687C64.9731 3.3969 65.1228 2.98302 65.1673 2.55161C65.2118 2.1202 65.1496 1.68447 64.9862 1.28271H68.5501C70.0266 1.28301 71.4426 1.86969 72.4866 2.91374C73.5307 3.95779 74.1173 5.37374 74.1176 6.85025Z" fill="#E6E6E6"/>
<path d="M68.6704 43.6035H41.0008V71.2731H68.6704V43.6035Z" fill="white"/>
<path d="M62.7175 31.1277H47.1102V32.3008H62.7175V31.1277Z" fill="white"/>
<path d="M64.6638 34.1758H45.0219V35.3489H64.6638V34.1758Z" fill="white"/>
<path d="M59.7447 46.2747H48.9739V47.0842H59.7447V46.2747Z" fill="#E6E6E6"/>
<path d="M65.6064 48.6511H48.9739V49.4607H65.6064V48.6511Z" fill="#325CAE"/>
<path d="M62.7019 50.9146H49.1469V51.7241H62.7019V50.9146Z" fill="#E6E6E6"/>
<path d="M56.8871 53.3979H48.9739V54.2075H56.8871V53.3979Z" fill="#E6E6E6"/>
<path d="M60.917 55.824H48.9739V56.6336H60.917V55.824Z" fill="#325CAE"/>
<path d="M45.3837 46.02H44.0648V47.3389H45.3837V46.02Z" fill="#E6E6E6"/>
<path d="M45.3837 48.3965H44.0648V49.7154H45.3837V48.3965Z" fill="#325CAE"/>
<path d="M45.3837 50.6599H44.0648V51.9788H45.3837V50.6599Z" fill="#E6E6E6"/>
<path d="M45.3837 53.1433H44.0648V54.4622H45.3837V53.1433Z" fill="#E6E6E6"/>
<path d="M45.3837 55.5693H44.0648V56.8882H45.3837V55.5693Z" fill="#325CAE"/>
<path d="M59.7447 58.2649H48.9739V59.0745H59.7447V58.2649Z" fill="#E6E6E6"/>
<path d="M65.6064 60.6414H48.9739V61.4509H65.6064V60.6414Z" fill="#325CAE"/>
<path d="M62.7019 62.9048H49.1469V63.7144H62.7019V62.9048Z" fill="#E6E6E6"/>
<path d="M56.8871 65.3882H48.9739V66.1977H56.8871V65.3882Z" fill="#E6E6E6"/>
<path d="M60.917 67.8142H48.9739V68.6238H60.917V67.8142Z" fill="#E6E6E6"/>
<path d="M45.3837 58.0103H44.0648V59.3291H45.3837V58.0103Z" fill="#E6E6E6"/>
<path d="M45.3837 60.3867H44.0648V61.7056H45.3837V60.3867Z" fill="#325CAE"/>
<path d="M45.3837 62.6501H44.0648V63.969H45.3837V62.6501Z" fill="#E6E6E6"/>
<path d="M45.3837 65.1335H44.0648V66.4524H45.3837V65.1335Z" fill="#E6E6E6"/>
<path d="M45.3837 67.5593H44.0648V68.8782H45.3837V67.5593Z" fill="#E6E6E6"/>
<path d="M54.8356 27.5997C59.8178 27.5997 63.8568 23.5608 63.8568 18.5785C63.8568 13.5963 59.8178 9.55737 54.8356 9.55737C49.8533 9.55737 45.8144 13.5963 45.8144 18.5785C45.8144 23.5608 49.8533 27.5997 54.8356 27.5997Z" fill="white"/>
<path d="M54.7611 14.1545C53.8815 14.1545 53.0217 14.4154 52.2904 14.904C51.5591 15.3927 50.9891 16.0872 50.6525 16.8998C50.3159 17.7124 50.2278 18.6066 50.3994 19.4692C50.571 20.3319 50.9946 21.1243 51.6165 21.7462C52.2384 22.3682 53.0308 22.7917 53.8935 22.9633C54.7562 23.1349 55.6503 23.0468 56.4629 22.7103C57.2755 22.3737 57.9701 21.8037 58.4587 21.0723C58.9474 20.341 59.2082 19.4812 59.2082 18.6017C59.2048 17.4233 58.7351 16.2941 57.9019 15.4609C57.0686 14.6276 55.9395 14.158 54.7611 14.1545ZM54.7611 15.4887C55.025 15.4887 55.2829 15.5669 55.5023 15.7135C55.7217 15.8601 55.8927 16.0685 55.9937 16.3123C56.0946 16.556 56.1211 16.8243 56.0696 17.0831C56.0181 17.3419 55.891 17.5796 55.7045 17.7662C55.5179 17.9528 55.2802 18.0798 55.0214 18.1313C54.7626 18.1828 54.4943 18.1564 54.2505 18.0554C54.0068 17.9544 53.7984 17.7834 53.6518 17.564C53.5052 17.3446 53.427 17.0867 53.427 16.8228C53.4281 16.4693 53.5691 16.1307 53.819 15.8807C54.069 15.6308 54.4076 15.4899 54.7611 15.4887V15.4887ZM54.7611 21.9113C54.2341 21.9089 53.7156 21.778 53.2506 21.5298C52.7856 21.2817 52.3882 20.9239 52.0928 20.4874C52.1142 19.598 53.8717 19.1084 54.7611 19.1084C55.6505 19.1084 57.408 19.598 57.4294 20.4874C57.1336 20.9235 56.7361 21.2811 56.2712 21.5292C55.8063 21.7773 55.288 21.9085 54.7611 21.9113Z" fill="#325CAE"/>
<path d="M89.9609 87.2823C95.5054 87.2823 100 86.361 100 85.2245C100 84.0881 95.5054 83.1667 89.9609 83.1667C84.4165 83.1667 79.9218 84.0881 79.9218 85.2245C79.9218 86.361 84.4165 87.2823 89.9609 87.2823Z" fill="#E6E6E6"/>
<path d="M79.3206 54.7054L78.0022 54.4767C78.0022 54.4767 75.3075 53.2332 75.1442 54.175C74.9808 55.1168 77.5524 55.9509 77.5524 55.9509L80.3201 55.6548L79.3206 54.7054Z" fill="#FFB8B8"/>
<path d="M86.9893 45.1702L85.1424 53.5808L78.9766 54.4516L78.7402 56.9329L86.6915 56.954L90.668 49.6887L86.9893 45.1702Z" fill="#575A89"/>
<path opacity="0.2" d="M86.9893 45.1702L85.1424 53.5808L78.9766 54.4516L78.7402 56.9329L86.6915 56.954L90.668 49.6887L86.9893 45.1702Z" fill="black"/>
<path d="M77.604 47.6096L76.6631 46.658C76.6631 46.658 75.1907 44.0814 74.511 44.7534C73.8313 45.4255 75.4413 47.5974 75.4413 47.5974L77.8668 48.9628L77.604 47.6096Z" fill="#FFB8B8"/>
<path d="M90.5662 42.5108L91.7245 42.2284C92.1665 42.229 92.6032 42.1313 93.0028 41.9423C93.4024 41.7534 93.755 41.478 94.0351 41.1361C94.3152 40.7942 94.5158 40.3942 94.6224 39.9653C94.729 39.5363 94.7388 39.089 94.6513 38.6557C94.6526 37.6219 94.2432 36.63 93.5131 35.8981C92.783 35.1661 91.7921 34.7542 90.7583 34.7529H90.7583C89.7246 34.7516 88.7326 35.1611 88.0007 35.8911C87.2688 36.6212 86.8569 37.6121 86.8556 38.6459C86.7058 39.1673 86.6955 39.7189 86.8258 40.2455C86.9561 40.7721 87.2225 41.2553 87.5982 41.6466C87.9739 42.0379 88.4458 42.3237 88.9667 42.4754C89.4875 42.6271 90.0391 42.6393 90.5662 42.5108Z" fill="#2F2E41"/>
<path d="M83.7534 61.8148L84.6962 72.1391L86.4039 82.2731L89.2714 82.2767L88.9016 72.3355L87.3875 60.29L83.7534 61.8148Z" fill="#2F2E41"/>
<path d="M86.7869 81.7L84.8738 82.8446C84.8738 82.8446 81.8146 83.2231 82.3869 84.1796C82.9592 85.1362 89.6508 84.5711 89.6513 84.1887C89.6518 83.8064 89.4632 81.7033 89.0809 81.7028L86.7869 81.7Z" fill="#2F2E41"/>
<path d="M92.2176 60.9229C92.2176 60.9229 92.1638 62.3989 90.8228 64.6913L91.0051 71.7647L97.8761 80.567L95.3882 82.6668L86.9889 73.0978L84.9005 61.6251L87.5801 58.9521L92.2176 60.9229Z" fill="#2F2E41"/>
<path d="M97.3026 80.5662C97.3026 80.5662 99.5961 80.9514 99.2126 81.9067C98.8291 82.8621 97.8677 87.2577 95.3833 86.6811C95.3833 86.6811 94.2363 86.6796 94.6196 85.9155C94.85 85.4558 95.1058 85.0094 95.3859 84.5783L95.389 82.0931L97.3026 80.5662Z" fill="#2F2E41"/>
<path d="M89.3248 42.705C90.9085 42.705 92.1923 41.4212 92.1923 39.8375C92.1923 38.2538 90.9085 36.97 89.3248 36.97C87.7411 36.97 86.4573 38.2538 86.4573 39.8375C86.4573 41.4212 87.7411 42.705 89.3248 42.705Z" fill="#FFB8B8"/>
<path d="M90.6605 41.7507L90.6564 45.0006L87.5978 44.9967L87.9841 41.7473L90.6605 41.7507Z" fill="#FFB8B8"/>
<path d="M92.546 62.2078L90.6484 61.8903C88.2276 61.4834 85.7485 61.5877 83.3705 62.1966L84.2288 53.6524L84.3404 52.5386L84.5797 50.1536C84.5797 50.1536 83.7525 47.0107 84.9667 45.9491C86.4488 44.653 87.7611 43.6211 87.7611 43.6211L90.6583 43.853C92.2781 47.0827 91.9271 51.1421 90.8344 55.5153L92.546 62.2078Z" fill="#575A89"/>
<path d="M89.3831 44.2961L82.9973 50.0728L77.4711 47.203L76.3109 48.623L81.1923 52.9241C81.5277 53.1645 81.9217 53.31 82.3329 53.3453C82.7441 53.3806 83.1572 53.3043 83.5287 53.1245L89.756 50.1109L89.3831 44.2961Z" fill="#575A89"/>
<path d="M94.86 37.7248C95.8818 37.7248 96.7101 36.8965 96.7101 35.8747C96.7101 34.853 95.8818 34.0247 94.86 34.0247C93.8382 34.0247 93.0099 34.853 93.0099 35.8747C93.0099 36.8965 93.8382 37.7248 94.86 37.7248Z" fill="#2F2E41"/>
<path d="M93.153 34.8803C93.1532 34.6066 93.2142 34.3364 93.3315 34.0891C93.4487 33.8419 93.6195 33.6237 93.8313 33.4505C94.0431 33.2772 94.2907 33.1531 94.5563 33.0871C94.8219 33.0211 95.0988 33.0149 95.3671 33.0689C95.1304 32.957 94.8726 32.8967 94.6109 32.8919C94.3491 32.8871 94.0893 32.938 93.8486 33.0411C93.608 33.1442 93.392 33.2973 93.2149 33.4902C93.0378 33.683 92.9037 33.9113 92.8215 34.1598C92.7392 34.4084 92.7107 34.6716 92.7378 34.932C92.7648 35.1924 92.8469 35.4441 92.9785 35.6704C93.1101 35.8968 93.2883 36.0926 93.5012 36.2449C93.7142 36.3972 93.957 36.5026 94.2138 36.554C93.8963 36.4045 93.628 36.1677 93.4402 35.8713C93.2523 35.5749 93.1527 35.2312 93.153 34.8803Z" fill="#2F2E41"/>
<path d="M91.5658 35.9295L89.0717 35.4702L87.1535 36.6724C86.682 36.968 86.305 37.3926 86.0675 37.8959C85.8299 38.3992 85.7417 38.96 85.8132 39.512L87.7343 39.025L88.1645 37.9464C88.4407 38.3977 88.8264 38.7721 89.2857 39.0349C90.3742 39.6597 90.6265 40.9879 90.7552 42.42L92.8595 41.2757L94.2003 39.1745L91.5658 35.9295Z" fill="#2F2E41"/>
<path opacity="0.2" d="M89.2097 48.375L84.2289 53.6523L84.3404 52.5386L89.2097 48.375Z" fill="black"/>
</g>
<defs>
<clipPath id="clip0">
<rect width="100" height="88.3986" fill="white"/>
</clipPath>
</defs>
</svg>
