<svg width="100" height="84" viewBox="0 0 100 84" fill="none" xmlns="http://www.w3.org/2000/svg">
<g clip-path="url(#clip0)">
<path d="M45.4646 0H0V50.7434H45.4646V0Z" fill="url(#paint0_linear)"/>
<path d="M44.7124 33.8794H0.751099V49.6382H44.7124V33.8794Z" fill="white"/>
<path d="M6.0631 37.6172H4.35956V45.6924H6.0631V37.6172Z" fill="#64FFDA"/>
<g opacity="0.7">
<path opacity="0.7" d="M9.42589 37.6172H7.72235V45.6924H9.42589V37.6172Z" fill="#64FFDA"/>
</g>
<g opacity="0.6">
<path opacity="0.6" d="M12.7898 37.6172H11.0863V45.6924H12.7898V37.6172Z" fill="#64FFDA"/>
</g>
<g opacity="0.5">
<path opacity="0.5" d="M16.1526 37.6172H14.4491V45.6924H16.1526V37.6172Z" fill="#64FFDA"/>
</g>
<g opacity="0.5">
<path opacity="0.5" d="M19.5155 37.6172H17.812V45.6924H19.5155V37.6172Z" fill="#64FFDA"/>
</g>
<g opacity="0.4">
<path opacity="0.4" d="M22.8783 37.6172H21.1748V45.6924H22.8783V37.6172Z" fill="#64FFDA"/>
</g>
<g opacity="0.3">
<path opacity="0.3" d="M26.2422 37.6172H24.5387V45.6924H26.2422V37.6172Z" fill="#64FFDA"/>
</g>
<path d="M38.4889 45.7134C40.7591 45.7134 42.5995 43.873 42.5995 41.6028C42.5995 39.3326 40.7591 37.4922 38.4889 37.4922C36.2187 37.4922 34.3783 39.3326 34.3783 41.6028C34.3783 43.873 36.2187 45.7134 38.4889 45.7134Z" fill="#325CAE"/>
<path d="M44.7124 17.5066H0.751099V33.2654H44.7124V17.5066Z" fill="white"/>
<path d="M6.0631 21.2444H4.35956V29.3196H6.0631V21.2444Z" fill="#64FFDA"/>
<g opacity="0.7">
<path opacity="0.7" d="M9.42589 21.2444H7.72235V29.3196H9.42589V21.2444Z" fill="#64FFDA"/>
</g>
<g opacity="0.6">
<path opacity="0.6" d="M12.7898 21.2444H11.0863V29.3196H12.7898V21.2444Z" fill="#64FFDA"/>
</g>
<g opacity="0.5">
<path opacity="0.5" d="M16.1526 21.2444H14.4491V29.3196H16.1526V21.2444Z" fill="#64FFDA"/>
</g>
<g opacity="0.5">
<path opacity="0.5" d="M19.5155 21.2444H17.812V29.3196H19.5155V21.2444Z" fill="#64FFDA"/>
</g>
<g opacity="0.4">
<path opacity="0.4" d="M22.8783 21.2444H21.1748V29.3196H22.8783V21.2444Z" fill="#64FFDA"/>
</g>
<g opacity="0.3">
<path opacity="0.3" d="M26.2422 21.2444H24.5387V29.3196H26.2422V21.2444Z" fill="#64FFDA"/>
</g>
<path d="M38.4889 29.3418C40.7591 29.3418 42.5995 27.5015 42.5995 25.2312C42.5995 22.961 40.7591 21.1206 38.4889 21.1206C36.2187 21.1206 34.3783 22.961 34.3783 25.2312C34.3783 27.5015 36.2187 29.3418 38.4889 29.3418Z" fill="#325CAE"/>
<path d="M44.7124 1.13379H0.751099V16.8926H44.7124V1.13379Z" fill="white"/>
<path d="M6.0631 4.8728H4.35956V12.948H6.0631V4.8728Z" fill="#64FFDA"/>
<g opacity="0.7">
<path opacity="0.7" d="M9.42589 4.8728H7.72235V12.948H9.42589V4.8728Z" fill="#64FFDA"/>
</g>
<g opacity="0.6">
<path opacity="0.6" d="M12.7898 4.8728H11.0863V12.948H12.7898V4.8728Z" fill="#64FFDA"/>
</g>
<g opacity="0.5">
<path opacity="0.5" d="M16.1526 4.8728H14.4491V12.948H16.1526V4.8728Z" fill="#64FFDA"/>
</g>
<g opacity="0.5">
<path opacity="0.5" d="M19.5155 4.8728H17.812V12.948H19.5155V4.8728Z" fill="#64FFDA"/>
</g>
<g opacity="0.4">
<path opacity="0.4" d="M22.8783 4.8728H21.1748V12.948H22.8783V4.8728Z" fill="#64FFDA"/>
</g>
<g opacity="0.3">
<path opacity="0.3" d="M26.2422 4.8728H24.5387V12.948H26.2422V4.8728Z" fill="#64FFDA"/>
</g>
<path d="M38.4889 13.2898C40.9363 13.2898 42.9203 11.3058 42.9203 8.85842C42.9203 6.41101 40.9363 4.427 38.4889 4.427C36.0415 4.427 34.0575 6.41101 34.0575 8.85842C34.0575 11.3058 36.0415 13.2898 38.4889 13.2898Z" fill="url(#paint1_linear)"/>
<path d="M38.4889 29.772C40.9363 29.772 42.9203 27.788 42.9203 25.3406C42.9203 22.8932 40.9363 20.9092 38.4889 20.9092C36.0415 20.9092 34.0575 22.8932 34.0575 25.3406C34.0575 27.788 36.0415 29.772 38.4889 29.772Z" fill="url(#paint2_linear)"/>
<path d="M38.4889 46.1438C40.9363 46.1438 42.9203 44.1598 42.9203 41.7124C42.9203 39.265 40.9363 37.281 38.4889 37.281C36.0415 37.281 34.0575 39.265 34.0575 41.7124C34.0575 44.1598 36.0415 46.1438 38.4889 46.1438Z" fill="url(#paint3_linear)"/>
<path d="M38.4889 12.969C40.7591 12.969 42.5995 11.1287 42.5995 8.85842C42.5995 6.58819 40.7591 4.7478 38.4889 4.7478C36.2187 4.7478 34.3783 6.58819 34.3783 8.85842C34.3783 11.1287 36.2187 12.969 38.4889 12.969Z" fill="#325CAE"/>
<g opacity="0.7">
<path opacity="0.7" d="M50.9956 17.552H51.6593" stroke="#325CAE" stroke-width="4" stroke-linecap="round" stroke-linejoin="round"/>
<path opacity="0.7" d="M55.3518 17.552H73.8175" stroke="#325CAE" stroke-width="4" stroke-linecap="round" stroke-linejoin="round" stroke-dasharray="12.52 33.38"/>
<path opacity="0.7" d="M75.6637 17.552H76.3274V18.2157" stroke="#325CAE" stroke-width="4" stroke-linecap="round" stroke-linejoin="round"/>
<path opacity="0.7" d="M76.3275 21.7344V34.4877" stroke="#325CAE" stroke-width="4" stroke-linecap="round" stroke-linejoin="round" stroke-dasharray="11.93 31.8"/>
<path opacity="0.7" d="M76.3275 36.2468V36.9105" stroke="#325CAE" stroke-width="4" stroke-linecap="round" stroke-linejoin="round"/>
</g>
<g opacity="0.7">
<path opacity="0.7" d="M40.6615 67.6625L39.9978 67.6592" stroke="#325CAE" stroke-width="4" stroke-linecap="round" stroke-linejoin="round"/>
<path opacity="0.7" d="M36.3053 67.6415L17.8407 67.553" stroke="#325CAE" stroke-width="4" stroke-linecap="round" stroke-linejoin="round" stroke-dasharray="12.52 33.38"/>
<path opacity="0.7" d="M15.9934 67.5452L15.3297 67.5419L15.3341 66.8782" stroke="#325CAE" stroke-width="4" stroke-linecap="round" stroke-linejoin="round"/>
<path opacity="0.7" d="M15.3562 63.4725L15.4071 55.8098" stroke="#325CAE" stroke-width="4" stroke-linecap="round" stroke-linejoin="round" stroke-dasharray="11.55 30.79"/>
<path opacity="0.7" d="M15.4182 54.1061L15.4226 53.4424" stroke="#325CAE" stroke-width="4" stroke-linecap="round" stroke-linejoin="round"/>
</g>
<path d="M79.7799 69.7412C79.7799 69.7412 81.0985 78.6439 88.8805 81.6118H57.354C65.1361 78.6439 66.4547 69.7412 66.4547 69.7412H79.7799Z" fill="#E0E0E0"/>
<path d="M89.0199 81.6118H57.2002V83.4923H89.0199V81.6118Z" fill="url(#paint4_linear)"/>
<path d="M88.8805 81.6118H57.3584V83.0631H88.8805V81.6118Z" fill="#F5F5F5"/>
<path d="M98.8109 38.0952H47.6494C47.334 38.0952 47.0315 38.2205 46.8085 38.4435C46.5855 38.6665 46.4602 38.969 46.4602 39.2844V71.5178C46.4602 71.8951 46.6101 72.2569 46.8769 72.5237C47.1436 72.7905 47.5055 72.9403 47.8828 72.9403H98.5775C98.7643 72.9403 98.9493 72.9035 99.1219 72.8321C99.2944 72.7606 99.4513 72.6558 99.5834 72.5237C99.7155 72.3916 99.8203 72.2348 99.8917 72.0622C99.9632 71.8896 100 71.7046 100 71.5178V39.2844C100 38.969 99.8747 38.6665 99.6517 38.4435C99.4287 38.2205 99.1263 38.0952 98.8109 38.0952Z" fill="url(#paint5_linear)"/>
<path d="M48.2932 38.5818H97.9458C98.2612 38.5818 98.5637 38.7071 98.7867 38.9301C99.0097 39.1531 99.135 39.4556 99.135 39.7709V67.3672H47.104V39.7721C47.1039 39.6158 47.1345 39.461 47.1942 39.3166C47.2539 39.1722 47.3415 39.041 47.4519 38.9305C47.5623 38.8199 47.6935 38.7322 47.8378 38.6724C47.9822 38.6126 48.1369 38.5818 48.2932 38.5818Z" fill="white"/>
<path d="M97.7124 72.115H48.5266C48.1493 72.115 47.7874 71.9651 47.5207 71.6983C47.2539 71.4315 47.104 71.0697 47.104 70.6924V67.3672H99.135V70.6924C99.135 71.0697 98.9851 71.4315 98.7183 71.6983C98.4515 71.9651 98.0897 72.115 97.7124 72.115Z" fill="#F5F5F5"/>
<path d="M96.7611 40.9138H49.6759V64.1505H96.7611V40.9138Z" fill="#325CAE"/>
<path opacity="0.2" d="M51.5388 42.4558H96.791V40.906H49.7058V64.1428H51.5388V42.4558Z" fill="white"/>
</g>
<defs>
<linearGradient id="paint0_linear" x1="22.7323" y1="50.7434" x2="22.7323" y2="0" gradientUnits="userSpaceOnUse">
<stop stop-color="#808080" stop-opacity="0.25"/>
<stop offset="0.54" stop-color="#808080" stop-opacity="0.12"/>
<stop offset="1" stop-color="#808080" stop-opacity="0.1"/>
</linearGradient>
<linearGradient id="paint1_linear" x1="3117.79" y1="1069.21" x2="3117.79" y2="359.118" gradientUnits="userSpaceOnUse">
<stop stop-color="#808080" stop-opacity="0.25"/>
<stop offset="0.54" stop-color="#808080" stop-opacity="0.12"/>
<stop offset="1" stop-color="#808080" stop-opacity="0.1"/>
</linearGradient>
<linearGradient id="paint2_linear" x1="3117.79" y1="2406.26" x2="3117.79" y2="1696.16" gradientUnits="userSpaceOnUse">
<stop stop-color="#808080" stop-opacity="0.25"/>
<stop offset="0.54" stop-color="#808080" stop-opacity="0.12"/>
<stop offset="1" stop-color="#808080" stop-opacity="0.1"/>
</linearGradient>
<linearGradient id="paint3_linear" x1="3117.79" y1="3734.32" x2="3117.79" y2="3024.23" gradientUnits="userSpaceOnUse">
<stop stop-color="#808080" stop-opacity="0.25"/>
<stop offset="0.54" stop-color="#808080" stop-opacity="0.12"/>
<stop offset="1" stop-color="#808080" stop-opacity="0.1"/>
</linearGradient>
<linearGradient id="paint4_linear" x1="21087.2" y1="1500.98" x2="21087.2" y2="1469.01" gradientUnits="userSpaceOnUse">
<stop stop-color="#808080" stop-opacity="0.25"/>
<stop offset="0.54" stop-color="#808080" stop-opacity="0.12"/>
<stop offset="1" stop-color="#808080" stop-opacity="0.1"/>
</linearGradient>
<linearGradient id="paint5_linear" x1="43413.7" y1="25544.7" x2="43413.7" y2="14568.5" gradientUnits="userSpaceOnUse">
<stop stop-color="#808080" stop-opacity="0.25"/>
<stop offset="0.54" stop-color="#808080" stop-opacity="0.12"/>
<stop offset="1" stop-color="#808080" stop-opacity="0.1"/>
</linearGradient>
<clipPath id="clip0">
<rect width="100" height="83.4923" fill="white"/>
</clipPath>
</defs>
</svg>
