<svg width="32" height="32" viewBox="0 0 32 32" fill="none" xmlns="http://www.w3.org/2000/svg">
<path d="M22.7348 13.6915C22.8414 13.599 23 13.6855 23 13.8317V19.9318C23 20.7223 22.4121 21.3636 21.6875 21.3636H10.3125C9.58789 21.3636 9 20.7223 9 19.9318V13.8347C9 13.6855 9.15586 13.602 9.26523 13.6945C9.87773 14.2135 10.6898 14.8727 13.4789 17.0831C14.0559 17.5425 15.0293 18.5089 16 18.503C16.9762 18.5119 17.9688 17.5246 18.5238 17.0831C21.3129 14.8727 22.1223 14.2105 22.7348 13.6915ZM16 17.5455C16.6344 17.5574 17.5477 16.6744 18.007 16.3105C21.6355 13.4379 21.9117 13.1874 22.7484 12.4714C22.907 12.3372 23 12.1284 23 11.9077V11.3409C23 10.5504 22.4121 9.90909 21.6875 9.90909H10.3125C9.58789 9.90909 9 10.5504 9 11.3409V11.9077C9 12.1284 9.09297 12.3342 9.25156 12.4714C10.0883 13.1844 10.3645 13.4379 13.993 16.3105C14.4523 16.6744 15.3656 17.5574 16 17.5455Z" fill="#F7FAFC"/>
<circle cx="16" cy="16" r="15.5" stroke="#F7FAFC"/>
</svg>
