<svg width="32" height="32" viewBox="0 0 32 32" fill="none" xmlns="http://www.w3.org/2000/svg">
<circle cx="16" cy="16" r="15.5" stroke="#F7FAFC"/>
<path d="M14.4279 17.805C14.4279 18.4284 14.11 19.4486 13.3575 19.4486C12.605 19.4486 12.2871 18.4284 12.2871 17.805C12.2871 17.1815 12.605 16.1614 13.3575 16.1614C14.11 16.1614 14.4279 17.1815 14.4279 17.805ZM23 16.2986C23 17.2501 22.9067 18.2584 22.4896 19.1324C21.3842 21.4173 18.345 21.3636 16.1692 21.3636C13.9583 21.3636 10.7383 21.4442 9.58917 19.1324C9.16333 18.2673 9 17.2501 9 16.2986C9 15.0487 9.40542 13.8675 10.2104 12.9099C10.0588 12.4386 9.98583 11.9435 9.98583 11.4543C9.98583 10.8129 10.1288 10.4908 10.4117 9.90909C11.7329 9.90909 12.5787 10.1776 13.585 10.983C14.4308 10.7771 15.3 10.6847 16.1721 10.6847C16.9596 10.6847 17.7529 10.7712 18.5171 10.9591C19.5087 10.1626 20.3546 9.90909 21.6613 9.90909C21.9471 10.4908 22.0871 10.8129 22.0871 11.4543C22.0871 11.9435 22.0113 12.4297 21.8625 12.892C22.6646 13.8585 23 15.0487 23 16.2986ZM21.1246 17.805C21.1246 16.4955 20.3458 15.3411 18.9808 15.3411C18.4296 15.3411 17.9017 15.4425 17.3475 15.52C16.9129 15.5886 16.4783 15.6155 16.0321 15.6155C15.5888 15.6155 15.1542 15.5886 14.7167 15.52C14.1712 15.4425 13.6375 15.3411 13.0833 15.3411C11.7183 15.3411 10.9396 16.4955 10.9396 17.805C10.9396 20.424 13.2846 20.8267 15.3263 20.8267H16.7321C18.7825 20.8267 21.1246 20.427 21.1246 17.805ZM18.7154 16.1614C17.9629 16.1614 17.645 17.1815 17.645 17.805C17.645 18.4284 17.9629 19.4486 18.7154 19.4486C19.4679 19.4486 19.7858 18.4284 19.7858 17.805C19.7858 17.1815 19.4679 16.1614 18.7154 16.1614Z" fill="#F7FAFC"/>
</svg>
