<svg width="32" height="32" viewBox="0 0 32 32" fill="none" xmlns="http://www.w3.org/2000/svg">
<circle cx="16" cy="16" r="15.5" stroke="#555555"/>
<path d="M14.4279 17.8051C14.4279 18.4285 14.11 19.4487 13.3575 19.4487C12.605 19.4487 12.2871 18.4285 12.2871 17.8051C12.2871 17.1816 12.605 16.1615 13.3575 16.1615C14.11 16.1615 14.4279 17.1816 14.4279 17.8051V17.8051ZM23 16.2987C23 17.2502 22.9067 18.2585 22.4896 19.1325C21.3842 21.4174 18.345 21.3637 16.1692 21.3637C13.9583 21.3637 10.7383 21.4443 9.58917 19.1325C9.16333 18.2674 9 17.2502 9 16.2987C9 15.0488 9.40542 13.8676 10.2104 12.91C10.0588 12.4387 9.98583 11.9436 9.98583 11.4544C9.98583 10.813 10.1288 10.4909 10.4117 9.90918C11.7329 9.90918 12.5787 10.1776 13.585 10.983C14.4308 10.7772 15.3 10.6847 16.1721 10.6847C16.9596 10.6847 17.7529 10.7713 18.5171 10.9592C19.5087 10.1627 20.3546 9.90918 21.6613 9.90918C21.9471 10.4909 22.0871 10.813 22.0871 11.4544C22.0871 11.9436 22.0113 12.4298 21.8625 12.8921C22.6646 13.8586 23 15.0488 23 16.2987V16.2987ZM21.1246 17.8051C21.1246 16.4955 20.3458 15.3411 18.9808 15.3411C18.4296 15.3411 17.9017 15.4426 17.3475 15.5201C16.9129 15.5887 16.4783 15.6156 16.0321 15.6156C15.5888 15.6156 15.1542 15.5887 14.7167 15.5201C14.1712 15.4426 13.6375 15.3411 13.0833 15.3411C11.7183 15.3411 10.9396 16.4955 10.9396 17.8051C10.9396 20.4241 13.2846 20.8268 15.3262 20.8268H16.7321C18.7825 20.8268 21.1246 20.4271 21.1246 17.8051V17.8051ZM18.7154 16.1615C17.9629 16.1615 17.645 17.1816 17.645 17.8051C17.645 18.4285 17.9629 19.4487 18.7154 19.4487C19.4679 19.4487 19.7858 18.4285 19.7858 17.8051C19.7858 17.1816 19.4679 16.1615 18.7154 16.1615Z" fill="#555555"/>
</svg>
