<svg width="32" height="32" viewBox="0 0 32 32" fill="none" xmlns="http://www.w3.org/2000/svg">
<path d="M12.1337 21.3638H9.23125V12.4418H12.1337V21.3638ZM10.6809 11.2248C9.75281 11.2248 9 10.491 9 9.60502C9 9.17947 9.1771 8.77135 9.49234 8.47044C9.80757 8.16954 10.2351 8.00049 10.6809 8.00049C11.1267 8.00049 11.5543 8.16954 11.8695 8.47044C12.1848 8.77135 12.3619 9.17947 12.3619 9.60502C12.3619 10.491 11.6088 11.2248 10.6809 11.2248ZM22.9969 21.3638H20.1006V17.0206C20.1006 15.9856 20.0787 14.6581 18.5916 14.6581C17.0825 14.6581 16.8513 15.7827 16.8513 16.9461V21.3638H13.9519V12.4418H16.7356V13.6589H16.7762C17.1637 12.9579 18.1103 12.2181 19.5225 12.2181C22.46 12.2181 23 14.0645 23 16.4628V21.3638H22.9969Z" fill="#555555"/>
<circle cx="16" cy="16" r="15.5" stroke="#555555"/>
</svg>
