<svg width="36" height="36" viewBox="0 0 36 36" fill="none" xmlns="http://www.w3.org/2000/svg">
<path d="M6.72757 23.902C7.22801 23.902 7.63369 23.4964 7.63369 22.9959C7.63369 22.4955 7.22801 22.0898 6.72757 22.0898C6.22714 22.0898 5.82146 22.4955 5.82146 22.9959C5.82146 23.4964 6.22714 23.902 6.72757 23.902Z" fill="#FF728B"/>
<path d="M7.8539 26.0569C8.35434 26.0569 8.76002 25.6512 8.76002 25.1508C8.76002 24.6504 8.35434 24.2447 7.8539 24.2447C7.35347 24.2447 6.94778 24.6504 6.94778 25.1508C6.94778 25.6512 7.35347 26.0569 7.8539 26.0569Z" fill="#FF728B"/>
<path d="M9.66636 27.6247C10.1668 27.6247 10.5725 27.219 10.5725 26.7186C10.5725 26.2182 10.1668 25.8125 9.66636 25.8125C9.16592 25.8125 8.76024 26.2182 8.76024 26.7186C8.76024 27.219 9.16592 27.6247 9.66636 27.6247Z" fill="#FF728B"/>
<path d="M11.9197 28.5306C12.4201 28.5306 12.8258 28.1249 12.8258 27.6245C12.8258 27.1241 12.4201 26.7184 11.9197 26.7184C11.4192 26.7184 11.0135 27.1241 11.0135 27.6245C11.0135 28.1249 11.4192 28.5306 11.9197 28.5306Z" fill="#FF728B"/>
<path d="M29.2584 23.902C29.7589 23.902 30.1646 23.4964 30.1646 22.9959C30.1646 22.4955 29.7589 22.0898 29.2584 22.0898C28.758 22.0898 28.3523 22.4955 28.3523 22.9959C28.3523 23.4964 28.758 23.902 29.2584 23.902Z" fill="#FF728B"/>
<path d="M28.1314 26.0569C28.6318 26.0569 29.0375 25.6512 29.0375 25.1508C29.0375 24.6504 28.6318 24.2447 28.1314 24.2447C27.631 24.2447 27.2253 24.6504 27.2253 25.1508C27.2253 25.6512 27.631 26.0569 28.1314 26.0569Z" fill="#FF728B"/>
<path d="M26.3197 27.6247C26.8201 27.6247 27.2258 27.219 27.2258 26.7186C27.2258 26.2182 26.8201 25.8125 26.3197 25.8125C25.8192 25.8125 25.4135 26.2182 25.4135 26.7186C25.4135 27.219 25.8192 27.6247 26.3197 27.6247Z" fill="#FF728B"/>
<path d="M24.0663 28.5306C24.5668 28.5306 24.9725 28.1249 24.9725 27.6245C24.9725 27.1241 24.5668 26.7184 24.0663 26.7184C23.5659 26.7184 23.1602 27.1241 23.1602 27.6245C23.1602 28.1249 23.5659 28.5306 24.0663 28.5306Z" fill="#FF728B"/>
<path d="M3.3274 28.8979C3.82783 28.8979 4.23351 28.4923 4.23351 27.9918C4.23351 27.4914 3.82783 27.0857 3.3274 27.0857C2.82696 27.0857 2.42128 27.4914 2.42128 27.9918C2.42128 28.4923 2.82696 28.8979 3.3274 28.8979Z" fill="#FFA5B5"/>
<path d="M4.45373 31.0528C4.95417 31.0528 5.35985 30.6471 5.35985 30.1467C5.35985 29.6463 4.95417 29.2406 4.45373 29.2406C3.9533 29.2406 3.54762 29.6463 3.54762 30.1467C3.54762 30.6471 3.9533 31.0528 4.45373 31.0528Z" fill="#FFA5B5"/>
<path d="M6.26618 32.6206C6.76661 32.6206 7.1723 32.215 7.1723 31.7145C7.1723 31.2141 6.76661 30.8084 6.26618 30.8084C5.76574 30.8084 5.36006 31.2141 5.36006 31.7145C5.36006 32.215 5.76574 32.6206 6.26618 32.6206Z" fill="#FFA5B5"/>
<path d="M8.51879 33.5266C9.01922 33.5266 9.4249 33.1209 9.4249 32.6204C9.4249 32.12 9.01922 31.7143 8.51879 31.7143C8.01835 31.7143 7.61267 32.12 7.61267 32.6204C7.61267 33.1209 8.01835 33.5266 8.51879 33.5266Z" fill="#FFA5B5"/>
<path d="M11.0659 33.4531C11.5664 33.4531 11.972 33.0474 11.972 32.5469C11.972 32.0465 11.5664 31.6408 11.0659 31.6408C10.5655 31.6408 10.1598 32.0465 10.1598 32.5469C10.1598 33.0474 10.5655 33.4531 11.0659 33.4531Z" fill="#FFA5B5"/>
<path d="M13.3604 32.4737C13.8609 32.4737 14.2665 32.068 14.2665 31.5676C14.2665 31.0671 13.8609 30.6614 13.3604 30.6614C12.86 30.6614 12.4543 31.0671 12.4543 31.5676C12.4543 32.068 12.86 32.4737 13.3604 32.4737Z" fill="#FFA5B5"/>
<path d="M32.6726 28.8979C33.173 28.8979 33.5787 28.4923 33.5787 27.9918C33.5787 27.4914 33.173 27.0857 32.6726 27.0857C32.1722 27.0857 31.7665 27.4914 31.7665 27.9918C31.7665 28.4923 32.1722 28.8979 32.6726 28.8979Z" fill="#FFA5B5"/>
<path d="M31.5463 31.0528C32.0467 31.0528 32.4524 30.6471 32.4524 30.1467C32.4524 29.6463 32.0467 29.2406 31.5463 29.2406C31.0458 29.2406 30.6401 29.6463 30.6401 30.1467C30.6401 30.6471 31.0458 31.0528 31.5463 31.0528Z" fill="#FFA5B5"/>
<path d="M29.7338 32.6206C30.2342 32.6206 30.6399 32.215 30.6399 31.7145C30.6399 31.2141 30.2342 30.8084 29.7338 30.8084C29.2334 30.8084 28.8277 31.2141 28.8277 31.7145C28.8277 32.215 29.2334 32.6206 29.7338 32.6206Z" fill="#FFA5B5"/>
<path d="M27.4812 33.5266C27.9817 33.5266 28.3873 33.1209 28.3873 32.6204C28.3873 32.12 27.9817 31.7143 27.4812 31.7143C26.9808 31.7143 26.5751 32.12 26.5751 32.6204C26.5751 33.1209 26.9808 33.5266 27.4812 33.5266Z" fill="#FFA5B5"/>
<path d="M24.934 33.4531C25.4344 33.4531 25.8401 33.0474 25.8401 32.5469C25.8401 32.0465 25.4344 31.6408 24.934 31.6408C24.4336 31.6408 24.0279 32.0465 24.0279 32.5469C24.0279 33.0474 24.4336 33.4531 24.934 33.4531Z" fill="#FFA5B5"/>
<path d="M22.6396 32.4737C23.14 32.4737 23.5457 32.068 23.5457 31.5676C23.5457 31.0671 23.14 30.6614 22.6396 30.6614C22.1391 30.6614 21.7334 31.0671 21.7334 31.5676C21.7334 32.068 22.1391 32.4737 22.6396 32.4737Z" fill="#FFA5B5"/>
<path d="M27.7917 19.3546C26.8292 19.3546 26.0489 20.1348 26.0489 21.0973C26.0489 22.8374 24.6332 24.2532 22.893 24.2532C21.1529 24.2532 19.7371 22.8375 19.7371 21.0973V12.0729C19.7371 11.1104 18.9569 10.3302 17.9944 10.3302C17.9869 10.3302 17.9796 10.3306 17.9721 10.3307C17.9647 10.3307 17.9575 10.3302 17.9499 10.3302C16.9874 10.3302 16.2072 11.1104 16.2072 12.0729V21.0973C16.2072 22.8374 14.7914 24.2532 13.0513 24.2532C11.3111 24.2532 9.89535 22.8374 9.89535 21.0973C9.89535 20.1348 9.11509 19.3545 8.15259 19.3545C7.19008 19.3545 6.40982 20.1348 6.40982 21.0973C6.40982 24.7593 9.38917 27.7387 13.0513 27.7387C15.0004 27.7387 16.756 26.8946 17.9721 25.5528C19.1881 26.8946 20.9438 27.7387 22.8929 27.7387C26.555 27.7387 29.5343 24.7593 29.5343 21.0973C29.5345 20.1348 28.7541 19.3546 27.7917 19.3546Z" fill="#A258CD"/>
<path d="M25.1913 27.3286C24.8527 27.0199 24.6398 26.5755 24.6398 26.0822V23.7241C24.1393 24.058 23.5387 24.2532 22.8931 24.2532C21.153 24.2532 19.7372 22.8374 19.7372 21.0973V12.0729C19.7372 11.1104 18.957 10.3302 17.9945 10.3302C17.987 10.3302 17.9797 10.3306 17.9722 10.3307C17.9648 10.3307 17.9575 10.3302 17.95 10.3302C16.9875 10.3302 16.2073 11.1104 16.2073 12.0729V21.0973C16.2073 22.8374 14.7915 24.2532 13.0513 24.2532C12.4059 24.2532 11.8051 24.0581 11.3047 23.7241V26.0823C11.3047 26.5755 11.0919 27.0199 10.7533 27.3286C11.4697 27.5937 12.2439 27.7388 13.0514 27.7388C15.0005 27.7388 16.7562 26.8947 17.9722 25.5529C19.1882 26.8947 20.9439 27.7388 22.8931 27.7388C23.7006 27.7386 24.4747 27.5937 25.1913 27.3286Z" fill="#933EC5"/>
<path d="M31.2249 24.3395C30.2624 24.3395 29.4822 25.1198 29.4822 26.0823C29.4822 27.8224 28.0664 29.2382 26.3263 29.2382C24.5862 29.2382 23.1704 27.8224 23.1704 26.0823V19.4853C25.9462 17.6228 27.7931 14.3137 27.7931 10.5411C27.7931 4.71938 23.3961 0 17.9722 0C12.5483 0 8.15133 4.71938 8.15133 10.541C8.15133 14.3137 9.99823 17.6228 12.7741 19.4852V26.0821C12.7741 27.8223 11.3584 29.238 9.61812 29.238C7.87803 29.238 6.46222 27.8223 6.46222 26.0821C6.46222 25.1196 5.68196 24.3394 4.71945 24.3394C3.75694 24.3394 2.97668 25.1196 2.97668 26.0821C2.97668 29.7442 5.95604 32.7236 9.61812 32.7236C13.0675 32.7236 15.9107 30.0802 16.2294 26.7128V34.2572C16.2294 35.2197 17.0097 36 17.9722 36C18.9347 36 19.7149 35.2197 19.7149 34.2572V26.7124C20.0334 30.08 22.8767 32.7236 26.3262 32.7236C29.9883 32.7236 32.9676 29.7442 32.9676 26.0821C32.9677 25.1198 32.1875 24.3395 31.2249 24.3395Z" fill="#B87FD9"/>
<path d="M14.2767 18.8095L14.2774 18.8086C12.0051 16.878 10.5462 13.8928 10.5462 10.5407C10.5462 5.15377 14.3112 0.711281 19.1708 0.0776953C18.779 0.0267891 18.3804 0 17.9759 0C12.552 0 8.15498 4.71938 8.15498 10.541C8.15498 14.3137 10.0019 17.6228 12.7777 19.4852V26.0821C12.7777 27.3547 12.0203 28.4529 10.933 28.9517C10.8973 28.9702 10.8605 28.9877 10.8217 29.0036C11.1896 29.1542 11.5916 29.2378 12.013 29.2378C13.7531 29.2378 15.1689 27.8221 15.1689 26.0819V20.5163C15.1689 19.4877 14.2767 18.8095 14.2767 18.8095Z" fill="#A258CD"/>
<path d="M17.4212 7.93224C17.2757 7.93224 17.1339 7.87346 17.0318 7.77059C16.9289 7.6685 16.8701 7.5259 16.8701 7.3812C16.8701 7.2365 16.9289 7.0939 17.0318 6.99181C17.1339 6.88894 17.2756 6.83016 17.4212 6.83016C17.5666 6.83016 17.7085 6.88894 17.8106 6.99181C17.9134 7.0939 17.9722 7.2365 17.9722 7.3812C17.9722 7.5259 17.9134 7.6685 17.8106 7.77059C17.7085 7.87353 17.5667 7.93224 17.4212 7.93224Z" fill="#FFE477"/>
<path d="M19.0742 10.0506C18.9288 10.0506 18.7869 9.99183 18.6848 9.88897C18.582 9.78687 18.5232 9.64428 18.5232 9.49957C18.5232 9.35487 18.582 9.21228 18.6848 9.11018C18.7869 9.00732 18.9287 8.94854 19.0742 8.94854C19.2196 8.94854 19.3615 9.00732 19.4636 9.11018C19.5665 9.21228 19.6253 9.35487 19.6253 9.49957C19.6253 9.64428 19.5665 9.78687 19.4636 9.88897C19.3615 9.99183 19.2197 10.0506 19.0742 10.0506Z" fill="#FFE477"/>
<path d="M16.5625 23.7429C16.417 23.7429 16.2752 23.6841 16.1731 23.5813C16.0702 23.4792 16.0114 23.3366 16.0114 23.1919C16.0114 23.0471 16.0702 22.9046 16.1731 22.8025C16.2752 22.6996 16.4169 22.6408 16.5625 22.6408C16.7079 22.6408 16.8498 22.6996 16.9519 22.8025C17.0547 22.9046 17.1135 23.0471 17.1135 23.1919C17.1135 23.3366 17.0547 23.4792 16.9519 23.5813C16.8498 23.6841 16.7079 23.7429 16.5625 23.7429Z" fill="#A258CD"/>
<path d="M19.0742 22.6408C18.9288 22.6408 18.7869 22.5821 18.6848 22.4792C18.582 22.3771 18.5232 22.2346 18.5232 22.0898C18.5232 21.9451 18.582 21.8025 18.6848 21.7004C18.7869 21.5975 18.9287 21.5388 19.0742 21.5388C19.2196 21.5388 19.3615 21.5975 19.4636 21.7004C19.5665 21.8025 19.6253 21.945 19.6253 22.0898C19.6253 22.2345 19.5665 22.3771 19.4636 22.4792C19.3615 22.582 19.2197 22.6408 19.0742 22.6408Z" fill="#A258CD"/>
<path d="M21.7335 25.8122C21.5881 25.8122 21.4462 25.7534 21.3441 25.6506C21.2413 25.5485 21.1825 25.4059 21.1825 25.2612C21.1825 25.1165 21.2413 24.9739 21.3441 24.8718C21.4462 24.7689 21.588 24.7101 21.7335 24.7101C21.8789 24.7101 22.0208 24.7689 22.1229 24.8718C22.2258 24.9739 22.2846 25.1164 22.2846 25.2612C22.2846 25.4059 22.2258 25.5485 22.1229 25.6506C22.0208 25.7534 21.8789 25.8122 21.7335 25.8122Z" fill="#A258CD"/>
<path d="M17.972 26.6082C17.8265 26.6082 17.6847 26.5494 17.5826 26.4466C17.4798 26.3445 17.421 26.202 17.421 26.0572C17.421 25.9125 17.4798 25.7699 17.5826 25.6678C17.6847 25.5649 17.8265 25.5061 17.972 25.5061C18.1174 25.5061 18.2593 25.5649 18.3614 25.6678C18.4643 25.7699 18.5231 25.9124 18.5231 26.0572C18.5231 26.2019 18.4643 26.3445 18.3614 26.4466C18.2592 26.5494 18.1174 26.6082 17.972 26.6082Z" fill="#A258CD"/>
<path d="M20.8252 7.93224C20.6797 7.93224 20.5379 7.87346 20.4358 7.77059C20.333 7.6685 20.2742 7.5259 20.2742 7.3812C20.2742 7.2365 20.333 7.0939 20.4358 6.99181C20.5379 6.88894 20.6797 6.83016 20.8252 6.83016C20.9706 6.83016 21.1125 6.88894 21.2146 6.99181C21.3175 7.0939 21.3763 7.2365 21.3763 7.3812C21.3763 7.5259 21.3175 7.6685 21.2146 7.77059C21.1126 7.87353 20.9707 7.93224 20.8252 7.93224Z" fill="#FFE477"/>
<path d="M13.2333 16.7235C14.7677 16.7235 16.0116 15.4796 16.0116 13.9452C16.0116 12.4108 14.7677 11.167 13.2333 11.167C11.6989 11.167 10.455 12.4108 10.455 13.9452C10.455 15.4796 11.6989 16.7235 13.2333 16.7235Z" fill="#A258CD"/>
<path d="M10.455 13.9434C10.455 15.1121 11.177 16.1116 12.199 16.5219C12.2365 16.535 12.2737 16.5481 12.3104 16.561C11.5658 15.4169 11.0268 14.1073 10.7525 12.6931C10.5627 13.0691 10.455 13.4935 10.455 13.9434Z" fill="#933EC5"/>
<path d="M22.7109 16.5281C24.2453 16.5281 25.4891 15.2842 25.4891 13.7498C25.4891 12.2154 24.2453 10.9716 22.7109 10.9716C21.1765 10.9716 19.9326 12.2154 19.9326 13.7498C19.9326 15.2842 21.1765 16.5281 22.7109 16.5281Z" fill="#A258CD"/>
<path d="M12.4788 15.3154C13.6242 15.3154 14.5528 14.3868 14.5528 13.2414C14.5528 12.0959 13.6242 11.1674 12.4788 11.1674C11.3333 11.1674 10.4048 12.0959 10.4048 13.2414C10.4048 14.3868 11.3333 15.3154 12.4788 15.3154Z" fill="#FFE477"/>
<path d="M13.2135 13.7923H11.7441C11.4398 13.7923 11.193 13.5456 11.193 13.2413C11.193 12.9369 11.4398 12.6902 11.7441 12.6902H13.2135C13.5178 12.6902 13.7645 12.9369 13.7645 13.2413C13.7645 13.5456 13.5178 13.7923 13.2135 13.7923Z" fill="#3E3D42"/>
<path d="M23.4499 15.3154C24.5954 15.3154 25.5239 14.3868 25.5239 13.2414C25.5239 12.0959 24.5954 11.1674 23.4499 11.1674C22.3045 11.1674 21.3759 12.0959 21.3759 13.2414C21.3759 14.3868 22.3045 15.3154 23.4499 15.3154Z" fill="#FFE477"/>
<path d="M24.185 13.7923H22.7156C22.4113 13.7923 22.1645 13.5456 22.1645 13.2413C22.1645 12.9369 22.4113 12.6902 22.7156 12.6902H24.185C24.4893 12.6902 24.736 12.9369 24.736 13.2413C24.7359 13.5456 24.4893 13.7923 24.185 13.7923Z" fill="#3E3D42"/>
<path d="M22.4265 4.50239C21.1711 3.37556 19.5892 2.75505 17.9722 2.75505C17.6679 2.75505 17.4212 2.50833 17.4212 2.20401C17.4212 1.8997 17.6679 1.65298 17.9722 1.65298C19.8613 1.65298 21.7047 2.37361 23.1626 3.68219C23.3891 3.88547 23.4124 4.23801 23.2047 4.46034C22.8824 4.80508 22.5317 4.59682 22.4265 4.50239Z" fill="#A258CD"/>
<path d="M24.0691 6.61029C23.8966 6.28678 23.7008 5.97396 23.4873 5.68041C23.3083 5.43438 23.3626 5.08971 23.6087 4.91069C23.8547 4.73168 24.1995 4.7861 24.3784 5.03212C24.6219 5.36688 24.845 5.7233 25.0415 6.09173C25.1847 6.36026 25.0877 6.7031 24.8146 6.83726C24.4498 7.01634 24.1682 6.79619 24.0691 6.61029Z" fill="#A258CD"/>
<path d="M17.9476 30.6979C17.8021 30.6979 17.6603 30.6392 17.5582 30.5363C17.4553 30.4342 17.3965 30.2917 17.3965 30.1469C17.3965 30.0021 17.4553 29.8596 17.5582 29.7575C17.6603 29.6547 17.802 29.5959 17.9476 29.5959C18.093 29.5959 18.2348 29.6547 18.3369 29.7575C18.4398 29.8596 18.4986 30.0021 18.4986 30.1469C18.4986 30.2917 18.4398 30.4342 18.3369 30.5363C18.2348 30.6392 18.093 30.6979 17.9476 30.6979Z" fill="#A258CD"/>
</svg>
