<svg width="100" height="58" viewBox="0 0 100 58" fill="none" xmlns="http://www.w3.org/2000/svg">
<g clip-path="url(#clip0)">
<path d="M21.6672 51.0027C24.5394 51.0027 26.8678 48.6743 26.8678 45.8021C26.8678 42.9299 24.5394 40.6016 21.6672 40.6016C18.7951 40.6016 16.4667 42.9299 16.4667 45.8021C16.4667 48.6743 18.7951 51.0027 21.6672 51.0027Z" fill="#F2F2F2"/>
<path d="M22.5129 50.2418C25.3851 50.2418 27.7134 47.9134 27.7134 45.0412C27.7134 42.169 25.3851 39.8406 22.5129 39.8406C19.6407 39.8406 17.3123 42.169 17.3123 45.0412C17.3123 47.9134 19.6407 50.2418 22.5129 50.2418Z" fill="#325CAE"/>
<path d="M91.0461 39.2869H26.7011V39.4624H91.0461V39.2869Z" fill="#3F3D56"/>
<path d="M60.0256 1.63747H37.187V1.16675H26.8312V1.63747H3.89849C3.69562 1.63747 3.49473 1.67743 3.3073 1.75506C3.11987 1.8327 2.94957 1.94649 2.80611 2.08995C2.66266 2.2334 2.54887 2.4037 2.47123 2.59113C2.3936 2.77856 2.35364 2.97945 2.35364 3.18232V34.4553C2.35364 34.865 2.5164 35.2579 2.80611 35.5476C3.09583 35.8373 3.48877 36.0001 3.89849 36.0001H60.0256C60.4353 36.0001 60.8282 35.8373 61.1179 35.5476C61.4077 35.2579 61.5704 34.865 61.5704 34.4553V3.18232C61.5704 2.97945 61.5305 2.77856 61.4528 2.59113C61.3752 2.4037 61.2614 2.2334 61.1179 2.08995C60.9745 1.94649 60.8042 1.8327 60.6168 1.75506C60.4293 1.67743 60.2284 1.63747 60.0256 1.63747Z" fill="#3F3D56"/>
<path d="M59.4992 4.36743H4.4248V35.435H59.4992V4.36743Z" fill="#325CAE"/>
<path d="M31.9149 3.52011C32.2269 3.52011 32.4798 3.26721 32.4798 2.95525C32.4798 2.64328 32.2269 2.39038 31.9149 2.39038C31.6029 2.39038 31.35 2.64328 31.35 2.95525C31.35 3.26721 31.6029 3.52011 31.9149 3.52011Z" fill="#325CAE"/>
<path opacity="0.1" d="M43.7488 35.4353H4.4248V4.36768L43.7488 35.4353Z" fill="black"/>
<path d="M13.0423 33.1103C15.966 33.1103 18.3362 30.7401 18.3362 27.8164C18.3362 24.8926 15.966 22.5225 13.0423 22.5225C10.1185 22.5225 7.74835 24.8926 7.74835 27.8164C7.74835 30.7401 10.1185 33.1103 13.0423 33.1103Z" fill="#F2F2F2"/>
<path d="M49.9097 21.1226H44.7652V22.1975H49.9097V21.1226Z" fill="#3F3D56"/>
<path d="M56.1294 12.7529H38.5457V13.2136H56.1294V12.7529Z" fill="#3F3D56"/>
<path d="M56.1294 14.2119H38.5457V14.6726H56.1294V14.2119Z" fill="#3F3D56"/>
<path d="M56.1294 15.6707H38.5457V16.1314H56.1294V15.6707Z" fill="#3F3D56"/>
<path d="M56.1294 17.1296H38.5457V17.5904H56.1294V17.1296Z" fill="#3F3D56"/>
<path d="M56.1294 18.5886H38.5457V19.0493H56.1294V18.5886Z" fill="#3F3D56"/>
<path d="M56.1293 4.9978H53.9794V7.14776H56.1293V4.9978Z" fill="#F2F2F2"/>
<path d="M57.1275 8.14607H54.5168V5.5354H57.1275V8.14607ZM54.6304 8.03257H57.014V5.64891H54.6304V8.03257Z" fill="#3F3D56"/>
<path d="M63.1167 34.8703H57.7418V34.483C57.7418 34.4729 57.7398 34.463 57.736 34.4537C57.7321 34.4443 57.7264 34.4359 57.7193 34.4287C57.7122 34.4216 57.7037 34.416 57.6944 34.4121C57.6851 34.4082 57.6751 34.4062 57.665 34.4063H55.8222C55.8121 34.4062 55.8021 34.4082 55.7928 34.4121C55.7835 34.416 55.775 34.4216 55.7679 34.4287C55.7608 34.4359 55.7551 34.4443 55.7513 34.4537C55.7474 34.463 55.7454 34.4729 55.7454 34.483V34.8703H54.5936V34.483C54.5936 34.4729 54.5917 34.463 54.5878 34.4537C54.5839 34.4443 54.5783 34.4359 54.5712 34.4287C54.564 34.4216 54.5556 34.416 54.5462 34.4121C54.5369 34.4082 54.5269 34.4062 54.5169 34.4063H52.674C52.664 34.4062 52.654 34.4082 52.6446 34.4121C52.6353 34.416 52.6269 34.4216 52.6197 34.4287C52.6126 34.4359 52.607 34.4443 52.6031 34.4537C52.5992 34.463 52.5973 34.4729 52.5973 34.483V34.8703H51.4455V34.483C51.4455 34.4729 51.4435 34.463 51.4396 34.4537C51.4358 34.4443 51.4301 34.4359 51.423 34.4287C51.4159 34.4216 51.4074 34.416 51.3981 34.4121C51.3888 34.4082 51.3788 34.4062 51.3687 34.4063H49.5259C49.5158 34.4062 49.5058 34.4082 49.4965 34.4121C49.4872 34.416 49.4787 34.4216 49.4716 34.4287C49.4645 34.4359 49.4588 34.4443 49.4549 34.4537C49.4511 34.463 49.4491 34.4729 49.4491 34.483V34.8703H48.2973V34.483C48.2973 34.4729 48.2953 34.463 48.2915 34.4537C48.2876 34.4443 48.282 34.4359 48.2748 34.4287C48.2677 34.4216 48.2592 34.416 48.2499 34.4121C48.2406 34.4082 48.2306 34.4062 48.2206 34.4063H46.3777C46.3676 34.4062 46.3577 34.4082 46.3483 34.4121C46.339 34.416 46.3306 34.4216 46.3234 34.4287C46.3163 34.4359 46.3106 34.4443 46.3068 34.4537C46.3029 34.463 46.3009 34.4729 46.3009 34.483V34.8703H45.1492V34.483C45.1492 34.4729 45.1472 34.463 45.1433 34.4537C45.1395 34.4443 45.1338 34.4359 45.1267 34.4287C45.1196 34.4216 45.1111 34.416 45.1018 34.4121C45.0925 34.4082 45.0825 34.4062 45.0724 34.4063H43.2296C43.2195 34.4062 43.2095 34.4082 43.2002 34.4121C43.1909 34.416 43.1824 34.4216 43.1753 34.4287C43.1681 34.4359 43.1625 34.4443 43.1586 34.4537C43.1548 34.463 43.1528 34.4729 43.1528 34.483V34.8703H42.001V34.483C42.001 34.4729 41.999 34.463 41.9952 34.4537C41.9913 34.4443 41.9857 34.4359 41.9785 34.4287C41.9714 34.4216 41.9629 34.416 41.9536 34.4121C41.9443 34.4082 41.9343 34.4062 41.9242 34.4063H40.0814C40.0713 34.4062 40.0613 34.4082 40.052 34.4121C40.0427 34.416 40.0342 34.4216 40.0271 34.4287C40.02 34.4359 40.0143 34.4443 40.0105 34.4537C40.0066 34.463 40.0046 34.4729 40.0046 34.483V34.8703H38.8529V34.483C38.8529 34.4729 38.8509 34.463 38.847 34.4537C38.8432 34.4443 38.8375 34.4359 38.8304 34.4287C38.8232 34.4216 38.8148 34.416 38.8055 34.4121C38.7961 34.4082 38.7862 34.4062 38.7761 34.4063H24.3406C24.3305 34.4062 24.3206 34.4082 24.3112 34.4121C24.3019 34.416 24.2935 34.4216 24.2863 34.4287C24.2792 34.4359 24.2735 34.4443 24.2697 34.4537C24.2658 34.463 24.2638 34.4729 24.2638 34.483V34.8703H23.1121V34.483C23.1121 34.4729 23.1101 34.463 23.1062 34.4537C23.1024 34.4443 23.0967 34.4359 23.0896 34.4287C23.0825 34.4216 23.074 34.416 23.0647 34.4121C23.0554 34.4082 23.0454 34.4062 23.0353 34.4063H21.1925C21.1824 34.4062 21.1724 34.4082 21.1631 34.4121C21.1538 34.416 21.1453 34.4216 21.1382 34.4287C21.131 34.4359 21.1254 34.4443 21.1215 34.4537C21.1177 34.463 21.1157 34.4729 21.1157 34.483V34.8703H19.9639V34.483C19.9639 34.4729 19.9619 34.463 19.9581 34.4537C19.9542 34.4443 19.9486 34.4359 19.9414 34.4287C19.9343 34.4216 19.9258 34.416 19.9165 34.4121C19.9072 34.4082 19.8972 34.4062 19.8871 34.4063H18.0443C18.0342 34.4062 18.0242 34.4082 18.0149 34.4121C18.0056 34.416 17.9971 34.4216 17.99 34.4287C17.9829 34.4359 17.9772 34.4443 17.9734 34.4537C17.9695 34.463 17.9675 34.4729 17.9675 34.483V34.8703H16.8158V34.483C16.8158 34.4729 16.8138 34.463 16.8099 34.4537C16.8061 34.4443 16.8004 34.4359 16.7933 34.4287C16.7861 34.4216 16.7777 34.416 16.7684 34.4121C16.759 34.4082 16.7491 34.4062 16.739 34.4063H14.8962C14.8861 34.4062 14.8761 34.4082 14.8668 34.4121C14.8575 34.416 14.849 34.4216 14.8419 34.4287C14.8347 34.4359 14.8291 34.4443 14.8252 34.4537C14.8214 34.463 14.8194 34.4729 14.8194 34.483V34.8703H13.6676V34.483C13.6676 34.4729 13.6656 34.463 13.6618 34.4537C13.6579 34.4443 13.6523 34.4359 13.6451 34.4287C13.638 34.4216 13.6295 34.416 13.6202 34.4121C13.6109 34.4082 13.6009 34.4062 13.5908 34.4063H11.748C11.7379 34.4062 11.7279 34.4082 11.7186 34.4121C11.7093 34.416 11.7008 34.4216 11.6937 34.4287C11.6866 34.4359 11.6809 34.4443 11.6771 34.4537C11.6732 34.463 11.6712 34.4729 11.6712 34.483V34.8703H10.5195V34.483C10.5195 34.4729 10.5175 34.463 10.5136 34.4537C10.5097 34.4443 10.5041 34.4359 10.497 34.4287C10.4898 34.4216 10.4814 34.416 10.4721 34.4121C10.4627 34.4082 10.4528 34.4062 10.4427 34.4063H8.59984C8.58976 34.4062 8.57977 34.4082 8.57046 34.4121C8.56114 34.416 8.55268 34.4216 8.54555 34.4287C8.53842 34.4359 8.53276 34.4443 8.5289 34.4537C8.52504 34.463 8.52306 34.4729 8.52306 34.483V34.8703H7.37129V34.483C7.37129 34.4729 7.36931 34.463 7.36545 34.4537C7.36159 34.4443 7.35594 34.4359 7.3488 34.4287C7.34167 34.4216 7.33321 34.416 7.32389 34.4121C7.31458 34.4082 7.30459 34.4062 7.29451 34.4063H5.45169C5.4416 34.4062 5.43162 34.4082 5.4223 34.4121C5.41299 34.416 5.40452 34.4216 5.39739 34.4287C5.39026 34.4359 5.3846 34.4443 5.38075 34.4537C5.37689 34.463 5.3749 34.4729 5.3749 34.483V34.8703H1.84282C1.35408 34.8703 0.885347 35.0644 0.539751 35.41C0.194155 35.7556 4.6563e-07 36.2244 0 36.7131V37.5464C1.39689e-06 38.0351 0.194156 38.5039 0.539752 38.8495C0.885349 39.1951 1.35408 39.3892 1.84282 39.3892H63.1167C63.6054 39.3892 64.0742 39.1951 64.4198 38.8495C64.7654 38.5039 64.9595 38.0351 64.9595 37.5464V36.7131C64.9595 36.2244 64.7654 35.7556 64.4198 35.41C64.0742 35.0644 63.6054 34.8703 63.1167 34.8703Z" fill="#3F3D56"/>
<path d="M14.3237 31.1228C13.0042 31.1228 11.7144 30.7315 10.6172 29.9985C9.52012 29.2654 8.66501 28.2234 8.16006 27.0044C7.65511 25.7853 7.52299 24.4439 7.78042 23.1498C8.03784 21.8556 8.67324 20.6669 9.60627 19.7338C10.5393 18.8008 11.728 18.1654 13.0222 17.908C14.3163 17.6506 15.6578 17.7827 16.8768 18.2876C18.0959 18.7926 19.1378 19.6477 19.8709 20.7448C20.604 21.8419 20.9953 23.1318 20.9953 24.4513C20.9933 26.2201 20.2897 27.9159 19.039 29.1666C17.7883 30.4173 16.0925 31.1208 14.3237 31.1228ZM14.3237 17.9554C13.039 17.9554 11.783 18.3363 10.7148 19.0501C9.64653 19.7639 8.81393 20.7784 8.32227 21.9654C7.8306 23.1524 7.70196 24.4585 7.95261 25.7186C8.20326 26.9787 8.82194 28.1362 9.73041 29.0446C10.6389 29.9531 11.7964 30.5718 13.0564 30.8224C14.3165 31.0731 15.6227 30.9444 16.8096 30.4528C17.9966 29.9611 19.0111 29.1285 19.7249 28.0603C20.4387 26.992 20.8197 25.7361 20.8197 24.4513C20.8177 22.7291 20.1327 21.0779 18.9149 19.8601C17.6971 18.6423 16.046 17.9573 14.3237 17.9554Z" fill="#3F3D56"/>
<path d="M73.8406 2.85669H51.4559V3.03226H73.8406V2.85669Z" fill="#3F3D56"/>
<path d="M100 49.2063H35.655V49.3819H100V49.2063Z" fill="#3F3D56"/>
<path d="M39.298 57.2822H16.9133V57.4578H39.298V57.2822Z" fill="#3F3D56"/>
<path d="M43.8038 48.2808H41.3459V50.7387H43.8038V48.2808Z" fill="#325CAE"/>
<path d="M45.2961 49.3342H42.3115V46.3496H45.2961V49.3342ZM42.4412 49.2045H45.1663V46.4794H42.4412V49.2045Z" fill="#3F3D56"/>
<path d="M72.3333 1.93115H69.8753V4.38908H72.3333V1.93115Z" fill="#325CAE"/>
<path d="M73.8256 2.98463H70.841V0H73.8256V2.98463ZM70.9708 2.85486H73.6959V0.129767H70.9708V2.85486Z" fill="#3F3D56"/>
<path d="M97.0882 48.2808H94.6302V50.7387H97.0882V48.2808Z" fill="#325CAE"/>
<path d="M98.5805 49.3342H95.5958V46.3496H98.5805V49.3342ZM95.7256 49.2045H98.4507V46.4794H95.7256V49.2045Z" fill="#3F3D56"/>
<path d="M92.8018 20.362H92.593V14.6419C92.593 14.2072 92.5074 13.7767 92.341 13.375C92.1746 12.9733 91.9308 12.6084 91.6234 12.301C91.3159 11.9935 90.951 11.7497 90.5493 11.5833C90.1476 11.4169 89.7171 11.3313 89.2824 11.3313H77.1637C76.7289 11.3313 76.2984 11.4169 75.8967 11.5833C75.4951 11.7497 75.1301 11.9935 74.8227 12.301C74.5153 12.6084 74.2714 12.9733 74.105 13.375C73.9387 13.7767 73.853 14.2072 73.853 14.6419V46.0228C73.853 46.4575 73.9387 46.888 74.105 47.2897C74.2714 47.6914 74.5153 48.0563 74.8227 48.3638C75.1301 48.6712 75.4951 48.915 75.8967 49.0814C76.2984 49.2478 76.7289 49.3334 77.1637 49.3334H89.2824C89.7171 49.3334 90.1476 49.2478 90.5493 49.0814C90.951 48.915 91.3159 48.6712 91.6234 48.3637C91.9308 48.0563 92.1746 47.6914 92.341 47.2897C92.5074 46.888 92.593 46.4575 92.593 46.0228V24.4337H92.8018V20.362Z" fill="#3F3D56"/>
<path d="M91.888 14.8365V46.1715C91.8881 46.8273 91.6277 47.4562 91.1642 47.9199C90.7006 48.3837 90.0717 48.6443 89.416 48.6444H77.2388C76.583 48.6443 75.9542 48.3837 75.4906 47.9199C75.027 47.4562 74.7667 46.8273 74.7668 46.1715V14.8365C74.7669 14.1809 75.0273 13.5522 75.4909 13.0886C75.9545 12.625 76.5832 12.3646 77.2388 12.3645H78.7161C78.6434 12.5428 78.6157 12.7363 78.6354 12.9279C78.6551 13.1195 78.7216 13.3033 78.829 13.4631C78.9365 13.623 79.0816 13.7539 79.2516 13.8445C79.4216 13.935 79.6112 13.9824 79.8038 13.9823H86.7465C86.9391 13.9824 87.1288 13.935 87.2988 13.8445C87.4688 13.7539 87.6139 13.623 87.7213 13.4631C87.8288 13.3033 87.8953 13.1195 87.9149 12.9279C87.9346 12.7363 87.9069 12.5428 87.8342 12.3645H89.416C90.0716 12.3646 90.7003 12.625 91.1639 13.0886C91.6275 13.5522 91.8879 14.1809 91.888 14.8365Z" fill="#325CAE"/>
<path d="M85.1412 33.0256H81.5137V34.1006H85.1412V33.0256Z" fill="#3F3D56"/>
<path d="M89.5267 24.656H77.1282V25.1167H89.5267V24.656Z" fill="#3F3D56"/>
<path d="M89.5267 26.115H77.1282V26.5757H89.5267V26.115Z" fill="#3F3D56"/>
<path d="M89.5267 27.5737H77.1282V28.0344H89.5267V27.5737Z" fill="#3F3D56"/>
<path d="M89.5267 29.0327H77.1282V29.4934H89.5267V29.0327Z" fill="#3F3D56"/>
<path d="M89.5267 30.4917H77.1282V30.9524H89.5267V30.4917Z" fill="#3F3D56"/>
<path d="M83.7604 18.5378H81.6105V20.6878H83.7604V18.5378Z" fill="#F2F2F2"/>
<path d="M82.4336 19.0757V21.6864H85.0443V19.0757H82.4336ZM84.931 21.5731H82.5468V19.1889H84.931V21.5731Z" fill="#3F3D56"/>
<path opacity="0.1" d="M91.888 42.8253V46.1716C91.8881 46.8273 91.6277 47.4562 91.1642 47.92C90.7006 48.3837 90.0717 48.6443 89.416 48.6444H77.2388C76.583 48.6443 75.9542 48.3837 75.4906 47.92C75.027 47.4562 74.7667 46.8273 74.7668 46.1716V29.2988L85.026 37.4038L85.2016 37.5425L87.11 39.0498L87.2882 39.1911L91.888 42.8253Z" fill="black"/>
<path d="M82.274 47.6289C84.4008 47.6289 86.1249 45.9048 86.1249 43.7781C86.1249 41.6513 84.4008 39.9272 82.274 39.9272C80.1472 39.9272 78.4232 41.6513 78.4232 43.7781C78.4232 45.9048 80.1472 47.6289 82.274 47.6289Z" fill="#F2F2F2"/>
<path d="M28.1057 57.4579C26.5952 57.4579 25.1186 57.01 23.8627 56.1708C22.6068 55.3316 21.6279 54.1388 21.0499 52.7433C20.4718 51.3478 20.3206 49.8123 20.6153 48.3308C20.9099 46.8493 21.6373 45.4885 22.7054 44.4205C23.7734 43.3524 25.1343 42.625 26.6157 42.3303C28.0972 42.0357 29.6328 42.1869 31.0283 42.7649C32.4238 43.343 33.6165 44.3218 34.4557 45.5778C35.2949 46.8337 35.7428 48.3102 35.7428 49.8207C35.7405 51.8455 34.9351 53.7867 33.5034 55.2185C32.0717 56.6502 30.1304 57.4556 28.1057 57.4579ZM28.1057 42.3592C26.6299 42.3592 25.1873 42.7968 23.9602 43.6167C22.7332 44.4365 21.7768 45.6019 21.2121 46.9653C20.6473 48.3287 20.4995 49.829 20.7874 51.2764C21.0754 52.7238 21.786 54.0533 22.8295 55.0969C23.873 56.1404 25.2026 56.851 26.65 57.1389C28.0974 57.4268 29.5976 57.2791 30.9611 56.7143C32.3245 56.1496 33.4898 55.1932 34.3097 53.9662C35.1296 52.7391 35.5672 51.2965 35.5672 49.8207C35.565 47.8425 34.7781 45.9459 33.3793 44.5471C31.9805 43.1482 30.0839 42.3614 28.1057 42.3592Z" fill="#3F3D56"/>
<path d="M83.409 46.7484C82.4541 46.7484 81.5206 46.4653 80.7267 45.9348C79.9327 45.4042 79.3139 44.6502 78.9485 43.768C78.583 42.8858 78.4874 41.915 78.6737 40.9785C78.86 40.0419 79.3198 39.1816 79.995 38.5064C80.6703 37.8312 81.5305 37.3713 82.4671 37.1851C83.4037 36.9988 84.3744 37.0944 85.2566 37.4598C86.1388 37.8252 86.8929 38.4441 87.4234 39.238C87.9539 40.032 88.2371 40.9655 88.2371 41.9204C88.2356 43.2004 87.7265 44.4276 86.8214 45.3327C85.9162 46.2379 84.689 46.747 83.409 46.7484ZM83.409 37.2679C82.4888 37.2679 81.5893 37.5407 80.8242 38.0519C80.0591 38.5632 79.4628 39.2898 79.1106 40.1399C78.7585 40.9901 78.6664 41.9255 78.8459 42.828C79.0254 43.7305 79.4685 44.5595 80.1192 45.2102C80.7699 45.8609 81.5989 46.304 82.5013 46.4835C83.4038 46.663 84.3393 46.5709 85.1894 46.2187C86.0396 45.8666 86.7662 45.2703 87.2774 44.5052C87.7887 43.7401 88.0615 42.8405 88.0615 41.9204C88.0601 40.6869 87.5695 39.5043 86.6973 38.6321C85.8251 37.7599 84.6425 37.2692 83.409 37.2679Z" fill="#3F3D56"/>
</g>
<defs>
<clipPath id="clip0">
<rect width="100" height="57.4579" fill="white"/>
</clipPath>
</defs>
</svg>
