<svg width="400" height="281" viewBox="0 0 400 281" fill="none" xmlns="http://www.w3.org/2000/svg">
<g clip-path="url(#clip0)">
<path d="M100.741 150.807C105.135 150.807 108.697 147.223 108.697 142.803C108.697 138.383 105.135 134.799 100.741 134.799C96.3466 134.799 92.7845 138.383 92.7845 142.803C92.7845 147.223 96.3466 150.807 100.741 150.807Z" fill="#F2F2F2"/>
<path d="M73.5122 239.934C76.2354 239.934 78.443 237.714 78.443 234.974C78.443 232.235 76.2354 230.014 73.5122 230.014C70.7889 230.014 68.5813 232.235 68.5813 234.974C68.5813 237.714 70.7889 239.934 73.5122 239.934Z" fill="#F2F2F2"/>
<path d="M224.743 9.34753H164.235V10.2171H224.743V9.34753Z" fill="#F2F2F2"/>
<path d="M181.523 1.52173H180.658V9.56496H181.523V1.52173Z" fill="#F2F2F2"/>
<path d="M207.887 1.52173H207.023V9.56496H207.887V1.52173Z" fill="#F2F2F2"/>
<path d="M322.42 219.776H261.912V220.645H322.42V219.776Z" fill="#F2F2F2"/>
<path d="M279.2 211.95H278.336V219.993H279.2V211.95Z" fill="#F2F2F2"/>
<path d="M305.564 211.95H304.7V219.993H305.564V211.95Z" fill="#F2F2F2"/>
<path d="M325.445 87.1713H264.937V88.0408H325.445V87.1713Z" fill="#F2F2F2"/>
<path d="M282.225 79.3453H281.361V87.3886H282.225V79.3453Z" fill="#F2F2F2"/>
<path d="M308.59 79.3453H307.725V87.3886H308.59V79.3453Z" fill="#F2F2F2"/>
<path d="M325.445 55.8679H264.937V56.7374H325.445V55.8679Z" fill="#F2F2F2"/>
<path d="M282.225 48.042H281.361V56.0852H282.225V48.042Z" fill="#F2F2F2"/>
<path d="M308.59 48.042H307.725V56.0852H308.59V48.042Z" fill="#F2F2F2"/>
<path d="M192.76 60.2156H132.252V61.0851H192.76V60.2156Z" fill="#F2F2F2"/>
<path d="M149.54 52.3896H148.676V60.4329H149.54V52.3896Z" fill="#F2F2F2"/>
<path d="M175.904 52.3896H175.04V60.4329H175.904V52.3896Z" fill="#F2F2F2"/>
<path d="M148.676 39.7814H88.1675V40.6509H148.676V39.7814Z" fill="#F2F2F2"/>
<path d="M105.456 31.9556H104.591V39.9988H105.456V31.9556Z" fill="#F2F2F2"/>
<path d="M131.82 31.9556H130.955V39.9988H131.82V31.9556Z" fill="#F2F2F2"/>
<path d="M121.447 120.214H60.9389V121.083H121.447V120.214Z" fill="#F2F2F2"/>
<path d="M78.2269 112.388H77.3625V120.431H78.2269V112.388Z" fill="#F2F2F2"/>
<path d="M104.591 112.388H103.727V120.431H104.591V112.388Z" fill="#F2F2F2"/>
<path d="M91.1929 208.906H30.6849V209.776H91.1929V208.906Z" fill="#F2F2F2"/>
<path d="M47.9729 201.081H47.1085V209.124H47.9729V201.081Z" fill="#F2F2F2"/>
<path d="M74.3371 201.081H73.4727V209.124H74.3371V201.081Z" fill="#F2F2F2"/>
<path d="M377.31 172.386H316.801V173.255H377.31V172.386Z" fill="#F2F2F2"/>
<path d="M334.089 164.56H333.225V172.603H334.089V164.56Z" fill="#F2F2F2"/>
<path d="M360.454 164.56H359.589V172.603H360.454V164.56Z" fill="#F2F2F2"/>
<path d="M359.589 116.736H299.081V117.605H359.589V116.736Z" fill="#F2F2F2"/>
<path d="M343.166 117.388H342.301V125.431H343.166V117.388Z" fill="#F2F2F2"/>
<path d="M316.801 117.388H315.937V125.431H316.801V117.388Z" fill="#F2F2F2"/>
<path d="M66.5575 51.5201H6.0495V52.3897H66.5575V51.5201Z" fill="#F2F2F2"/>
<path d="M50.1339 52.1724H49.2695V60.2156H50.1339V52.1724Z" fill="#F2F2F2"/>
<path d="M23.7697 52.1724H22.9053V60.2156H23.7697V52.1724Z" fill="#F2F2F2"/>
<path d="M70.4473 165.43H9.93931V166.299H70.4473V165.43Z" fill="#F2F2F2"/>
<path d="M54.0237 166.082H53.1593V174.125H54.0237V166.082Z" fill="#F2F2F2"/>
<path d="M27.6595 166.082H26.7951V174.125H27.6595V166.082Z" fill="#F2F2F2"/>
<path d="M261.048 23.2601H200.54V24.1297H261.048V23.2601Z" fill="#F2F2F2"/>
<path d="M244.624 23.9124H243.76V31.9556H244.624V23.9124Z" fill="#F2F2F2"/>
<path d="M218.26 23.9124H217.395V31.9556H218.26V23.9124Z" fill="#F2F2F2"/>
<path d="M91.1929 83.6931H30.6849V84.5627H91.1929V83.6931Z" fill="#F2F2F2"/>
<path d="M47.9729 75.8672H47.1085V83.9104H47.9729V75.8672Z" fill="#F2F2F2"/>
<path d="M74.3371 75.8672H73.4727V83.9104H74.3371V75.8672Z" fill="#F2F2F2"/>
<path d="M100.917 75.2151V279.991H289.357V75.2151H100.917ZM195.137 89.9972C193.855 89.9972 192.601 89.6148 191.535 88.8982C190.469 88.1816 189.638 87.163 189.148 85.9714C188.657 84.7797 188.529 83.4685 188.779 82.2034C189.029 80.9384 189.646 79.7763 190.553 78.8643C191.46 77.9522 192.615 77.3311 193.872 77.0795C195.13 76.8278 196.433 76.957 197.618 77.4506C198.803 77.9442 199.815 78.7801 200.527 79.8525C201.24 80.925 201.62 82.1859 201.62 83.4757C201.62 85.2053 200.937 86.8641 199.721 88.0871C198.505 89.3102 196.856 89.9972 195.137 89.9972Z" fill="#3F3D56"/>
<path d="M16.1016 262.512C19.0898 273.624 29.3252 280.506 29.3252 280.506C29.3252 280.506 34.7156 269.372 31.7274 258.26C28.7392 247.148 18.5039 240.266 18.5039 240.266C18.5039 240.266 13.1134 251.4 16.1016 262.512Z" fill="#3F3D56"/>
<path d="M20.4926 260.124C28.6923 268.154 29.6939 280.497 29.6939 280.497C29.6939 280.497 17.401 279.822 9.20126 271.793C1.00153 263.763 -7.62939e-06 251.42 -7.62939e-06 251.42C-7.62939e-06 251.42 12.2929 252.095 20.4926 260.124Z" fill="#325CAE"/>
<path d="M400 279.557H7.13V280.426H400V279.557Z" fill="#3F3D56"/>
<path d="M82.9811 252.748C82.9788 250.821 82.3987 248.94 81.3169 247.35C80.235 245.76 78.7016 244.535 76.9169 243.835C78.9841 243.027 80.7055 241.517 81.7831 239.568C82.8608 237.618 83.227 235.35 82.8183 233.157C82.4097 230.964 81.2518 228.984 79.5452 227.56C77.8386 226.135 75.6906 225.355 73.4727 225.355C71.2549 225.355 69.1069 226.135 67.4002 227.56C65.6936 228.984 64.5358 230.964 64.1272 233.157C63.7185 235.35 64.0847 237.618 65.1624 239.568C66.24 241.517 67.9614 243.027 70.0286 243.835C68.2425 244.533 66.7078 245.757 65.6256 247.348C64.5434 248.938 63.9643 250.821 63.9643 252.748C63.9643 254.675 64.5434 256.558 65.6256 258.148C66.7078 259.739 68.2425 260.963 70.0286 261.661C67.9614 262.469 66.24 263.978 65.1624 265.928C64.0847 267.878 63.7185 270.146 64.1272 272.339C64.5358 274.531 65.6936 276.512 67.4002 277.936C69.1069 279.361 71.2549 280.141 73.4727 280.141C75.6906 280.141 77.8386 279.361 79.5452 277.936C81.2518 276.512 82.4097 274.531 82.8183 272.339C83.227 270.146 82.8608 267.878 81.7831 265.928C80.7055 263.978 78.9841 262.469 76.9169 261.661C78.7016 260.961 80.235 259.736 81.3169 258.146C82.3987 256.556 82.9788 254.675 82.9811 252.748ZM64.8287 234.922C64.8274 233.287 65.2848 231.683 66.1484 230.297C67.0121 228.911 68.2469 227.798 69.7111 227.086C71.1753 226.374 72.8094 226.092 74.4257 226.273C76.042 226.453 77.575 227.088 78.8485 228.106C80.122 229.123 81.0844 230.481 81.625 232.024C82.1657 233.567 82.2628 235.232 81.905 236.828C81.5473 238.424 80.7493 239.886 79.6028 241.046C78.4562 242.206 77.0075 243.017 75.4232 243.386C74.1369 243.115 72.8086 243.115 71.5223 243.386C69.6211 242.942 67.9253 241.863 66.7102 240.327C65.495 238.79 64.832 236.886 64.8287 234.922ZM82.1167 270.573C82.1181 272.209 81.6607 273.813 80.7971 275.199C79.9334 276.585 78.6986 277.698 77.2344 278.41C75.7702 279.122 74.1361 279.404 72.5198 279.223C70.9035 279.043 69.3705 278.407 68.097 277.39C66.8235 276.373 65.8611 275.015 65.3205 273.472C64.7798 271.929 64.6827 270.264 65.0405 268.668C65.3982 267.072 66.1962 265.61 67.3427 264.45C68.4893 263.29 69.938 262.479 71.5223 262.11C72.8086 262.381 74.1369 262.381 75.4232 262.11C77.3243 262.554 79.0202 263.632 80.2353 265.169C81.4504 266.705 82.1135 268.61 82.1167 270.573ZM75.4232 261.212C74.1369 260.941 72.8086 260.941 71.5223 261.212C69.6196 260.77 67.9219 259.693 66.7062 258.156C65.4906 256.618 64.8287 254.712 64.8287 252.748C64.8287 250.784 65.4906 248.877 66.7062 247.34C67.9219 245.803 69.6196 244.726 71.5223 244.284C72.8086 244.555 74.1369 244.555 75.4232 244.284C77.3259 244.726 79.0236 245.803 80.2392 247.34C81.4549 248.877 82.1167 250.784 82.1167 252.748C82.1167 254.712 81.4549 256.618 80.2392 258.156C79.0236 259.693 77.3259 260.77 75.4232 261.212Z" fill="#3F3D56"/>
<path d="M220.853 118.04H121.879C121.077 118.04 120.307 117.719 119.74 117.149C119.173 116.578 118.854 115.804 118.854 114.997C118.854 114.189 119.173 113.415 119.74 112.845C120.307 112.274 121.077 111.953 121.879 111.953H220.853C221.655 111.953 222.425 112.274 222.992 112.845C223.56 113.415 223.878 114.189 223.878 114.997C223.878 115.804 223.56 116.578 222.992 117.149C222.425 117.719 221.655 118.04 220.853 118.04Z" fill="#F2F2F2"/>
<path d="M220.853 149.343H121.879C121.077 149.343 120.307 149.023 119.74 148.452C119.173 147.881 118.854 147.107 118.854 146.3C118.854 145.493 119.173 144.719 119.74 144.148C120.307 143.577 121.077 143.256 121.879 143.256H220.853C221.655 143.256 222.425 143.577 222.992 144.148C223.56 144.719 223.878 145.493 223.878 146.3C223.878 147.107 223.56 147.881 222.992 148.452C222.425 149.023 221.655 149.343 220.853 149.343Z" fill="#F2F2F2"/>
<path d="M220.853 180.647H121.879C121.077 180.647 120.307 180.326 119.74 179.755C119.173 179.184 118.854 178.41 118.854 177.603C118.854 176.796 119.173 176.022 119.74 175.451C120.307 174.88 121.077 174.56 121.879 174.56H220.853C221.655 174.56 222.425 174.88 222.992 175.451C223.56 176.022 223.878 176.796 223.878 177.603C223.878 178.41 223.56 179.184 222.992 179.755C222.425 180.326 221.655 180.647 220.853 180.647Z" fill="#F2F2F2"/>
<path d="M220.853 211.95H121.879C121.077 211.95 120.307 211.629 119.74 211.059C119.173 210.488 118.854 209.714 118.854 208.907C118.854 208.099 119.173 207.325 119.74 206.755C120.307 206.184 121.077 205.863 121.879 205.863H220.853C221.655 205.863 222.425 206.184 222.992 206.755C223.56 207.325 223.878 208.099 223.878 208.907C223.878 209.714 223.56 210.488 222.992 211.059C222.425 211.629 221.655 211.95 220.853 211.95Z" fill="#F2F2F2"/>
<path d="M220.853 243.253H121.879C121.077 243.253 120.307 242.933 119.74 242.362C119.173 241.791 118.854 241.017 118.854 240.21C118.854 239.403 119.173 238.629 119.74 238.058C120.307 237.487 121.077 237.167 121.879 237.167H220.853C221.655 237.167 222.425 237.487 222.992 238.058C223.56 238.629 223.878 239.403 223.878 240.21C223.878 241.017 223.56 241.791 222.992 242.362C222.425 242.933 221.655 243.253 220.853 243.253Z" fill="#F2F2F2"/>
<path d="M203.565 118.04H121.447C120.645 118.04 119.875 117.719 119.308 117.149C118.74 116.578 118.422 115.804 118.422 114.997C118.422 114.189 118.74 113.415 119.308 112.845C119.875 112.274 120.645 111.953 121.447 111.953H203.565C204.367 111.953 205.137 112.274 205.704 112.845C206.272 113.415 206.59 114.189 206.59 114.997C206.59 115.804 206.272 116.578 205.704 117.149C205.137 117.719 204.367 118.04 203.565 118.04Z" fill="#325CAE"/>
<path d="M178.065 149.343H121.447C120.645 149.343 119.875 149.023 119.308 148.452C118.74 147.881 118.422 147.107 118.422 146.3C118.422 145.493 118.74 144.719 119.308 144.148C119.875 143.577 120.645 143.256 121.447 143.256H178.065C178.868 143.256 179.637 143.577 180.204 144.148C180.772 144.719 181.091 145.493 181.091 146.3C181.091 147.107 180.772 147.881 180.204 148.452C179.637 149.023 178.868 149.343 178.065 149.343Z" fill="#325CAE"/>
<path d="M146.947 180.647H121.447C120.645 180.647 119.875 180.326 119.308 179.755C118.74 179.184 118.422 178.41 118.422 177.603C118.422 176.796 118.74 176.022 119.308 175.451C119.875 174.88 120.645 174.56 121.447 174.56H146.947C147.749 174.56 148.519 174.88 149.086 175.451C149.653 176.022 149.972 176.796 149.972 177.603C149.972 178.41 149.653 179.184 149.086 179.755C148.519 180.326 147.749 180.647 146.947 180.647Z" fill="#325CAE"/>
<path d="M211.345 211.95H121.447C120.645 211.95 119.875 211.629 119.308 211.059C118.74 210.488 118.422 209.714 118.422 208.907C118.422 208.099 118.74 207.325 119.308 206.755C119.875 206.184 120.645 205.863 121.447 205.863H211.345C212.147 205.863 212.917 206.184 213.484 206.755C214.051 207.325 214.37 208.099 214.37 208.907C214.37 209.714 214.051 210.488 213.484 211.059C212.917 211.629 212.147 211.95 211.345 211.95Z" fill="#325CAE"/>
<path d="M191.463 243.253H121.447C120.645 243.253 119.875 242.933 119.308 242.362C118.74 241.791 118.422 241.017 118.422 240.21C118.422 239.403 118.74 238.629 119.308 238.058C119.875 237.487 120.645 237.167 121.447 237.167H191.463C192.266 237.167 193.035 237.487 193.603 238.058C194.17 238.629 194.489 239.403 194.489 240.21C194.489 241.017 194.17 241.791 193.603 242.362C193.035 242.933 192.266 243.253 191.463 243.253Z" fill="#325CAE"/>
<path d="M261.912 111.953H261.048V118.04H261.912V111.953Z" fill="#325CAE"/>
<path d="M268.395 118.475C267.711 118.475 267.043 118.271 266.474 117.888C265.905 117.506 265.462 116.963 265.201 116.328C264.939 115.692 264.87 114.993 265.004 114.318C265.137 113.643 265.467 113.023 265.95 112.537C266.434 112.051 267.05 111.719 267.72 111.585C268.391 111.451 269.086 111.52 269.718 111.783C270.35 112.046 270.89 112.492 271.27 113.064C271.65 113.636 271.853 114.309 271.853 114.996C271.852 115.919 271.487 116.803 270.839 117.455C270.191 118.107 269.312 118.474 268.395 118.475ZM268.395 112.388C267.882 112.388 267.381 112.541 266.954 112.827C266.528 113.114 266.195 113.522 265.999 113.998C265.803 114.475 265.752 114.999 265.852 115.505C265.952 116.011 266.199 116.476 266.561 116.841C266.924 117.206 267.386 117.454 267.889 117.555C268.392 117.656 268.914 117.604 269.387 117.407C269.861 117.209 270.266 116.875 270.551 116.446C270.836 116.017 270.988 115.512 270.988 114.996C270.987 114.305 270.714 113.642 270.228 113.153C269.742 112.664 269.083 112.389 268.395 112.388Z" fill="#325CAE"/>
<path d="M261.912 143.256H261.048V149.343H261.912V143.256Z" fill="#325CAE"/>
<path d="M268.395 149.778C267.711 149.778 267.043 149.574 266.474 149.192C265.905 148.81 265.462 148.266 265.201 147.631C264.939 146.995 264.87 146.296 265.004 145.621C265.137 144.947 265.467 144.327 265.95 143.84C266.434 143.354 267.05 143.023 267.72 142.888C268.391 142.754 269.086 142.823 269.718 143.086C270.35 143.35 270.89 143.795 271.27 144.367C271.65 144.939 271.853 145.612 271.853 146.3C271.852 147.222 271.487 148.106 270.839 148.758C270.191 149.41 269.312 149.777 268.395 149.778ZM268.395 143.691C267.882 143.691 267.381 143.844 266.954 144.131C266.528 144.417 266.195 144.825 265.999 145.302C265.803 145.778 265.752 146.303 265.852 146.809C265.952 147.315 266.199 147.78 266.561 148.144C266.924 148.509 267.386 148.758 267.889 148.858C268.392 148.959 268.914 148.907 269.387 148.71C269.861 148.512 270.266 148.178 270.551 147.749C270.836 147.32 270.988 146.816 270.988 146.3C270.987 145.608 270.714 144.945 270.228 144.456C269.742 143.967 269.083 143.692 268.395 143.691Z" fill="#325CAE"/>
<path d="M261.912 174.56H261.048V180.647H261.912V174.56Z" fill="#325CAE"/>
<path d="M268.395 181.081C267.711 181.081 267.043 180.877 266.474 180.495C265.905 180.113 265.462 179.57 265.201 178.934C264.939 178.299 264.87 177.599 265.004 176.925C265.137 176.25 265.467 175.63 265.95 175.144C266.434 174.657 267.05 174.326 267.72 174.192C268.391 174.058 269.086 174.126 269.718 174.39C270.35 174.653 270.89 175.099 271.27 175.671C271.65 176.243 271.853 176.915 271.853 177.603C271.852 178.525 271.487 179.409 270.839 180.061C270.191 180.713 269.312 181.08 268.395 181.081ZM268.395 174.995C267.882 174.995 267.381 175.148 266.954 175.434C266.528 175.721 266.195 176.128 265.999 176.605C265.803 177.082 265.752 177.606 265.852 178.112C265.952 178.618 266.199 179.083 266.561 179.448C266.924 179.813 267.386 180.061 267.889 180.162C268.392 180.262 268.914 180.211 269.387 180.013C269.861 179.816 270.266 179.481 270.551 179.052C270.836 178.623 270.988 178.119 270.988 177.603C270.987 176.912 270.714 176.248 270.228 175.759C269.742 175.27 269.083 174.995 268.395 174.995Z" fill="#325CAE"/>
<path d="M261.912 205.863H261.048V211.95H261.912V205.863Z" fill="#325CAE"/>
<path d="M268.395 212.385C267.711 212.385 267.043 212.181 266.474 211.799C265.905 211.416 265.462 210.873 265.201 210.238C264.939 209.602 264.87 208.903 265.004 208.228C265.137 207.553 265.467 206.934 265.95 206.447C266.434 205.961 267.05 205.63 267.72 205.495C268.391 205.361 269.086 205.43 269.718 205.693C270.35 205.956 270.89 206.402 271.27 206.974C271.65 207.546 271.853 208.219 271.853 208.907C271.852 209.829 271.487 210.713 270.839 211.365C270.191 212.017 269.312 212.384 268.395 212.385ZM268.395 206.298C267.882 206.298 267.381 206.451 266.954 206.738C266.528 207.024 266.195 207.432 265.999 207.908C265.803 208.385 265.752 208.91 265.852 209.416C265.952 209.922 266.199 210.386 266.561 210.751C266.924 211.116 267.386 211.364 267.889 211.465C268.392 211.566 268.914 211.514 269.387 211.317C269.861 211.119 270.266 210.785 270.551 210.356C270.836 209.927 270.988 209.423 270.988 208.907C270.987 208.215 270.714 207.552 270.228 207.063C269.742 206.574 269.083 206.299 268.395 206.298Z" fill="#325CAE"/>
<path d="M261.912 237.167H261.048V243.253H261.912V237.167Z" fill="#325CAE"/>
<path d="M268.395 243.688C267.711 243.688 267.043 243.484 266.474 243.102C265.905 242.72 265.462 242.177 265.201 241.541C264.939 240.905 264.87 240.206 265.004 239.531C265.137 238.857 265.467 238.237 265.95 237.751C266.434 237.264 267.05 236.933 267.72 236.799C268.391 236.664 269.086 236.733 269.718 236.997C270.35 237.26 270.89 237.706 271.27 238.278C271.65 238.85 271.853 239.522 271.853 240.21C271.852 241.132 271.487 242.016 270.839 242.668C270.191 243.32 269.312 243.687 268.395 243.688ZM268.395 237.601C267.882 237.601 267.381 237.754 266.954 238.041C266.528 238.328 266.195 238.735 265.999 239.212C265.803 239.688 265.752 240.213 265.852 240.719C265.952 241.225 266.199 241.69 266.561 242.055C266.924 242.419 267.386 242.668 267.889 242.768C268.392 242.869 268.914 242.817 269.387 242.62C269.861 242.423 270.266 242.088 270.551 241.659C270.836 241.23 270.988 240.726 270.988 240.21C270.987 239.518 270.714 238.855 270.228 238.366C269.742 237.877 269.083 237.602 268.395 237.601Z" fill="#325CAE"/>
<path d="M268.395 116.735C269.35 116.735 270.124 115.957 270.124 114.996C270.124 114.036 269.35 113.257 268.395 113.257C267.44 113.257 266.666 114.036 266.666 114.996C266.666 115.957 267.44 116.735 268.395 116.735Z" fill="#325CAE"/>
<path d="M268.395 210.646C269.35 210.646 270.124 209.867 270.124 208.907C270.124 207.946 269.35 207.167 268.395 207.167C267.44 207.167 266.666 207.946 266.666 208.907C266.666 209.867 267.44 210.646 268.395 210.646Z" fill="#325CAE"/>
<path d="M268.395 241.949C269.35 241.949 270.124 241.17 270.124 240.21C270.124 239.25 269.35 238.471 268.395 238.471C267.44 238.471 266.666 239.25 266.666 240.21C266.666 241.17 267.44 241.949 268.395 241.949Z" fill="#325CAE"/>
<path d="M195.137 86.519C196.808 86.519 198.162 85.1565 198.162 83.4756C198.162 81.7948 196.808 80.4323 195.137 80.4323C193.466 80.4323 192.112 81.7948 192.112 83.4756C192.112 85.1565 193.466 86.519 195.137 86.519Z" fill="#3F3D56"/>
<path d="M195.137 6.08677C196.808 6.08677 198.162 4.7242 198.162 3.04338C198.162 1.36257 196.808 0 195.137 0C193.466 0 192.112 1.36257 192.112 3.04338C192.112 4.7242 193.466 6.08677 195.137 6.08677Z" fill="#3F3D56"/>
<path d="M195.569 3.04333H194.705V83.4756H195.569V3.04333Z" fill="#3F3D56"/>
<path d="M370.229 167.16V177.931C370.229 177.931 372.806 195.285 372.806 210.445C372.806 225.604 368.642 260.91 368.642 260.91C368.642 260.91 360.314 263.902 359.719 259.315C359.124 254.727 357.538 230.391 357.538 226.801C357.538 223.211 350.598 195.883 350.598 195.883L346.235 226.203C346.235 226.203 347.623 262.107 346.235 263.104C344.847 264.102 338.105 265.897 337.312 264.102C336.519 262.307 332.355 223.809 332.355 223.809C332.355 223.809 328.984 173.543 330.967 170.551C332.95 167.559 334.735 165.165 334.735 165.165C334.735 165.165 363.09 158.184 370.229 167.16Z" fill="#2F2E41"/>
<path d="M367.651 259.714L368.148 262.965C368.315 264.074 368.423 265.192 368.473 266.312C368.55 267.946 368.821 270.462 369.746 270.861C371.134 271.46 380.143 279.103 373.798 279.502C367.452 279.901 364.278 280.59 362.399 279.122C360.177 277.386 362.694 278.172 361.702 278.172C360.711 278.172 359.521 278.172 359.124 276.576C358.728 274.981 359.719 272.188 359.719 272.188V259.714H367.651Z" fill="#2F2E41"/>
<path d="M338.043 259.557L337.546 262.809C337.38 263.918 337.271 265.035 337.221 266.156C337.144 267.789 336.874 270.306 335.948 270.705C334.56 271.303 325.551 278.946 331.896 279.345C338.242 279.744 341.416 280.433 343.296 278.965C345.518 277.23 343.001 278.016 343.992 278.016C344.984 278.016 346.173 278.016 346.57 276.42C346.966 274.824 345.975 272.032 345.975 272.032V259.557H338.043Z" fill="#2F2E41"/>
<path d="M343.658 80.5898C343.658 80.5898 347.029 88.9676 349.408 90.3638C351.787 91.7601 350.598 98.1432 350.598 98.1432L344.649 106.521H339.89L334.14 96.5474C334.14 96.5474 333.743 89.9649 332.553 88.3692C331.364 86.7734 343.658 80.5898 343.658 80.5898Z" fill="#FFB9B9"/>
<path opacity="0.1" d="M343.658 80.5898C343.658 80.5898 347.029 88.9676 349.408 90.3638C351.787 91.7601 350.598 98.1432 350.598 98.1432L344.649 106.521H339.89L334.14 96.5474C334.14 96.5474 333.743 89.9649 332.553 88.3692C331.364 86.7734 343.658 80.5898 343.658 80.5898Z" fill="black"/>
<path d="M348.615 97.7443L357.538 99.739L364.082 165.963C364.082 165.963 360.512 166.561 356.943 171.349C353.374 176.136 349.011 175.338 346.83 174.141C344.649 172.944 335.924 169.553 335.726 168.157C335.528 166.761 336.123 142.226 336.123 142.226L330.57 103.928L333.346 99.739H338.304L342.27 103.13L348.615 97.7443Z" fill="#325CAE"/>
<path d="M335.131 90.9622C340.826 90.9622 345.442 86.3184 345.442 80.5898C345.442 74.8613 340.826 70.2174 335.131 70.2174C329.436 70.2174 324.82 74.8613 324.82 80.5898C324.82 86.3184 329.436 90.9622 335.131 90.9622Z" fill="#FFB9B9"/>
<path d="M350.003 94.3533C350.003 94.3533 369.435 96.348 371.22 100.537C373.005 104.726 370.03 123.276 370.03 123.276C370.03 123.276 377.169 139.433 376.97 143.223C376.772 147.013 383.712 172.944 376.177 169.952C368.642 166.96 371.022 159.181 367.254 164.766C363.487 170.351 361.9 169.553 361.9 169.553C361.9 169.553 358.133 175.737 356.943 175.138C355.753 174.54 354.96 169.952 357.538 167.758C360.116 165.564 359.719 161.774 354.762 154.593C349.805 147.412 344.649 109.712 347.623 103.928C350.598 98.1432 350.003 94.3533 350.003 94.3533Z" fill="#575A89"/>
<path d="M370.229 170.95L366.858 174.141L362.693 171.349L364.478 167.16L370.229 170.95Z" fill="#FFB9B9"/>
<path d="M335.726 97.7443C335.726 97.7443 320.656 103.329 320.656 109.313C320.656 115.298 329.777 141.428 329.777 141.428C329.777 141.428 329.777 148.21 329.381 149.806C328.984 151.402 322.745 165.32 328.191 166.561C331.59 167.336 334.383 169.372 334.635 172.246C334.935 175.659 332.338 179.966 332.553 180.724C332.95 182.12 335.329 184.115 335.131 183.117C334.933 182.12 336.717 167.758 339.493 161.375C342.27 154.992 338.304 112.106 337.511 106.521C337.128 103.556 336.531 100.622 335.726 97.7443Z" fill="#575A89"/>
<path d="M327.794 170.55L331.364 179.128L334.041 173.642L330.967 166.76L327.794 170.55Z" fill="#FFB9B9"/>
<path d="M346.747 87.016C346.747 87.016 350.003 88.3692 351.986 88.3692C353.969 88.3692 362.099 92.558 359.322 95.1511C356.546 97.7442 352.382 98.3426 350.399 102.133C348.416 105.922 347.425 106.521 347.425 106.521L343.895 101.75C343.895 101.75 348.813 96.1485 348.615 94.3533C348.416 92.558 346.747 87.016 346.747 87.016Z" fill="#325CAE"/>
<path d="M333.604 91.8119C333.604 91.8119 331.165 92.7574 330.57 94.3532C329.975 95.949 326.208 98.941 327.794 99.7389C329.381 100.537 336.321 103.728 337.709 104.327C339.097 104.925 341.684 102.629 341.684 102.629C341.684 102.629 338.205 100.636 338.205 99.2402C338.205 97.8439 333.604 91.8119 333.604 91.8119Z" fill="#325CAE"/>
<path d="M325.415 106.521L320.656 107.718C320.656 107.718 314.112 137.239 316.095 144.62C318.078 152 327.398 174.141 327.398 174.141L333.346 167.16C333.346 167.16 330.752 151.284 329.273 150.246C327.794 149.207 328.786 147.013 328.786 146.415C328.786 145.816 329.381 146.215 327.993 144.819C326.605 143.423 333.148 135.643 331.364 133.449C329.579 131.255 325.415 106.521 325.415 106.521Z" fill="#575A89"/>
<path opacity="0.1" d="M372.311 112.006L369.435 101.135C369.435 101.135 377.169 106.72 378.755 114.899C380.341 123.077 386.488 139.433 382.523 146.614C378.557 153.795 371.617 174.54 369.237 174.141C366.858 173.742 361.107 168.755 360.909 167.958C360.711 167.16 371.22 148.808 369.634 147.412C368.047 146.016 368.444 142.425 369.634 141.628C370.823 140.83 372.211 137.04 371.22 137.239C370.229 137.439 367.254 135.444 367.849 133.25C368.444 131.056 364.875 116.295 364.875 116.295L372.311 112.006Z" fill="black"/>
<path d="M368.444 99.7389L371.22 100.537C371.22 100.537 378.953 106.122 380.54 114.3C382.126 122.478 388.273 138.835 384.307 146.016C380.341 153.197 373.401 173.942 371.022 173.543C368.642 173.144 362.892 168.157 362.693 167.359C362.495 166.561 373.005 148.21 371.418 146.814C369.832 145.417 370.229 141.827 371.418 141.029C372.608 140.231 373.996 136.441 373.005 136.641C372.013 136.84 369.039 134.846 369.634 132.651C370.229 130.457 366.659 115.696 366.659 115.696L368.444 99.7389Z" fill="#575A89"/>
<path d="M343.133 71.2271L345.067 70.5197C345.067 70.5197 341.023 66.452 335.397 66.8058L336.979 65.214C336.979 65.214 333.112 63.7992 329.595 67.5132C327.747 69.4655 325.608 71.7604 324.275 74.3456H322.204L323.068 76.0846L320.043 77.8237L323.148 77.5113C322.854 79.0127 322.955 80.5654 323.442 82.0153L324.145 83.9607C324.145 83.9607 326.958 78.3013 326.958 77.5939V79.3625C326.958 79.3625 328.892 77.7708 328.892 76.7097L329.947 77.9477L330.474 76.0022L336.979 77.9477L335.925 76.356L339.968 76.8865L338.386 74.9411C338.386 74.9411 342.957 77.2402 343.133 79.1857C343.309 81.1311 345.594 83.6071 345.594 83.6071L346.649 81.8385C346.649 81.8385 348.231 73.88 343.133 71.2271Z" fill="#2F2E41"/>
<path d="M342.733 81.7366C343.569 81.7366 344.246 80.666 344.246 79.3453C344.246 78.0247 343.569 76.9541 342.733 76.9541C341.898 76.9541 341.221 78.0247 341.221 79.3453C341.221 80.666 341.898 81.7366 342.733 81.7366Z" fill="#FFB9B9"/>
</g>
<defs>
<clipPath id="clip0">
<rect width="400" height="280.506" fill="white"/>
</clipPath>
</defs>
</svg>
