<svg width="400" height="339" viewBox="0 0 400 339" fill="none" xmlns="http://www.w3.org/2000/svg">
<g clip-path="url(#clip0)">
<path opacity="0.1" d="M37.3234 291.258C46.7012 291.258 54.3035 290.092 54.3035 288.653C54.3035 287.215 46.7012 286.049 37.3234 286.049C27.9455 286.049 20.3433 287.215 20.3433 288.653C20.3433 290.092 27.9455 291.258 37.3234 291.258Z" fill="#325CAE"/>
<path opacity="0.1" d="M282.23 294.801C291.608 294.801 299.21 293.635 299.21 292.197C299.21 290.759 291.608 289.593 282.23 289.593C272.853 289.593 265.25 290.759 265.25 292.197C265.25 293.635 272.853 294.801 282.23 294.801Z" fill="#325CAE"/>
<path opacity="0.1" d="M240.399 318.931C249.777 318.931 257.38 317.764 257.38 316.326C257.38 314.888 249.777 313.722 240.399 313.722C231.022 313.722 223.419 314.888 223.419 316.326C223.419 317.764 231.022 318.931 240.399 318.931Z" fill="#325CAE"/>
<path opacity="0.1" d="M92.3446 271.825C101.722 271.825 109.325 270.659 109.325 269.22C109.325 267.782 101.722 266.616 92.3446 266.616C82.9668 266.616 75.3645 267.782 75.3645 269.22C75.3645 270.659 82.9668 271.825 92.3446 271.825Z" fill="#325CAE"/>
<path opacity="0.1" d="M97.3976 338.445C151.189 338.445 194.795 329.045 194.795 317.45C194.795 305.854 151.189 296.454 97.3976 296.454C43.6064 296.454 0 305.854 0 317.45C0 329.045 43.6064 338.445 97.3976 338.445Z" fill="#325CAE"/>
<path opacity="0.1" d="M386.461 233.328C383.832 239.665 380.383 245.74 375.555 250.399C369.674 256.075 362.369 259.172 354.547 260.652C352.242 261.082 349.914 261.383 347.575 261.555C341.394 262.031 335.065 261.715 328.995 261.054C314.127 259.431 299.463 256.294 285.233 251.691C282.895 250.936 280.571 250.142 278.26 249.308C274.774 248.058 271.319 246.717 267.896 245.284C253.951 239.456 239.534 232.024 224.699 234.329C217.509 235.449 210.754 238.841 203.548 239.85C198.49 240.514 193.351 240.149 188.438 238.775C186.06 238.139 183.73 237.334 181.465 236.368C176.362 234.149 171.507 231.399 166.979 228.165C156.11 220.569 146.357 211.152 134.914 204.573C122.298 197.318 108.332 193.868 94.1041 191.297C91.7882 190.878 89.464 190.479 87.1316 190.099C80.5488 189.012 73.9495 188.007 67.4446 186.818C61.1775 185.661 54.7997 184.246 49.3448 180.768C45.4525 178.287 42.1795 174.85 39.1772 171.228C33.6389 164.517 28.8885 157.193 25.019 149.4C24.8139 148.99 24.6129 148.58 24.416 148.17C18.391 135.808 14.3387 122.33 11.8533 108.385C11.7794 107.975 11.7097 107.565 11.64 107.155C9.30213 93.4848 8.44903 79.3511 8.70742 65.32L8.73203 64.0895C8.89199 57.1621 9.32264 50.2635 9.96247 43.4632C10.4218 38.6809 11.0371 33.7181 13.5143 29.6987C15.9916 25.6792 20.0275 23.0994 24.0469 20.9503C41.8227 11.4882 58.8479 8.85502 77.9525 13.4405C81.0204 14.1746 84.076 14.9662 87.1316 15.7865C89.4572 16.4099 91.7827 17.0539 94.1041 17.7019C110.153 22.1766 126.161 26.9384 142.752 28.3657C144.354 28.5052 145.958 28.6118 147.563 28.6856C150.737 28.8333 153.912 28.8661 157.086 28.7841C165.264 28.5545 173.413 27.7155 181.465 26.274C183.795 25.872 186.119 25.4263 188.438 24.9369C198.446 22.8492 208.363 20.0643 218.12 16.9841C220.114 16.3552 222.104 15.7154 224.092 15.0646C228.571 13.6004 233.05 12.1075 237.537 10.6556C250.932 6.3121 264.393 2.34598 278.26 0.74641C279.447 0.612429 280.634 0.493487 281.82 0.389583C282.956 0.291148 284.097 0.21322 285.233 0.155799C306.745 -0.992612 328.503 4.19575 347.575 14.8145C349.943 16.1297 352.267 17.5296 354.547 19.0144C357.711 21.0733 360.778 23.2881 363.747 25.6587C369.834 30.519 375.531 36.0519 379.87 42.7003C384.099 49.1766 386.842 56.4485 388.422 64.0936C388.508 64.5038 388.59 64.9139 388.663 65.3241C390.981 77.6654 390.259 90.9008 387.659 103.267C387.384 104.563 387.093 105.863 386.789 107.159C386.695 107.569 386.596 107.979 386.498 108.389C383.693 120.083 380.108 131.743 381.043 143.699C381.162 145.204 381.351 146.697 381.597 148.174C381.666 148.584 381.736 148.994 381.814 149.404C383.643 159.157 387.802 168.41 390.296 178.069C394.977 196.424 393.632 215.797 386.461 233.328Z" fill="#325CAE"/>
<path opacity="0.1" d="M354.547 65.3243H388.668C388.594 64.9141 388.512 64.504 388.426 64.0938H354.547V19.0146C352.267 17.5326 349.943 16.1326 347.575 14.8147V64.0938H285.233V0.156006C284.097 0.213426 282.956 0.291354 281.82 0.38979C280.684 0.488225 279.445 0.611269 278.26 0.746617V64.0938H189.258L189.045 63.8601L237.537 10.6517C233.05 12.1036 228.571 13.5965 224.092 15.0607L188.438 54.1847V24.933C186.117 25.4197 183.792 25.8654 181.465 26.2701V55.5341L157.086 28.7802C153.912 28.8567 150.737 28.8239 147.563 28.6817L179.62 63.8601L179.406 64.0938H94.0959V17.7021C91.7745 17.0541 89.449 16.4101 87.1234 15.7867V64.0938H8.72383L8.69922 65.3243H87.1316V107.159H11.6318C11.7015 107.569 11.7712 107.98 11.845 108.39H87.1316V148.174H24.4079C24.6047 148.584 24.8057 148.994 25.0108 149.404H87.1316V190.116C89.4613 190.498 91.7854 190.898 94.1041 191.313V149.404H181.465V236.356C183.73 237.322 186.06 238.127 188.438 238.763V149.404H278.26V249.304C280.573 250.141 282.898 250.935 285.233 251.687V149.404H347.575V261.551C349.914 261.38 352.242 261.078 354.547 260.649V149.404H381.814C381.736 148.994 381.666 148.584 381.597 148.174H354.527V108.39H386.477C386.576 107.98 386.674 107.569 386.769 107.159H354.547V65.3243ZM347.575 65.3243V107.159H285.233V65.3243H347.575ZM278.26 107.159H188.438V65.3243H278.26V107.159ZM94.1041 65.3243H180.235L181.465 66.444V107.159H94.1041V65.3243ZM94.1041 148.174V108.39H181.465V148.174H94.1041ZM188.438 148.174V108.39H278.26V148.174H188.438ZM347.575 148.174H285.233V108.39H347.575V148.174Z" fill="#325CAE"/>
<path opacity="0.1" d="M317.601 36.5155H317.06C317.251 36.4054 317.411 36.2494 317.526 36.0618C317.642 35.8742 317.708 35.6608 317.72 35.4409C317.72 34.596 316.683 33.9028 315.415 33.9028H299.256C297.988 33.9028 296.946 34.596 296.946 35.4409C296.946 36.2899 297.988 36.983 299.256 36.983H299.797C299.607 37.0934 299.446 37.2494 299.331 37.437C299.216 37.6246 299.149 37.8378 299.137 38.0576C299.137 38.7795 299.891 39.3906 300.9 39.5547H296.241C294.97 39.5547 293.932 40.2478 293.932 41.0927C293.932 41.9376 294.97 42.6349 296.241 42.6349H312.405C313.676 42.6349 314.714 41.9417 314.714 41.0927C314.714 40.3709 313.959 39.7638 312.946 39.5998H317.601C318.869 39.5998 319.906 38.9066 319.906 38.0576C319.906 37.2086 318.869 36.5155 317.601 36.5155Z" fill="#325CAE"/>
<path opacity="0.1" d="M142.403 51.1863H141.862C142.051 51.0748 142.21 50.9185 142.326 50.7312C142.441 50.5439 142.508 50.3312 142.522 50.1117C142.522 49.2627 141.484 48.5696 140.213 48.5696H124.049C122.778 48.5696 121.74 49.2627 121.74 50.1117C121.74 50.9566 122.778 51.6498 124.049 51.6498H124.586C124.397 51.7615 124.239 51.9179 124.124 52.1053C124.01 52.2926 123.943 52.5052 123.93 52.7244C123.93 53.4503 124.685 54.0573 125.694 54.2214H121.043C119.771 54.2214 118.733 54.9146 118.733 55.7636C118.733 56.6126 119.771 57.3016 121.043 57.3016H137.206C138.478 57.3016 139.516 56.6085 139.516 55.7636C139.516 55.0376 138.757 54.4306 137.748 54.2665H142.403C143.67 54.2665 144.708 53.5734 144.708 52.7244C144.708 51.8754 143.67 51.1863 142.403 51.1863Z" fill="#325CAE"/>
<path opacity="0.1" d="M342.399 113.963H341.858C342.047 113.852 342.206 113.696 342.321 113.508C342.437 113.321 342.504 113.108 342.518 112.889C342.518 112.044 341.48 111.351 340.209 111.351H324.045C322.773 111.351 321.736 112.044 321.736 112.889C321.736 113.734 322.773 114.427 324.045 114.427H324.582C324.393 114.538 324.234 114.695 324.12 114.882C324.005 115.07 323.939 115.282 323.926 115.502C323.926 116.223 324.681 116.835 325.69 116.999H321.034C319.767 116.999 318.729 117.692 318.729 118.537C318.729 119.382 319.767 120.079 321.034 120.079H337.202C338.47 120.079 339.512 119.386 339.512 118.537C339.512 117.815 338.753 117.208 337.744 117.044H342.399C343.666 117.044 344.704 116.351 344.704 115.502C344.704 114.653 343.666 113.963 342.399 113.963Z" fill="#325CAE"/>
<path d="M93.2469 246.691L282.23 267.929V273.954L92.7671 251.994L93.2469 246.691Z" fill="#EAECF0"/>
<path d="M92.9598 269.077H89.3752V180.042L91.955 180.826L91.9837 183.496L92.9598 269.077Z" fill="#EAECF0"/>
<path d="M94.5389 267.641L92.9598 269.077L91.9837 183.496L91.955 180.826H93.8211L93.8457 183.656L94.5389 267.641Z" fill="#D3DAE1"/>
<path d="M38.0739 265.345L90.38 247.122V248.844L38.0739 266.924V265.345Z" fill="#D3DAE1"/>
<path d="M39.0091 271.083L38.0739 266.924L90.38 248.844V252.429L39.0091 271.083Z" fill="#EAECF0"/>
<path d="M282.23 174.37V292.033H279.503L279.363 182.88L279.359 179.39L282.23 174.37Z" fill="#EAECF0"/>
<path d="M284.236 173.796V291.028L282.23 292.033V174.37L284.236 173.796Z" fill="#D3DAE1"/>
<path d="M240.399 289.453L279.47 267.617L282.23 269.221L240.399 292.033V289.453Z" fill="#D3DAE1"/>
<path d="M241.622 296.914L240.399 292.033L282.23 269.221V273.954L241.622 296.914Z" fill="#EAECF0"/>
<path d="M235.736 193.167L235.88 317.433H239.756L239.181 191.731L235.736 193.167Z" fill="#EAECF0"/>
<path d="M241.622 190.583V316.428L239.756 317.433L239.181 191.731L239.411 191.625L241.622 190.583Z" fill="#D3DAE1"/>
<path d="M37.5736 289.597H34.2719L33.1399 178.439L33.1235 176.523H36.2816L36.3062 178.709L37.5736 289.597Z" fill="#EAECF0"/>
<path d="M39.8663 288.735L37.5736 289.597L36.3062 178.709L36.2816 176.523H38.722L38.7425 178.923L39.8663 288.735Z" fill="#D3DAE1"/>
<path opacity="0.1" d="M239.411 191.625L241.622 190.583V195.464L239.468 196.182L239.411 191.625Z" fill="black"/>
<path opacity="0.1" d="M284.236 173.796V181.256L282.23 181.929L279.363 182.88L279.359 179.39L282.23 174.37L284.236 173.796Z" fill="black"/>
<path d="M284.236 159.445V180.108L239.468 195.033L239.181 172.934L284.236 159.445Z" fill="#D48A9B"/>
<path d="M32.5493 158.009L91.3849 146.82L284.236 159.445L239.181 172.934L32.5493 158.009Z" fill="#EFC6CD"/>
<path opacity="0.1" d="M38.722 176.523L38.7425 178.923L36.3062 178.709L33.1399 178.439L33.1235 176.523H38.722Z" fill="black"/>
<path opacity="0.1" d="M93.8457 183.656L91.9837 183.496L89.3752 183.274V180.042L91.955 180.826H93.8211L93.8457 183.656Z" fill="black"/>
<path d="M32.5493 158.009V177.241L239.468 195.033L239.181 172.934L32.5493 158.009Z" fill="#D48A9B"/>
<path d="M196.612 180.875H169.588V171.068L196.612 172.971V180.875Z" fill="#D48A9B"/>
<path opacity="0.1" d="M196.612 180.875H169.588V171.068L196.612 172.971V180.875Z" fill="black"/>
<path opacity="0.1" d="M133.281 168.919V184.414L237.028 192.306V175.805L196.563 173.508L192.544 177.097L176.043 175.949L170.162 171.642L133.281 168.919Z" fill="black"/>
<path d="M132.707 168.341V183.84L236.454 191.732V175.231L195.989 172.934L191.973 176.523L175.469 175.375L169.588 171.068L132.707 168.341Z" fill="white"/>
<path d="M68.7119 164.182L93.2469 165.905L92.9598 173.701H76.9395L66.2224 169.489L68.7119 164.182Z" fill="#D48A9B"/>
<path opacity="0.1" d="M68.7119 164.182L93.2469 165.905L92.9598 173.701H76.9395L66.2224 169.489L68.7119 164.182Z" fill="black"/>
<path opacity="0.1" d="M35.9945 162.029V175.949L130.127 183.41V168.628L93.8211 166.479L89.9493 169.346L75.3112 168.488L69.2861 164.756L35.9945 162.029Z" fill="black"/>
<path d="M35.4203 161.454V175.375L129.553 182.835V168.058L93.2469 165.904L89.3751 168.775L74.737 167.914L68.7119 164.182L35.4203 161.454Z" fill="white"/>
<path opacity="0.1" d="M39.6407 266.382L40.2846 266.161L39.9606 270.738L39.6407 270.853V266.382Z" fill="black"/>
<path opacity="0.1" d="M237.04 161.508L250.235 162.373L228.37 168.919L217.234 168.111L237.04 161.508Z" fill="black"/>
<path d="M237.04 160.934L250.235 161.799L228.37 168.341L217.234 167.537L237.04 160.934Z" fill="white"/>
<path d="M235.461 162.414C235.982 162.193 236.536 162.611 237.102 162.718C237.418 162.779 237.746 162.718 238.062 162.779C238.71 162.865 239.354 163.3 239.969 163.079" fill="#D3DAE1"/>
<path d="M234.78 162.812C235.297 162.586 235.855 163.005 236.421 163.111C236.737 163.173 237.065 163.111 237.385 163.173C238.033 163.259 238.673 163.694 239.288 163.472" fill="#D3DAE1"/>
<path d="M233.222 163.599C233.743 163.378 234.301 163.796 234.863 163.903C235.178 163.964 235.506 163.903 235.826 163.964C236.474 164.051 237.114 164.485 237.729 164.264" fill="#D3DAE1"/>
<path d="M20.5073 306.236C22.6344 306.236 24.3586 304.512 24.3586 302.385C24.3586 300.258 22.6344 298.534 20.5073 298.534C18.3803 298.534 16.6561 300.258 16.6561 302.385C16.6561 304.512 18.3803 306.236 20.5073 306.236Z" fill="#535461"/>
<path d="M27.3978 321.301C29.5248 321.301 31.2491 319.577 31.2491 317.45C31.2491 315.323 29.5248 313.598 27.3978 313.598C25.2708 313.598 23.5465 315.323 23.5465 317.45C23.5465 319.577 25.2708 321.301 27.3978 321.301Z" fill="#535461"/>
<path d="M96.1098 324.029C98.2368 324.029 99.961 322.304 99.961 320.177C99.961 318.05 98.2368 316.326 96.1098 316.326C93.9828 316.326 92.2585 318.05 92.2585 320.177C92.2585 322.304 93.9828 324.029 96.1098 324.029Z" fill="#535461"/>
<path d="M111.462 304.37C113.589 304.37 115.313 302.646 115.313 300.519C115.313 298.392 113.589 296.667 111.462 296.667C109.335 296.667 107.61 298.392 107.61 300.519C107.61 302.646 109.335 304.37 111.462 304.37Z" fill="#535461"/>
<path d="M68.0065 234.37H63.1832V264.504H68.0065V234.37Z" fill="#535461"/>
<path opacity="0.1" d="M68.0065 259.623H63.1832V264.504H68.0065V259.623Z" fill="black"/>
<path d="M68.9375 260.771H62.2521V294.207H68.9375V260.771Z" fill="#3A3768"/>
<path d="M110.629 293.989L66.8581 292.197V299.239H117.655C117.15 297.758 116.209 296.463 114.955 295.527C113.701 294.59 112.193 294.054 110.629 293.989Z" fill="#3A3768"/>
<path d="M23.0872 293.989L66.8581 292.197V299.239H16.0614C16.5658 297.757 17.5069 296.463 18.7609 295.526C20.0149 294.589 21.5231 294.053 23.0872 293.989Z" fill="#3A3768"/>
<path d="M62.2521 292.915L27.3076 310.141C25.8295 310.874 24.5857 312.006 23.7161 313.408C22.8465 314.81 22.3858 316.427 22.3858 318.077V318.602L63.1955 300.81L68.9375 300.379L102.873 322.047C103.09 320.446 102.864 318.815 102.219 317.333C101.575 315.851 100.537 314.574 99.2187 313.639L68.9375 292.201L62.2521 292.915Z" fill="#3A3768"/>
<path opacity="0.1" d="M68.0065 234.366V237.615C67.1616 237.65 66.3003 237.668 65.4226 237.668C64.6638 237.668 63.9173 237.668 63.1832 237.627V234.366H68.0065Z" fill="black"/>
<path d="M65.4226 236.519C75.2512 236.519 83.2188 234.189 83.2188 231.315C83.2188 228.44 75.2512 226.11 65.4226 226.11C55.5939 226.11 47.6263 228.44 47.6263 231.315C47.6263 234.189 55.5939 236.519 65.4226 236.519Z" fill="#3A3768"/>
<path opacity="0.1" d="M83.063 231.315C83.0459 231.604 82.9697 231.887 82.8392 232.146C82.7088 232.405 82.5267 232.634 82.3042 232.82C80.1058 234.961 73.3097 236.511 65.2708 236.511C57.4083 236.511 50.7434 235.018 48.385 232.955C48.1237 232.764 47.9067 232.518 47.7489 232.235C47.591 231.952 47.4961 231.638 47.4704 231.315C47.4704 228.444 55.4396 226.11 65.2708 226.11C75.102 226.11 83.063 228.439 83.063 231.315Z" fill="black"/>
<path opacity="0.1" d="M83.2147 231.315C83.1976 231.604 83.1215 231.887 82.991 232.146C82.8605 232.405 82.6784 232.634 82.4559 232.82C80.1919 232.254 78.6252 231.786 78.6252 231.786C78.6252 231.786 62.9371 232.664 48.5368 232.964C48.2754 232.772 48.0584 232.526 47.9006 232.243C47.7428 231.96 47.6478 231.646 47.6222 231.323C47.6222 228.452 55.5913 226.118 65.4225 226.118C75.2538 226.118 83.2147 228.44 83.2147 231.315Z" fill="black"/>
<path d="M20.5073 162.763C20.5073 162.763 26.393 178.836 26.1059 188.45C25.8188 198.064 21.2251 216.143 21.2251 216.143C21.2251 216.143 16.6356 230.781 28.4027 232.073C40.1698 233.365 78.6252 231.212 78.6252 231.212C78.6252 231.212 92.9803 235.514 97.5658 233.648C99.3499 232.926 100.896 231.335 102.118 229.658C102.788 228.743 103.264 227.702 103.518 226.598C103.772 225.494 103.798 224.35 103.596 223.235C103.393 222.12 102.965 221.058 102.339 220.114C101.713 219.17 100.901 218.363 99.9528 217.743C97.8106 216.407 95.4774 215.406 93.0337 214.773C92.5193 214.634 91.9875 214.569 91.4546 214.581L41.3141 215.569C41.3141 215.569 35.7197 214.708 36.7246 209.113C37.7294 203.519 39.4479 186.297 39.4479 186.297C39.4479 186.297 39.735 165.347 29.6905 159.465C19.646 153.584 20.5073 162.763 20.5073 162.763Z" fill="#3A3768"/>
<path opacity="0.1" d="M20.5073 162.714C20.5073 162.714 26.393 178.783 26.1059 188.397C25.8188 198.011 21.2251 216.094 21.2251 216.094C21.2251 216.094 16.6356 230.728 28.4027 232.02C40.1698 233.312 78.6252 231.155 78.6252 231.155C78.6252 231.155 92.9803 235.461 97.5658 233.616C99.3499 232.89 100.896 231.298 102.118 229.625C102.788 228.71 103.264 227.669 103.518 226.565C103.772 225.46 103.798 224.316 103.596 223.2C103.393 222.085 102.966 221.023 102.339 220.079C101.713 219.134 100.901 218.327 99.9528 217.706C97.8088 216.374 95.4762 215.373 93.0337 214.737C92.5195 214.596 91.9874 214.533 91.4546 214.548L41.3141 215.52C41.3141 215.52 35.7197 214.659 36.7246 209.06C37.7294 203.462 39.4479 186.248 39.4479 186.248C39.4479 186.248 39.735 165.298 29.6905 159.412C19.646 153.526 20.5073 162.714 20.5073 162.714Z" fill="black"/>
<path d="M21.6558 162.188C21.6558 162.188 27.5414 178.262 27.2543 187.876C26.9672 197.49 22.3735 215.569 22.3735 215.569C22.3735 215.569 17.784 230.207 29.547 231.499C41.31 232.791 79.7695 230.638 79.7695 230.638C79.7695 230.638 94.1246 234.94 98.7142 233.099C100.498 232.373 102.045 230.781 103.267 229.104C103.936 228.19 104.412 227.149 104.666 226.045C104.92 224.94 104.947 223.796 104.744 222.681C104.541 221.566 104.114 220.505 103.488 219.56C102.861 218.616 102.049 217.809 101.101 217.189C98.9602 215.847 96.627 214.838 94.182 214.199C93.6677 214.06 93.1359 213.995 92.603 214.006L42.4625 214.995C42.4625 214.995 36.8681 214.134 37.873 208.539C38.8778 202.945 40.5964 185.723 40.5964 185.723C40.5964 185.723 40.8835 164.772 30.839 158.891C20.7945 153.009 21.6558 162.188 21.6558 162.188Z" fill="#3A3768"/>
<path d="M123.471 300.359V305.547C123.471 305.547 148.256 305.994 153.715 305.994C159.174 305.994 166.688 303.312 167.135 301.163C167.582 299.013 160.872 297.225 158.366 297.139C155.86 297.053 155.774 296.065 152.55 294.362C150.733 293.403 147.973 290.618 145.914 288.374C144.327 286.643 143.158 285.237 143.158 285.237C143.158 285.237 129.824 284.97 125.977 287.115C125.091 287.611 124.48 288.579 124.061 289.781C122.675 293.788 123.471 300.359 123.471 300.359Z" fill="#434175"/>
<path opacity="0.1" d="M124.061 289.781C126.858 288.809 143.223 288.432 145.914 288.374C144.327 286.643 143.158 285.237 143.158 285.237C143.158 285.237 129.824 284.97 125.977 287.115C125.091 287.611 124.48 288.575 124.061 289.781Z" fill="black"/>
<path d="M52.1584 207.034L53.6021 207.908L54.1435 208.236L56.2476 209.499C67.4938 216.279 98.1687 234.649 99.8503 234.518C100.289 234.481 101.61 234.284 103.435 233.985C103.919 233.907 104.44 233.825 104.985 233.73C112.011 232.562 123.688 230.449 124.992 229.867C126.781 229.047 126.424 232.639 125.706 235.683C124.988 238.726 124.455 253.319 125.259 255.189C126.063 257.06 125.706 260.111 125.706 260.111L124.635 276.484L125.353 279.962C125.353 279.962 122.937 281.931 123.922 283.092C124.906 284.252 124.012 289.268 124.012 289.268C126.883 288.194 146.291 287.837 146.291 287.837C146.291 287.837 145.471 280.676 146.201 278.978C146.931 277.28 146.381 267.166 146.381 267.166C146.381 267.166 146.829 259.471 146.025 257.683C145.221 255.895 146.291 244.439 146.291 244.439C146.291 244.439 147.009 237.639 147.185 223.768C147.362 209.897 139.311 209.454 139.311 209.454C139.311 209.454 138.24 209.368 136.608 209.212C133.421 208.904 128.105 208.322 124.553 207.571C123.826 207.419 123.107 207.227 122.4 206.997C118.016 205.504 103.255 205.447 100.839 206.521C98.5132 207.555 96.1877 206.599 96.0154 206.521L94.1369 203.478L76.1889 205.008L74.2899 205.172L56.6208 206.677L55.3904 206.784L52.1584 207.034Z" fill="#565387"/>
<path opacity="0.1" d="M124.098 220.757C129.311 223.3 134.286 214.289 136.604 209.208C133.417 208.9 128.101 208.318 124.549 207.567C122.216 211.468 119.099 218.325 124.098 220.757Z" fill="black"/>
<path d="M108.439 159.879C108.547 160.494 108.761 161.085 109.07 161.627C110.998 165.531 116.58 173.57 116.58 173.57C118.24 174.609 119.643 176.012 120.682 177.672C122.203 180.268 122.65 186.35 122.65 186.35C122.65 186.35 126.05 199.861 127.658 201.743C128.479 202.682 128.105 203.24 127.548 203.564C126.404 204.201 125.435 205.109 124.726 206.21C122.38 209.979 118.635 217.464 123.905 220.032C131.062 223.522 137.777 205.229 137.777 205.229C137.777 205.229 136.431 192.256 136.075 190.021C135.718 187.786 133.568 178.566 133.568 178.566C133.568 178.566 132.047 174.628 131.153 171.856C130.259 169.083 127.576 165.859 127.576 165.859C127.576 165.859 122.741 156.196 121.399 154.765C120.776 154.1 119.902 153.264 119.148 152.558C118.274 151.738 117.552 151.098 117.552 151.098C117.552 151.098 108.349 157.738 108.439 159.879Z" fill="#EE8E9E"/>
<path d="M47.7739 299.284L64.0568 306.532C64.0568 306.532 85.1588 306.979 88.8502 305.994C92.5415 305.01 91.7212 300.896 86.8815 300.088C82.0417 299.28 80.8892 297.139 79.2773 296.155C78.1904 295.491 74.3309 291.196 71.9398 288.477C70.7873 287.169 69.9711 286.221 69.9711 286.221C69.9711 286.221 66.8376 277.899 58.1588 279.778C56.572 280.124 55.1098 280.897 53.9302 282.013C49.2505 286.344 48.8444 294.912 48.8444 294.912L47.7739 299.284Z" fill="#434175"/>
<path opacity="0.1" d="M54.1435 208.236L56.2476 209.499C67.4938 216.279 98.1687 234.649 99.8503 234.518C100.289 234.481 101.61 234.284 103.435 233.985C103.919 233.907 104.44 233.825 104.985 233.731L105.047 233.628C105.949 232.054 106.639 230.367 107.098 228.612C108.976 221.455 99.6698 215.996 99.6698 215.996L97.7011 214.466C95.4658 210.701 79.3593 207.141 79.3593 207.141L77.284 205.726L76.1725 204.979L75.8813 204.786L73.363 203.093L60.7469 203.987L56.9981 206.394L56.588 206.648L55.2181 207.547L54.1435 208.236Z" fill="black"/>
<path opacity="0.1" d="M53.9302 282.013C57.355 293.862 71.6609 289.99 71.6609 289.99L71.9316 288.489C70.7791 287.181 69.9629 286.233 69.9629 286.233C69.9629 286.233 66.8294 277.912 58.1506 279.79C56.568 280.134 55.1089 280.902 53.9302 282.013Z" fill="black"/>
<path d="M50.1897 228.239C55.4683 228.239 69.0564 234.592 69.0564 234.592C71.829 236.741 75.586 236.023 75.586 236.023C75.586 236.023 68.9785 242.733 69.1631 245.51C69.3477 248.287 65.402 252.847 65.402 252.847L53.233 276.915C54.1312 294.006 71.665 289.264 71.665 289.264L72.3827 285.237C73.4573 284.699 75.0692 279.331 75.0692 279.331C75.0692 279.331 75.0692 277.185 76.1397 276.558C77.2102 275.93 79.4496 269.487 79.4496 269.487C79.4496 269.487 84.2811 261.346 84.0104 260.275C83.7397 259.205 87.5008 253.746 87.5008 253.746C87.5008 253.746 93.8539 247.483 93.5832 246.363C93.3125 245.243 98.6937 239.513 98.6937 239.513C100.639 238.009 102.255 236.122 103.443 233.968C104.345 232.395 105.034 230.71 105.494 228.956C107.007 223.19 101.265 218.526 98.9726 216.931C98.4189 216.545 98.0661 216.34 98.0661 216.34L96.0974 214.81C95.0803 213.096 91.1962 211.423 87.2588 210.114C84.4206 209.167 81.5577 208.404 79.7244 207.949C78.4939 207.649 77.7557 207.481 77.7557 207.481L75.6803 206.087L74.9503 205.594L74.2817 205.147L71.7593 203.453L66.1485 203.864L59.1432 204.36L55.3986 206.771L53.6103 207.92L46.6173 212.431C46.6173 212.431 46.4328 214.15 46.3753 216.463C46.3753 216.64 46.3753 216.82 46.3753 217.009C46.281 221.656 46.7855 228.239 50.1897 228.239Z" fill="#565387"/>
<path d="M77.1199 128.023L79.0066 134.733C79.0066 134.733 82.3206 146.279 82.6775 147.083C83.0343 147.887 91.7007 156.032 92.0739 156.209C92.4471 156.385 97.1556 159.08 97.1556 159.08C97.1556 159.08 97.5289 144.314 97.1556 140.024C97.1249 139.08 97.2034 138.136 97.3894 137.21C97.9595 133.843 99.4032 128.909 100.601 125.107C101.602 121.92 102.434 119.533 102.434 119.533C102.434 119.533 81.4962 118.635 82.214 120.694C82.4847 121.473 82.3944 122.773 82.1361 124.078C81.7013 126.227 80.8031 128.376 80.2453 128.212C79.7004 128.087 79.1431 128.026 78.5842 128.027C77.8213 127.994 77.1199 128.023 77.1199 128.023Z" fill="#EE8E9E"/>
<path opacity="0.1" d="M82.1443 124.07C84.7012 126.202 87.8775 127.454 91.2021 127.64C94.5267 127.825 97.8226 126.934 100.601 125.099C101.602 121.912 102.434 119.525 102.434 119.525C102.434 119.525 81.4962 118.627 82.214 120.686C82.4929 121.465 82.4026 122.765 82.1443 124.07Z" fill="black"/>
<path d="M76.5826 111.65C76.5818 114.713 77.4892 117.707 79.19 120.253C80.8908 122.8 83.3087 124.785 86.1378 125.958C88.9668 127.13 92.0801 127.437 95.0838 126.84C98.0875 126.243 100.847 124.769 103.012 122.604C105.178 120.439 106.653 117.68 107.251 114.676C107.849 111.673 107.542 108.56 106.371 105.73C105.199 102.901 103.214 100.482 100.668 98.781C98.1218 97.0795 95.1281 96.1713 92.0657 96.1713C90.0301 96.1615 88.0126 96.5552 86.13 97.3296C84.2474 98.104 82.5368 99.2437 81.0972 100.683C79.6576 102.122 78.5174 103.832 77.7425 105.715C76.9676 107.597 76.5734 109.615 76.5826 111.65Z" fill="#EE8E9E"/>
<path opacity="0.1" d="M77.1199 128.023L79.0066 134.733C79.0066 134.733 82.3206 146.279 82.6774 147.083C83.0343 147.887 91.7007 156.032 92.0739 156.209C92.4471 156.385 97.1556 159.08 97.1556 159.08C97.1556 159.08 97.5289 144.314 97.1556 140.024C97.1249 139.081 97.2034 138.136 97.3894 137.211L96.159 142.169L96.2492 152.103L96.9629 152.64L95.3551 155.056V153.264C95.3551 153.264 89.613 147.719 88.7312 145.389C87.8494 143.059 84.6297 138.851 84.6297 138.851C84.6297 138.851 80.9384 132.699 80.8728 131.612C80.8031 130.792 79.2609 128.84 78.5842 128.027C77.8213 127.995 77.1199 128.023 77.1199 128.023Z" fill="black"/>
<path opacity="0.1" d="M108.439 159.88C108.547 160.494 108.761 161.085 109.07 161.627C111.027 161.43 117.683 160.183 119.16 152.571C118.286 151.75 117.565 151.111 117.565 151.111C117.565 151.111 108.349 157.739 108.439 159.88Z" fill="black"/>
<path opacity="0.1" d="M46.3548 216.98C48.1595 215.7 49.878 213.957 50.9033 213.477C52.425 212.76 54.7505 210.434 54.7505 210.434C54.7505 210.434 55.3411 210.024 56.2476 209.499C57.9087 208.527 60.632 207.116 62.7156 206.944C64.5817 206.788 70.7914 206.39 75.6721 206.087L82.0417 205.676C82.0417 205.676 87.8576 203.626 90.3636 204.959C92.1581 205.854 94.0487 206.542 95.999 207.009C95.999 207.009 95.999 206.812 95.999 206.476L94.1205 203.433L74.2735 205.127L71.7511 203.433L59.135 204.327L55.3904 206.739L52.1584 207.013L53.6021 207.887L46.6091 212.399C46.6091 212.399 46.3958 214.4 46.3548 216.98Z" fill="black"/>
<path d="M43.734 217.772C44.6815 217.489 45.5696 217.036 46.3548 216.435C48.1554 215.159 49.8698 213.42 50.891 212.94C52.4127 212.222 54.7382 209.897 54.7382 209.897C54.7382 209.897 59.4836 206.673 62.7033 206.407C63.581 206.333 65.4184 206.206 67.625 206.062L74.9298 205.595L78.7195 205.357L82.0294 205.156C82.0294 205.156 87.8453 203.105 90.3513 204.438C92.1458 205.333 94.0364 206.021 95.9867 206.489C95.9867 206.489 96.0769 200.226 96.807 197.629C97.5371 195.033 98.505 190.292 98.505 190.292C98.505 190.292 99.3253 183.762 100.117 180.809C100.908 177.856 104.054 161.393 105.666 160.302C107.278 159.211 108.168 161.122 108.168 161.122C108.168 161.122 118.906 160.942 119.086 149.134C119.086 149.134 114.074 144.122 113.717 142.871C113.361 141.62 108.619 136.965 108.619 136.965C108.619 136.965 105.933 131.953 102.877 131.862C101.441 131.779 99.9992 131.824 98.5706 131.998L95.9867 142.51L96.0769 152.444L96.7947 152.981L95.1828 155.397V153.637C95.1828 153.637 89.4408 148.088 88.563 145.762C87.6853 143.437 84.4616 139.22 84.4616 139.22C84.4616 139.22 80.7949 133.068 80.7046 131.981C80.6144 130.894 78.1084 128.032 78.1084 128.032C77.603 127.971 77.0921 127.971 76.5868 128.032C76.3611 128.046 76.1349 128.014 75.9223 127.937C74.4774 127.477 72.9395 127.389 71.4517 127.683C68.3592 128.327 63.6589 129.5 62.3629 130.907C60.3942 133.056 57.5313 135.115 54.3076 144.06L71.665 150.323L70.1803 153.149L56.3665 179.398C56.3665 179.398 55.9071 180.145 55.2878 181.117C54.4675 182.38 53.4052 184.033 52.6957 184.94C51.4447 186.551 51.8016 191.65 51.8016 191.65C51.8016 191.65 51.535 194.065 50.6409 194.964C49.7467 195.862 49.919 199.163 49.919 199.163L47.5935 207.842C47.5935 207.842 45.4443 209.811 45.4443 210.713C45.4443 211.615 43.7463 214.113 43.7463 214.113C43.7463 214.113 41.15 218.395 43.734 217.772Z" fill="#DFE5EE"/>
<path opacity="0.1" d="M55.2837 181.117C55.4033 181.61 55.4951 182.11 55.5585 182.614C55.5585 182.614 62.6253 199.168 63.5195 200.152C63.7943 200.455 64.836 201.944 66.1403 203.843L67.6374 206.054C70.3402 210.069 73.3794 214.63 73.3794 214.63L79.9992 220.446C79.9992 220.446 94.4036 221.599 98.9808 216.923C98.4271 216.537 98.0744 216.332 98.0744 216.332L96.1057 214.802C95.0885 213.088 91.2044 211.415 87.267 210.106C83.6413 210.131 80.6759 210.426 80.6759 210.426L79.7326 207.941L78.7482 205.348L73.728 192.191C73.728 192.191 70.5002 175.551 69.4256 174.743C68.351 173.935 68.6053 171.433 68.6053 171.433C68.6053 171.433 70.574 164.367 69.8562 163.382C69.1385 162.398 71.0211 155.146 71.0211 155.146C70.8343 154.439 70.5441 153.763 70.1598 153.141L56.346 179.39C56.346 179.39 55.903 180.133 55.2837 181.117Z" fill="black"/>
<path d="M71.2138 154.601C71.2138 154.601 69.3354 161.848 70.0531 162.832C70.7709 163.817 68.7981 170.884 68.7981 170.884C68.7981 170.884 68.5315 173.39 69.6184 174.194C70.7052 174.997 73.9208 191.641 73.9208 191.641L80.8523 209.897C80.8523 209.897 102.545 207.748 100.31 214.548C98.0744 221.348 80.1755 219.917 80.1755 219.917L73.5558 214.101C73.5558 214.101 64.6064 200.591 63.7122 199.606C62.8181 198.622 55.7472 182.068 55.7472 182.068C55.7472 182.068 55.3904 178.758 53.8687 177.056C52.3471 175.354 53.5119 172.483 53.5119 172.483C53.5119 172.483 51.6334 150.84 53.6021 148.248C55.5708 145.655 69.1631 146.816 71.2138 154.601Z" fill="#EE8E9E"/>
<path opacity="0.1" d="M135.373 224.211C135.373 224.211 129.734 226.094 128.224 228.776C126.715 231.458 135.373 224.211 135.373 224.211Z" fill="black"/>
<path opacity="0.1" d="M132.506 218.309C132.33 218.576 124.787 226.143 125.259 227.972C125.731 229.801 132.506 218.309 132.506 218.309Z" fill="black"/>
<path opacity="0.1" d="M91.0814 223.678C91.0814 223.678 82.6692 227.644 81.9515 229.371C81.2337 231.097 91.0814 223.678 91.0814 223.678Z" fill="black"/>
<path opacity="0.1" d="M90.5441 228.776C90.5441 228.776 82.9522 231.996 81.931 232.804C80.9097 233.612 90.5441 228.776 90.5441 228.776Z" fill="black"/>
<path opacity="0.1" d="M87.0537 235.666C87.0537 235.666 83.6905 238.172 81.8366 236.204C79.9828 234.235 87.0537 235.666 87.0537 235.666Z" fill="black"/>
<path opacity="0.1" d="M99.6698 170.346C99.4894 170.617 88.3047 190.747 85.3516 192.269C82.3985 193.79 99.6698 170.346 99.6698 170.346Z" fill="black"/>
<path opacity="0.1" d="M99.1326 177.955C99.1326 178.402 88.2144 201.743 86.418 202.022C84.6216 202.301 99.1326 177.955 99.1326 177.955Z" fill="black"/>
<path opacity="0.1" d="M57.6133 192.986C57.6133 192.986 52.3471 204.245 50.2963 204.905C48.2456 205.566 57.6133 192.986 57.6133 192.986Z" fill="black"/>
<path opacity="0.1" d="M56.7192 187.974C56.7192 187.974 54.9023 191.912 53.799 191.912C52.6957 191.912 56.7192 187.974 56.7192 187.974Z" fill="black"/>
<path opacity="0.1" d="M76.5826 111.65C76.5815 113.501 76.9135 115.336 77.5629 117.068C77.5056 115.059 77.8633 113.06 78.6137 111.195C79.3641 109.33 80.491 107.64 81.9241 106.23C83.3572 104.821 85.0655 103.722 86.9425 103.002C88.8194 102.283 90.8246 101.958 92.8327 102.049C93.5832 102.082 94.4733 102.258 94.7768 102.939C94.8961 103.304 94.9584 103.686 94.9613 104.071C95.1869 105.81 96.9506 106.897 98.6076 107.463C100.265 108.029 102.11 108.39 103.312 109.665C104.411 110.834 104.723 112.512 105.264 114.025C105.569 114.952 106.086 115.795 106.774 116.486C107.474 114.358 107.703 112.103 107.447 109.877C107.191 107.651 106.454 105.507 105.289 103.594C104.123 101.68 102.556 100.043 100.696 98.7937C98.8358 97.5448 96.7268 96.7145 94.5144 96.3601C92.302 96.0058 90.0391 96.1358 87.8819 96.7413C85.7247 97.3467 83.7246 98.4131 82.0197 99.8669C80.3148 101.321 78.9458 103.127 78.007 105.162C77.0683 107.196 76.5823 109.41 76.5826 111.65Z" fill="black"/>
<path d="M105.494 97.6354C104.222 95.9087 101.967 95.3099 100.006 94.4404C97.5815 93.3414 95.4411 91.7011 93.7496 89.6455C92.0581 87.5899 90.8604 85.1739 90.2488 82.583C89.4673 83.7321 89.1008 85.1131 89.2096 86.4985C89.3185 87.8838 89.8962 89.1907 90.8476 90.2035C87.2834 89.9616 83.346 89.5514 80.9302 86.9224C80.3806 88.8172 82.0253 90.9705 81.1271 92.7259C80.356 94.2353 78.2561 94.3665 76.8985 95.3919C75.4506 96.4665 74.9708 98.4147 74.8806 100.215C74.7903 102.016 74.979 103.861 74.4458 105.584C74.0356 106.892 73.2154 108.094 73.1333 109.46C73.124 110.478 73.3485 111.484 73.7896 112.401C74.8016 114.844 76.173 117.122 77.8582 119.16C77.3995 116.975 77.4466 114.714 77.9957 112.55C78.5448 110.386 79.5815 108.377 81.0265 106.675C82.4715 104.973 84.2865 103.624 86.3327 102.731C88.379 101.838 90.6023 101.425 92.8327 101.524C93.5833 101.556 94.4733 101.737 94.7768 102.418C94.8969 102.783 94.9592 103.165 94.9613 103.55C95.1869 105.285 96.9506 106.372 98.6076 106.938C100.265 107.504 102.11 107.869 103.312 109.14C104.411 110.309 104.723 111.986 105.264 113.5C105.806 115.013 106.852 116.597 108.447 116.781C108.812 114.533 109.181 112.269 108.956 109.989C108.709 107.549 107.069 106.166 106.495 104.042C105.871 101.815 107.052 99.7518 105.494 97.6354Z" fill="#603556"/>
<path opacity="0.1" d="M60.1399 141L54.5044 144.401C54.5044 144.401 52.8926 149.855 51.6334 150.553C51.6334 150.553 62.9083 144.29 71.4066 158.694C71.4066 158.694 71.14 156.816 72.3007 155.922C73.4614 155.027 73.1948 151.18 73.1948 151.18C73.5077 150.571 73.7817 149.942 74.0151 149.298C74.7944 147.349 70.5904 136.079 60.1399 141Z" fill="black"/>
<path d="M59.943 140.639L54.3035 144.039C54.3035 144.039 52.6916 149.499 51.4324 150.216C51.4324 150.216 62.7074 143.949 71.2056 158.358C71.2056 158.358 70.939 156.479 72.1039 155.585C73.2687 154.691 72.998 150.84 72.998 150.84C73.3129 150.233 73.587 149.605 73.8183 148.961C74.6139 146.993 70.3935 135.718 59.943 140.639Z" fill="#DFE5EE"/>
<g opacity="0.1">
<path opacity="0.1" d="M81.3978 91.434C81.3773 89.9739 80.5078 88.3661 80.9302 86.9224L81.004 87.0003C81.1066 88.4932 81.9351 90.0641 81.3978 91.434Z" fill="black"/>
<path opacity="0.1" d="M75.061 99.1324C74.9749 100.773 75.1225 102.414 74.7534 104.009C74.8888 102.758 74.8149 101.47 74.8805 100.207C74.9077 99.6081 74.9859 99.0126 75.1143 98.427C75.0897 98.6772 75.0692 98.8987 75.061 99.1324Z" fill="black"/>
<path opacity="0.1" d="M73.1333 109.452C73.1567 109.127 73.2159 108.805 73.3097 108.492C73.325 109.471 73.5502 110.434 73.97 111.318C74.8964 113.553 76.1245 115.651 77.6203 117.552C77.6692 118.09 77.7486 118.624 77.8582 119.152C76.173 117.114 74.8016 114.836 73.7896 112.393C73.3485 111.476 73.124 110.47 73.1333 109.452Z" fill="black"/>
<path opacity="0.1" d="M91.028 89.129C90.6835 89.1085 90.3308 89.0839 89.9822 89.0552C89.2007 87.647 88.9879 85.993 89.3874 84.4329C89.3121 85.2872 89.4195 86.1478 89.7023 86.9575C89.9852 87.7672 90.4371 88.5074 91.028 89.129Z" fill="black"/>
<path opacity="0.1" d="M81.2009 105.588C82.6574 103.9 84.4747 102.56 86.5186 101.668C88.5625 100.777 90.7806 100.356 93.009 100.437C93.7596 100.474 94.6496 100.65 94.9572 101.331C95.075 101.697 95.1372 102.079 95.1418 102.463C95.3674 104.198 97.1269 105.289 98.788 105.851C100.449 106.413 102.287 106.782 103.488 108.057C104.592 109.226 104.903 110.904 105.445 112.413C105.986 113.922 107.028 115.506 108.619 115.694L108.447 116.769C106.852 116.597 105.806 115.013 105.264 113.488C104.723 111.962 104.411 110.297 103.312 109.128C102.11 107.856 100.265 107.487 98.6075 106.925C96.9506 106.363 95.1869 105.285 94.9613 103.538C94.9592 103.153 94.8969 102.771 94.7768 102.406C94.4569 101.725 93.5832 101.544 92.8327 101.511C89.3465 101.349 85.9179 102.443 83.1704 104.595C80.423 106.747 78.5394 109.814 77.8623 113.238C78.2191 110.421 79.378 107.765 81.2009 105.588Z" fill="black"/>
</g>
<path d="M177.102 139.306V155.355L161.746 154.125V139.306H177.102Z" fill="#3A3768"/>
<path opacity="0.1" d="M177.102 154.043V155.355L161.746 154.125V152.812L177.102 154.043Z" fill="black"/>
<path d="M181.794 156.508L157.907 155.278C157.907 154.658 158.153 154.063 158.591 153.624C159.03 153.186 159.624 152.94 160.244 152.94L179.456 154.17C180.076 154.17 180.67 154.416 181.109 154.855C181.547 155.293 181.794 155.888 181.794 156.508Z" fill="#3A3768"/>
<path d="M210.967 143.716L128.343 141.255C128.013 141.255 127.686 141.191 127.38 141.064C127.075 140.938 126.798 140.753 126.564 140.519C126.331 140.286 126.145 140.009 126.019 139.703C125.893 139.398 125.828 139.071 125.829 138.74V89.933C125.829 89.603 125.894 89.2762 126.02 88.9714C126.147 88.6666 126.332 88.3897 126.566 88.1566C126.799 87.9235 127.076 87.7386 127.381 87.6127C127.686 87.4868 128.013 87.4223 128.343 87.4229L210.967 89.8837C211.633 89.8837 212.272 90.1481 212.744 90.6187C213.215 91.0893 213.48 91.7277 213.481 92.3938V141.201C213.481 141.868 213.217 142.508 212.745 142.979C212.274 143.451 211.634 143.716 210.967 143.716Z" fill="#3A3768"/>
<path d="M211.451 140.147L127.675 137.686V93.7104L211.451 96.1713V140.147Z" fill="#325CAE"/>
<path d="M169.563 92.1684C169.971 92.1684 170.301 91.8415 170.301 91.4383C170.301 91.0351 169.971 90.7083 169.563 90.7083C169.155 90.7083 168.825 91.0351 168.825 91.4383C168.825 91.8415 169.155 92.1684 169.563 92.1684Z" fill="white"/>
<path opacity="0.1" d="M177.085 142.346L161.778 142.1V142.621H177.085V142.346Z" fill="black"/>
<path opacity="0.1" d="M149.211 157.447L170.174 158.821L165.708 165.24L142.661 162.779L149.211 157.447Z" fill="black"/>
<path d="M148.801 157.037L169.764 158.411L165.297 164.83L142.251 162.369L148.801 157.037Z" fill="#3A3768"/>
<path d="M149.728 157.513L168.009 158.629L164.116 163.858L144.015 161.852L149.728 157.513Z" fill="#D5E1F4"/>
<path opacity="0.1" d="M362.336 329.844C376.879 329.844 388.668 328.036 388.668 325.804C388.668 323.573 376.879 321.764 362.336 321.764C347.794 321.764 336.005 323.573 336.005 325.804C336.005 328.036 347.794 329.844 362.336 329.844Z" fill="#325CAE"/>
<path d="M377.134 230.454C377.134 230.454 380.059 234.28 375.781 240.059C371.503 245.838 367.988 250.723 369.403 254.316C369.403 254.316 375.859 243.582 381.109 243.435C386.359 243.287 382.926 236.897 377.134 230.454Z" fill="#325CAE"/>
<path opacity="0.1" d="M377.134 230.454C377.387 230.823 377.588 231.226 377.729 231.651C382.856 237.676 385.587 243.295 380.662 243.435C376.072 243.566 370.568 251.769 369.247 253.844C369.291 254.004 369.343 254.161 369.403 254.316C369.403 254.316 375.859 243.582 381.109 243.435C386.358 243.287 382.926 236.897 377.134 230.454Z" fill="black"/>
<path d="M382.573 235.33C382.573 236.675 382.421 237.791 382.237 237.791C382.052 237.791 381.896 236.696 381.896 235.33C381.896 233.964 382.085 234.617 382.273 234.617C382.462 234.617 382.573 233.985 382.573 235.33Z" fill="#FFD037"/>
<path d="M384.439 236.938C383.258 237.582 382.224 237.971 382.138 237.807C382.052 237.643 382.934 236.987 384.115 236.343C385.296 235.699 384.833 236.171 384.935 236.343C385.038 236.515 385.624 236.294 384.439 236.938Z" fill="#FFD037"/>
<path d="M361.676 230.454C361.676 230.454 358.747 234.28 363.025 240.059C367.303 245.838 370.818 250.723 369.403 254.316C369.403 254.316 362.951 243.582 357.697 243.435C352.443 243.287 355.897 236.897 361.676 230.454Z" fill="#325CAE"/>
<path opacity="0.1" d="M361.676 230.454C361.42 230.822 361.219 231.226 361.077 231.651C355.954 237.676 353.223 243.295 358.149 243.435C362.738 243.566 368.242 251.769 369.559 253.844C369.517 254.005 369.465 254.162 369.403 254.316C369.403 254.316 362.951 243.582 357.697 243.435C352.443 243.287 355.897 236.897 361.676 230.454Z" fill="black"/>
<path d="M356.237 235.33C356.237 236.675 356.385 237.791 356.574 237.791C356.762 237.791 356.91 236.696 356.91 235.33C356.91 233.964 356.721 234.617 356.537 234.617C356.352 234.617 356.237 233.985 356.237 235.33Z" fill="#FFD037"/>
<path d="M354.367 236.938C355.552 237.582 356.582 237.971 356.672 237.807C356.762 237.643 355.852 236.987 354.691 236.343C353.53 235.699 353.977 236.171 353.871 236.343C353.764 236.515 353.186 236.294 354.367 236.938Z" fill="#FFD037"/>
<path opacity="0.1" d="M369.403 283.592C386.301 283.592 400 281.489 400 278.896C400 276.302 386.301 274.2 369.403 274.2C352.505 274.2 338.806 276.302 338.806 278.896C338.806 281.489 352.505 283.592 369.403 283.592Z" fill="#325CAE"/>
<path d="M385.153 249.156L385.005 250.354L384.8 252.039L384.714 252.745L384.509 254.431L384.423 255.136L384.218 256.822L381.876 276.017C381.666 277.731 378.865 279.064 375.486 279.064H363.321C359.941 279.064 357.148 277.731 356.939 276.017L354.593 256.822L354.388 255.136L354.301 254.431L354.092 252.745L354.006 252.039L353.801 250.354L353.658 249.156C353.539 248.188 355.052 247.368 356.963 247.368H381.847C383.746 247.368 385.272 248.188 385.153 249.156Z" fill="#65617D"/>
<path d="M385.005 250.354L384.8 252.039H354.01L353.805 250.354H385.005Z" fill="#9D9CB5"/>
<path d="M384.714 252.745L384.509 254.435H354.301L354.092 252.745H384.714Z" fill="#9D9CB5"/>
<path d="M384.423 255.136L384.218 256.826H354.593L354.388 255.136H384.423Z" fill="#9D9CB5"/>
</g>
<defs>
<clipPath id="clip0">
<rect width="400" height="338.445" fill="white"/>
</clipPath>
</defs>
</svg>
