<svg width="1440" height="789" viewBox="0 0 1440 789" fill="none" xmlns="http://www.w3.org/2000/svg">
<path d="M1440 210.5C1291.55 518.308 931.554 607.858 725.737 582.833C519.92 557.808 206.534 547.297 0 750M1440 268C1241.5 551.5 947.5 621.5 729.724 576.193C527.011 534.02 257.5 494.5 0 650M0 0L1 1M1439 787L1440 788M644.607 119.393C641.773 116.56 638.007 115 634 115C629.993 115 626.227 116.56 623.393 119.393C620.56 122.227 619 125.993 619 130C619 134.007 620.56 137.773 623.393 140.607C626.227 143.44 629.993 145 634 145C638.007 145 641.773 143.44 644.607 140.607C647.44 137.773 649 134.007 649 130C649 125.993 647.44 122.227 644.607 119.393ZM630.694 143.638C628.47 143.099 626.452 142.029 624.781 140.57C625.21 139.163 626.53 138.169 628.023 138.169C629.89 138.169 631.41 139.688 631.41 141.556C631.41 142.316 631.157 143.045 630.694 143.638ZM634 144.032C633.226 144.032 632.467 143.968 631.727 143.847C632.15 143.164 632.378 142.374 632.378 141.556C632.378 139.155 630.424 137.201 628.023 137.201C626.263 137.201 624.69 138.277 624.017 139.85C621.515 137.315 619.968 133.835 619.968 130C619.968 122.263 626.263 115.968 634 115.968C641.737 115.968 648.032 122.263 648.032 130C648.032 137.737 641.737 144.032 634 144.032ZM623.355 128.226C622.377 128.226 621.581 129.022 621.581 130C621.581 130.978 622.377 131.774 623.355 131.774C624.333 131.774 625.129 130.978 625.129 130C625.129 129.022 624.333 128.226 623.355 128.226ZM623.355 130.806C622.91 130.806 622.548 130.445 622.548 130C622.548 129.555 622.91 129.194 623.355 129.194C623.8 129.194 624.161 129.555 624.161 130C624.161 130.445 623.8 130.806 623.355 130.806ZM627.065 130C627.065 130.267 626.848 130.484 626.581 130.484C626.313 130.484 626.097 130.267 626.097 130C626.097 129.733 626.313 129.516 626.581 129.516C626.848 129.516 627.065 129.733 627.065 130ZM628.355 131.935C628.355 132.203 628.138 132.419 627.871 132.419C627.604 132.419 627.387 132.203 627.387 131.935C627.387 131.668 627.604 131.452 627.871 131.452C628.138 131.452 628.355 131.668 628.355 131.935ZM641.501 136.746C641.501 137.013 641.285 137.23 641.017 137.23C640.75 137.23 640.534 137.013 640.534 136.746C640.534 136.479 640.75 136.262 641.017 136.262C641.285 136.262 641.501 136.479 641.501 136.746ZM642.279 122.58C640.589 122.58 639.215 123.954 639.215 125.644C639.215 127.334 640.589 128.709 642.279 128.709C643.969 128.709 645.344 127.334 645.344 125.644C645.344 123.954 643.969 122.58 642.279 122.58ZM642.279 127.741C641.123 127.741 640.182 126.8 640.182 125.644C640.182 124.488 641.123 123.547 642.279 123.547C643.435 123.547 644.376 124.488 644.376 125.644C644.376 126.8 643.435 127.741 642.279 127.741ZM634 117.581C631.599 117.581 629.645 119.534 629.645 121.936C629.645 124.337 631.599 126.29 634 126.29C636.401 126.29 638.355 124.337 638.355 121.936C638.355 119.534 636.401 117.581 634 117.581ZM634 125.323C632.132 125.323 630.613 123.803 630.613 121.936C630.613 120.068 632.132 118.548 634 118.548C635.868 118.548 637.387 120.068 637.387 121.936C637.387 123.803 635.868 125.323 634 125.323ZM634 119.516C632.666 119.516 631.581 120.601 631.581 121.935C631.581 122.147 631.608 122.357 631.663 122.561C631.732 122.82 631.997 122.973 632.255 122.904C632.513 122.835 632.667 122.57 632.598 122.312C632.565 122.189 632.548 122.062 632.548 121.936C632.548 121.135 633.2 120.484 634 120.484C634.8 120.484 635.452 121.135 635.452 121.936C635.452 122.736 634.8 123.387 634 123.387C633.873 123.387 633.747 123.37 633.624 123.338C633.366 123.269 633.101 123.422 633.032 123.68C632.963 123.938 633.116 124.204 633.374 124.273C633.578 124.327 633.789 124.355 634 124.355C635.334 124.355 636.419 123.27 636.419 121.936C636.419 120.602 635.334 119.516 634 119.516ZM636.502 133.681C634.812 133.681 633.437 135.056 633.437 136.746C633.437 137.161 633.519 137.563 633.68 137.943C633.784 138.189 634.069 138.303 634.314 138.199C634.56 138.094 634.675 137.81 634.57 137.564C634.461 137.305 634.405 137.03 634.405 136.746C634.405 135.589 635.345 134.649 636.502 134.649C637.658 134.649 638.598 135.589 638.598 136.746C638.598 137.902 637.658 138.842 636.502 138.842C636.217 138.842 635.942 138.787 635.683 138.677C635.437 138.572 635.153 138.687 635.048 138.933C634.944 139.179 635.059 139.463 635.305 139.567C635.684 139.728 636.087 139.81 636.502 139.81C638.191 139.81 639.566 138.435 639.566 136.746C639.566 135.056 638.191 133.681 636.502 133.681ZM1346.26 514.879C1346.07 514.69 1345.76 514.69 1345.57 514.879L1336.22 524.231C1336.03 524.42 1336.03 524.726 1336.22 524.915C1336.32 525.01 1336.44 525.057 1336.56 525.057C1336.69 525.057 1336.81 525.01 1336.91 524.915L1346.26 515.564C1346.45 515.375 1346.45 515.068 1346.26 514.879ZM1349 512.142C1348.81 511.953 1348.5 511.953 1348.31 512.142L1346.94 513.51C1346.75 513.699 1346.75 514.006 1346.94 514.195C1347.04 514.289 1347.16 514.337 1347.28 514.337C1347.41 514.337 1347.53 514.289 1347.63 514.195L1349 512.826C1349.18 512.637 1349.18 512.331 1349 512.142ZM1360.86 524.004C1360.67 523.815 1360.36 523.815 1360.17 524.004L1358.81 525.373C1358.62 525.562 1358.62 525.868 1358.81 526.057C1358.9 526.152 1359.02 526.199 1359.15 526.199C1359.27 526.199 1359.4 526.152 1359.49 526.057L1360.86 524.688C1361.05 524.5 1361.05 524.193 1360.86 524.004ZM1358.12 526.742C1357.93 526.553 1357.63 526.553 1357.44 526.742L1348.08 536.094C1347.9 536.283 1347.9 536.589 1348.08 536.778C1348.18 536.872 1348.3 536.92 1348.43 536.92C1348.55 536.92 1348.67 536.872 1348.77 536.778L1358.12 527.426C1358.31 527.237 1358.31 526.931 1358.12 526.742ZM1360.48 512.52C1359.79 511.828 1358.66 511.828 1357.97 512.52L1349.76 520.732C1349.44 521.047 1348.93 521.047 1348.62 520.732C1348.3 520.418 1348.3 519.906 1348.62 519.592L1351.81 516.398C1352 516.209 1352 515.902 1351.81 515.714C1351.62 515.525 1351.32 515.525 1351.13 515.714L1347.93 518.907C1347.24 519.599 1347.24 520.725 1347.93 521.417C1348.28 521.762 1348.73 521.935 1349.19 521.935C1349.64 521.935 1350.1 521.762 1350.44 521.417L1358.66 513.204C1358.81 513.052 1359.01 512.968 1359.23 512.968C1359.44 512.968 1359.64 513.052 1359.8 513.204C1360.11 513.519 1360.11 514.03 1359.8 514.345C1359.61 514.534 1359.61 514.84 1359.8 515.029C1359.98 515.218 1360.29 515.218 1360.48 515.029C1361.17 514.337 1361.17 513.212 1360.48 512.52ZM1360.48 519.82C1360.15 519.485 1359.7 519.3 1359.23 519.3C1358.75 519.3 1358.31 519.485 1357.97 519.82L1355.23 522.558C1354.92 522.872 1354.41 522.872 1354.09 522.558C1353.78 522.243 1353.78 521.732 1354.09 521.417L1358.93 516.577C1359.12 516.388 1359.12 516.082 1358.93 515.893C1358.74 515.703 1358.44 515.704 1358.25 515.893L1353.41 520.733C1353.07 521.068 1352.89 521.513 1352.89 521.987C1352.89 522.461 1353.07 522.907 1353.41 523.242C1353.74 523.577 1354.19 523.762 1354.66 523.762C1355.14 523.762 1355.58 523.577 1355.92 523.242L1358.66 520.505C1358.81 520.352 1359.01 520.268 1359.23 520.268C1359.44 520.268 1359.64 520.352 1359.8 520.505C1360.11 520.819 1360.11 521.331 1359.8 521.645L1342.15 539.288C1339.83 541.615 1336.04 541.615 1333.71 539.288C1331.39 536.961 1331.39 533.174 1333.71 530.847L1351.36 513.205C1351.67 512.89 1352.18 512.89 1352.5 513.205C1352.65 513.357 1352.73 513.559 1352.73 513.775C1352.73 513.99 1352.65 514.193 1352.5 514.345C1352.31 514.534 1352.31 514.841 1352.5 515.029C1352.68 515.218 1352.99 515.218 1353.18 515.029C1353.52 514.694 1353.7 514.249 1353.7 513.775C1353.7 513.301 1353.52 512.855 1353.18 512.52C1352.49 511.828 1351.36 511.828 1350.67 512.52L1333.03 530.163C1330.32 532.867 1330.32 537.268 1333.03 539.972C1334.38 541.324 1336.16 542 1337.93 542C1339.71 542 1341.49 541.324 1342.84 539.972L1360.48 522.329C1361.17 521.638 1361.17 520.512 1360.48 519.82ZM1337.93 530.712C1337.15 530.712 1336.39 530.921 1335.72 531.316C1335.49 531.452 1335.41 531.748 1335.55 531.978C1335.69 532.208 1335.98 532.285 1336.21 532.149C1336.73 531.842 1337.33 531.679 1337.93 531.679C1339.8 531.679 1341.32 533.199 1341.32 535.067C1341.32 536.935 1339.8 538.454 1337.93 538.454C1336.07 538.454 1334.55 536.935 1334.55 535.067C1334.55 534.461 1334.71 533.867 1335.01 533.347C1335.15 533.117 1335.07 532.82 1334.84 532.684C1334.61 532.548 1334.32 532.625 1334.18 532.855C1333.79 533.523 1333.58 534.288 1333.58 535.067C1333.58 537.468 1335.53 539.422 1337.93 539.422C1340.33 539.422 1342.29 537.468 1342.29 535.067C1342.29 532.665 1340.33 530.712 1337.93 530.712ZM921.268 473.732C919.822 472.285 917.468 472.285 916.022 473.732C915.601 474.153 915.284 474.675 915.106 475.242C915.027 475.497 915.168 475.769 915.423 475.849C915.678 475.929 915.95 475.787 916.03 475.532C916.163 475.107 916.391 474.732 916.706 474.416C917.775 473.347 919.515 473.347 920.584 474.416C921.653 475.485 921.653 477.225 920.584 478.294C919.515 479.363 917.775 479.363 916.706 478.294C916.391 477.978 916.163 477.603 916.03 477.178C915.95 476.923 915.678 476.781 915.423 476.861C915.168 476.941 915.027 477.212 915.106 477.467C915.284 478.034 915.601 478.557 916.022 478.978C916.745 479.701 917.695 480.063 918.645 480.063C919.595 480.063 920.545 479.701 921.268 478.978C922.715 477.532 922.715 475.178 921.268 473.732ZM929.978 458.57C928.532 457.124 926.178 457.124 924.732 458.57C924.311 458.992 923.994 459.514 923.816 460.081C923.736 460.336 923.878 460.608 924.133 460.688C924.388 460.768 924.66 460.626 924.74 460.371C924.873 459.946 925.1 459.57 925.416 459.255C926.485 458.186 928.225 458.186 929.294 459.255C930.363 460.324 930.363 462.063 929.294 463.132C928.225 464.202 926.485 464.201 925.416 463.132C925.1 462.817 924.873 462.441 924.74 462.017C924.66 461.762 924.388 461.62 924.133 461.7C923.878 461.78 923.736 462.051 923.816 462.306C923.994 462.873 924.311 463.395 924.732 463.817C925.455 464.54 926.405 464.901 927.355 464.901C928.305 464.901 929.255 464.54 929.978 463.817C931.424 462.37 931.424 460.017 929.978 458.57ZM933 461.194C933 459.825 932.504 458.505 931.603 457.477C930.745 456.497 929.578 455.845 928.302 455.629C927.203 454.632 925.925 453.873 924.497 453.369C924.459 452.715 923.978 452.145 923.306 452.023C923.22 452.008 923.133 452 923.046 452C922.506 452 922.026 452.298 921.777 452.751C918.317 452.358 914.588 453.356 911.427 455.523C911.191 455.364 910.911 455.277 910.618 455.277C910.279 455.277 909.948 455.397 909.688 455.615C909.39 455.864 909.208 456.214 909.173 456.6C909.153 456.831 909.186 457.058 909.271 457.268C909.149 457.383 909.031 457.497 908.917 457.611C908.182 458.346 907.51 459.146 906.919 459.991C904.533 461.056 903 463.411 903 466.032C903 467.261 903.338 468.455 903.979 469.496C904.098 472.559 905.277 475.358 907.307 477.388C909.333 479.414 912.009 480.561 915.055 480.71C916.065 481.543 917.333 482 918.645 482C921.038 482 923.15 480.509 923.956 478.271C924.635 477.846 925.297 477.364 925.927 476.835C925.973 476.837 926.019 476.838 926.065 476.838C926.797 476.838 927.486 476.553 928.003 476.036C928.594 475.445 928.88 474.623 928.79 473.8C930.901 470.959 932.047 467.619 932.031 464.354C932.666 463.418 933 462.329 933 461.194ZM921.504 453.695C920.834 456.116 918.623 457.823 916.064 457.823C914.582 457.823 913.176 457.245 912.125 456.22C915.011 454.288 918.374 453.383 921.504 453.695ZM927.897 473.378C927.814 473.487 927.781 473.627 927.807 473.762C927.918 474.341 927.735 474.935 927.319 475.351C926.984 475.686 926.539 475.871 926.065 475.871C925.987 475.871 925.908 475.865 925.831 475.855C925.695 475.837 925.557 475.878 925.453 475.968C924.77 476.555 924.046 477.083 923.302 477.538C923.203 477.598 923.129 477.691 923.094 477.801C922.466 479.734 920.678 481.032 918.645 481.032C917.51 481.032 916.415 480.62 915.561 479.87C915.478 479.797 915.371 479.754 915.26 479.75C912.392 479.645 909.879 478.591 907.991 476.703C906.08 474.792 905.025 472.244 904.942 469.335C904.939 469.246 904.912 469.161 904.865 469.086C904.278 468.176 903.968 467.12 903.968 466.032C903.968 463.754 905.325 461.71 907.425 460.827C907.511 460.791 907.584 460.731 907.636 460.655C908.214 459.816 908.875 459.022 909.601 458.295C909.792 458.105 909.997 457.91 910.209 457.717C910.402 457.543 910.423 457.248 910.256 457.048L910.248 457.039C910.165 456.94 910.126 456.815 910.137 456.686C910.149 456.557 910.21 456.441 910.309 456.358C910.42 456.264 910.539 456.245 910.619 456.245C910.763 456.245 910.898 456.308 910.99 456.418C912.252 457.926 914.101 458.791 916.065 458.791C919.265 458.791 922.001 456.509 922.571 453.365C922.613 453.135 922.813 452.968 923.046 452.968C923.075 452.968 923.105 452.97 923.134 452.976C923.396 453.023 923.571 453.275 923.523 453.538C923.521 453.554 923.518 453.569 923.514 453.585L923.508 453.616C923.462 453.857 923.603 454.094 923.837 454.168C925.326 454.64 926.643 455.404 927.753 456.438C927.825 456.506 927.917 456.549 928.015 456.563C930.305 456.887 932.032 458.877 932.032 461.194C932.032 462.179 931.728 463.122 931.153 463.921C931.093 464.006 931.061 464.108 931.062 464.212C931.114 467.373 929.99 470.629 927.897 473.378ZM918.484 467C918.484 467.267 918.267 467.484 918 467.484C917.733 467.484 917.516 467.267 917.516 467C917.516 466.733 917.733 466.516 918 466.516C918.267 466.516 918.484 466.733 918.484 467ZM920.419 465.065C920.419 465.332 920.203 465.548 919.935 465.548C919.668 465.548 919.452 465.332 919.452 465.065C919.452 464.797 919.668 464.581 919.935 464.581C920.203 464.581 920.419 464.797 920.419 465.065ZM925.581 471.194C925.581 471.461 925.364 471.677 925.097 471.677C924.83 471.677 924.613 471.461 924.613 471.194C924.613 470.926 924.83 470.71 925.097 470.71C925.364 470.71 925.581 470.926 925.581 471.194ZM912.032 477C912.032 477.267 911.816 477.484 911.548 477.484C911.281 477.484 911.065 477.267 911.065 477C911.065 476.733 911.281 476.516 911.548 476.516C911.816 476.516 912.032 476.733 912.032 477ZM913.594 463.577C913.454 463.35 913.155 463.279 912.928 463.42C912.701 463.56 912.63 463.858 912.771 464.086C913.132 464.67 913.323 465.343 913.323 466.032C913.323 468.078 911.659 469.742 909.613 469.742C907.567 469.742 905.903 468.078 905.903 466.032C905.903 463.987 907.567 462.323 909.613 462.323C910.302 462.323 910.975 462.513 911.56 462.874C911.787 463.015 912.085 462.944 912.226 462.717C912.366 462.49 912.296 462.192 912.068 462.051C911.331 461.596 910.482 461.355 909.613 461.355C907.034 461.355 904.936 463.453 904.936 466.032C904.936 468.611 907.034 470.71 909.613 470.71C912.192 470.71 914.29 468.611 914.29 466.032C914.29 465.163 914.05 464.314 913.594 463.577ZM514.742 676C514.742 676.267 514.525 676.484 514.258 676.484C513.991 676.484 513.774 676.267 513.774 676C513.774 675.733 513.991 675.516 514.258 675.516C514.525 675.516 514.742 675.733 514.742 676ZM516.677 674.065C516.677 674.332 516.461 674.548 516.194 674.548C515.926 674.548 515.71 674.332 515.71 674.065C515.71 673.797 515.926 673.581 516.194 673.581C516.461 673.581 516.677 673.797 516.677 674.065ZM532.682 664.972C532.423 664.903 532.158 665.057 532.09 665.316C531.948 665.854 531.506 667.066 530.152 669.136C528.504 671.654 526.078 674.56 523.319 677.319C520.56 680.078 517.654 682.504 515.137 684.152C513.067 685.506 511.854 685.947 511.316 686.09C511.057 686.158 510.903 686.423 510.972 686.681C511.029 686.898 511.225 687.042 511.439 687.042C511.48 687.042 511.522 687.036 511.563 687.025C512.158 686.868 513.482 686.39 515.666 684.961C518.238 683.279 521.199 680.807 524.003 678.003C526.808 675.199 529.279 672.238 530.962 669.666C532.391 667.482 532.868 666.158 533.025 665.563C533.094 665.305 532.94 665.04 532.682 664.972ZM535.918 662.082C535.425 661.588 534.538 661 533.116 661C531.3 661 528.856 662.023 525.852 664.04C525.187 664.486 524.498 664.979 523.8 665.508C523.209 665.407 522.608 665.355 522 665.355C516.13 665.355 511.355 670.13 511.355 676C511.355 676.608 511.407 677.21 511.508 677.801C510.599 679 509.807 680.157 509.153 681.241C508.191 682.84 507.544 684.259 507.232 685.459C506.615 687.825 507.354 689.19 508.082 689.918C508.575 690.412 509.462 691 510.884 691C512.7 691 515.144 689.977 518.148 687.96C518.819 687.51 519.505 687.019 520.2 686.492C520.794 686.594 521.398 686.645 522 686.645C527.87 686.645 532.645 681.87 532.645 676C532.645 675.398 532.593 674.793 532.492 674.199C533.395 673.008 534.189 671.851 534.846 670.759C535.809 669.16 536.456 667.741 536.768 666.541C537.385 664.175 536.646 662.81 535.918 662.082ZM522 666.323C524.416 666.323 526.73 667.218 528.515 668.845C528.712 669.025 529.018 669.011 529.198 668.813C529.378 668.616 529.364 668.31 529.167 668.13C528.544 667.563 527.863 667.076 527.138 666.676C530.924 664.073 533.235 663.505 533.865 664.135C534.343 664.612 534.198 666.209 532.36 669.261C530.646 672.106 527.921 675.454 524.687 678.687C521.454 681.921 518.106 684.646 515.261 686.36C512.209 688.198 510.612 688.342 510.135 687.865C509.505 687.235 510.072 684.924 512.676 681.138C513.076 681.863 513.563 682.544 514.13 683.167C514.225 683.271 514.356 683.325 514.488 683.325C514.604 683.325 514.721 683.283 514.813 683.198C515.011 683.018 515.025 682.712 514.845 682.515C513.218 680.73 512.323 678.416 512.323 676C512.323 670.664 516.664 666.323 522 666.323ZM522 685.677C521.761 685.677 521.521 685.668 521.282 685.651C523.08 684.213 524.926 682.554 526.74 680.74C528.551 678.93 530.214 677.077 531.65 675.281C531.668 675.52 531.677 675.76 531.677 676C531.677 681.336 527.336 685.677 522 685.677ZM535.832 666.297C535.543 667.408 534.932 668.741 534.018 670.259C532.225 673.235 529.398 676.714 526.056 680.056C523.209 682.903 520.288 685.358 517.609 687.157C514.767 689.065 512.504 690.032 510.884 690.032C509.793 690.032 509.13 689.598 508.766 689.234C508.217 688.685 507.667 687.626 508.168 685.703C508.457 684.593 509.068 683.259 509.982 681.741C510.5 680.882 511.109 679.974 511.796 679.034C511.907 679.41 512.04 679.779 512.192 680.14C510.394 682.681 507.83 686.929 509.451 688.549C509.811 688.91 510.303 689.06 510.874 689.06C512.295 689.06 514.202 688.127 515.76 687.189C518.671 685.435 522.084 682.659 525.372 679.372C528.66 676.084 531.436 672.67 533.189 669.76C534.504 667.576 535.808 664.709 534.55 663.45C532.929 661.83 528.681 664.394 526.141 666.192C525.779 666.04 525.41 665.907 525.034 665.796C525.495 665.459 525.949 665.14 526.391 664.843C529.233 662.935 531.496 661.968 533.116 661.968C534.207 661.968 534.87 662.402 535.234 662.766C535.783 663.316 536.333 664.374 535.832 666.297ZM279.694 205.356L273.643 202.97L271.257 196.919C271.184 196.734 271.005 196.613 270.806 196.613C270.608 196.613 270.429 196.734 270.356 196.919L267.97 202.97L261.919 205.356C261.734 205.429 261.613 205.608 261.613 205.806C261.613 206.005 261.734 206.184 261.919 206.257L267.97 208.643L270.356 214.694C270.429 214.878 270.608 215 270.806 215C271.005 215 271.184 214.879 271.257 214.694L273.643 208.643L279.694 206.257C279.878 206.184 280 206.005 280 205.806C280 205.608 279.879 205.429 279.694 205.356ZM273.092 207.82C272.968 207.869 272.869 207.968 272.82 208.092L270.806 213.197L268.793 208.092C268.744 207.968 268.645 207.869 268.521 207.82L263.416 205.806L268.521 203.793C268.645 203.744 268.744 203.645 268.793 203.52L270.806 198.416L272.82 203.52C272.869 203.645 272.968 203.744 273.092 203.793L278.197 205.806L273.092 207.82ZM270.806 203.71C270.709 203.71 270.61 203.717 270.511 203.731C270.246 203.768 270.062 204.013 270.099 204.278C270.137 204.542 270.382 204.727 270.646 204.689C270.701 204.681 270.754 204.677 270.807 204.677C271.429 204.677 271.936 205.184 271.936 205.807C271.936 206.429 271.429 206.936 270.807 206.936C270.184 206.936 269.678 206.429 269.678 205.807C269.678 205.754 269.681 205.701 269.689 205.646C269.727 205.382 269.542 205.137 269.278 205.099C269.013 205.062 268.768 205.246 268.731 205.511C268.717 205.61 268.71 205.709 268.71 205.806C268.71 206.963 269.65 207.903 270.807 207.903C271.963 207.903 272.903 206.963 272.903 205.806C272.903 204.65 271.963 203.71 270.806 203.71ZM268.081 193.743L262.03 191.357L259.644 185.306C259.571 185.121 259.392 185 259.194 185C258.995 185 258.816 185.121 258.743 185.306L256.357 191.357L250.306 193.743C250.121 193.816 250 193.995 250 194.194C250 194.392 250.121 194.571 250.306 194.644L256.357 197.03L258.743 203.081C258.816 203.266 258.995 203.387 259.194 203.387C259.392 203.387 259.571 203.266 259.644 203.081L262.03 197.03L268.081 194.644C268.266 194.571 268.387 194.392 268.387 194.194C268.387 193.995 268.266 193.816 268.081 193.743ZM261.48 196.207C261.355 196.256 261.256 196.355 261.207 196.48L259.194 201.584L257.18 196.48C257.131 196.355 257.032 196.256 256.908 196.207L251.803 194.194L256.908 192.18C257.032 192.131 257.131 192.032 257.18 191.908L259.194 186.803L261.207 191.908C261.256 192.032 261.355 192.131 261.48 192.18L266.584 194.194L261.48 196.207ZM259.194 192.097C259.096 192.097 258.997 192.104 258.898 192.118C258.633 192.155 258.449 192.4 258.487 192.665C258.524 192.93 258.769 193.114 259.034 193.076C259.088 193.068 259.142 193.065 259.194 193.065C259.816 193.065 260.323 193.571 260.323 194.194C260.323 194.816 259.816 195.323 259.194 195.323C258.571 195.323 258.065 194.816 258.065 194.194C258.065 194.141 258.069 194.088 258.076 194.033C258.114 193.769 257.929 193.524 257.665 193.486C257.4 193.449 257.156 193.633 257.118 193.898C257.104 193.997 257.097 194.096 257.097 194.193C257.097 195.35 258.037 196.29 259.194 196.29C260.35 196.29 261.29 195.35 261.29 194.193C261.29 193.037 260.35 192.097 259.194 192.097ZM279.694 189.389L276.766 188.234L275.611 185.306C275.539 185.121 275.36 185 275.161 185C274.963 185 274.784 185.121 274.711 185.306L273.557 188.234L270.629 189.389C270.444 189.462 270.323 189.64 270.323 189.839C270.323 190.037 270.444 190.216 270.629 190.289L273.557 191.443L274.711 194.371C274.784 194.556 274.963 194.677 275.161 194.677C275.36 194.677 275.538 194.556 275.611 194.371L276.766 191.443L279.694 190.289C279.879 190.216 280 190.037 280 189.839C280 189.64 279.879 189.461 279.694 189.389ZM276.215 190.62C276.091 190.669 275.992 190.768 275.943 190.893L275.161 192.875L274.38 190.893C274.331 190.768 274.232 190.669 274.107 190.62L272.125 189.839L274.107 189.057C274.232 189.008 274.331 188.909 274.38 188.784L275.161 186.803L275.943 188.784C275.992 188.909 276.091 189.008 276.215 189.057L278.197 189.839L276.215 190.62ZM259.371 209.711L256.443 208.557L255.289 205.629C255.216 205.444 255.037 205.323 254.839 205.323C254.64 205.323 254.461 205.444 254.389 205.629L253.234 208.557L250.306 209.711C250.121 209.784 250 209.963 250 210.161C250 210.36 250.121 210.538 250.306 210.611L253.234 211.766L254.389 214.694C254.462 214.879 254.64 215 254.839 215C255.037 215 255.216 214.879 255.289 214.694L256.443 211.766L259.371 210.611C259.556 210.538 259.677 210.36 259.677 210.161C259.677 209.963 259.556 209.784 259.371 209.711ZM255.893 210.943C255.768 210.992 255.669 211.091 255.62 211.216L254.839 213.197L254.057 211.215C254.008 211.091 253.909 210.992 253.784 210.943L251.803 210.161L253.784 209.38C253.909 209.331 254.008 209.232 254.057 209.107L254.839 207.125L255.62 209.107C255.67 209.232 255.768 209.33 255.893 209.38L257.875 210.161L255.893 210.943ZM60.6066 577.393C57.7734 574.56 54.0066 573 50 573C45.9934 573 42.2266 574.56 39.3934 577.393C36.5604 580.227 35 583.993 35 588C35 592.007 36.5604 595.773 39.3934 598.607C42.2266 601.44 45.9934 603 50 603C54.0066 603 57.7734 601.44 60.6066 598.607C63.4396 595.773 65 592.007 65 588C65 583.993 63.4396 580.227 60.6066 577.393ZM46.6938 601.638C44.4704 601.099 42.4521 600.029 40.7814 598.57C41.2096 597.163 42.5298 596.169 44.0227 596.169C45.8903 596.169 47.4097 597.688 47.4097 599.556C47.4099 600.316 47.157 601.045 46.6938 601.638ZM50 602.032C49.226 602.032 48.4668 601.968 47.7266 601.847C48.15 601.164 48.3776 600.374 48.3776 599.556C48.3776 597.155 46.424 595.201 44.0227 595.201C42.263 595.201 40.6903 596.277 40.0166 597.85C37.5147 595.315 35.9677 591.835 35.9677 588C35.9677 580.263 42.2626 573.968 50 573.968C57.7374 573.968 64.0323 580.263 64.0323 588C64.0323 595.737 57.7374 602.032 50 602.032ZM39.3549 586.226C38.3766 586.226 37.5806 587.022 37.5806 588C37.5806 588.978 38.3766 589.774 39.3549 589.774C40.3331 589.774 41.1291 588.978 41.1291 588C41.1291 587.022 40.3331 586.226 39.3549 586.226ZM39.3549 588.806C38.9101 588.806 38.5484 588.445 38.5484 588C38.5484 587.555 38.9102 587.194 39.3549 587.194C39.7995 587.194 40.1613 587.555 40.1613 588C40.1613 588.445 39.7995 588.806 39.3549 588.806ZM43.0645 588C43.0645 588.267 42.8479 588.484 42.5806 588.484C42.3134 588.484 42.0968 588.267 42.0968 588C42.0968 587.733 42.3134 587.516 42.5806 587.516C42.8479 587.516 43.0645 587.733 43.0645 588ZM44.3548 589.935C44.3548 590.203 44.1382 590.419 43.871 590.419C43.6037 590.419 43.3871 590.203 43.3871 589.935C43.3871 589.668 43.6037 589.452 43.871 589.452C44.1382 589.452 44.3548 589.668 44.3548 589.935ZM57.5013 594.746C57.5013 595.013 57.2847 595.23 57.0175 595.23C56.7502 595.23 56.5336 595.013 56.5336 594.746C56.5336 594.479 56.7502 594.262 57.0175 594.262C57.2847 594.262 57.5013 594.479 57.5013 594.746ZM58.2791 580.58C56.5893 580.58 55.2146 581.954 55.2146 583.644C55.2146 585.334 56.5893 586.709 58.2791 586.709C59.9688 586.709 61.3436 585.334 61.3436 583.644C61.3436 581.954 59.9688 580.58 58.2791 580.58ZM58.2791 585.741C57.1229 585.741 56.1823 584.8 56.1823 583.644C56.1823 582.488 57.1229 581.547 58.2791 581.547C59.4352 581.547 60.3758 582.488 60.3758 583.644C60.3758 584.8 59.4352 585.741 58.2791 585.741ZM50 575.581C47.5987 575.581 45.6451 577.534 45.6451 579.935C45.6451 582.337 47.5987 584.29 50 584.29C52.4013 584.29 54.3549 582.337 54.3549 579.935C54.3549 577.534 52.4013 575.581 50 575.581ZM50 583.323C48.1324 583.323 46.6129 581.803 46.6129 579.935C46.6129 578.068 48.1324 576.548 50 576.548C51.8676 576.548 53.3871 578.068 53.3871 579.935C53.3871 581.803 51.8676 583.323 50 583.323ZM50 577.516C48.6659 577.516 47.5807 578.601 47.5807 579.935C47.5807 580.147 47.6083 580.357 47.6629 580.561C47.7319 580.82 47.9971 580.973 48.2553 580.904C48.5134 580.835 48.6669 580.57 48.5979 580.312C48.5651 580.189 48.5484 580.062 48.5484 579.935C48.5484 579.135 49.1997 578.484 50.0001 578.484C50.8004 578.484 51.4517 579.135 51.4517 579.935C51.4517 580.736 50.8004 581.387 50.0001 581.387C49.8732 581.387 49.7467 581.37 49.6241 581.338C49.3659 581.269 49.1006 581.422 49.0316 581.68C48.9626 581.938 49.1159 582.204 49.3741 582.273C49.5784 582.327 49.7889 582.355 50.0001 582.355C51.3342 582.355 52.4195 581.27 52.4195 579.936C52.4193 578.601 51.3341 577.516 50 577.516ZM52.5015 591.681C50.8118 591.681 49.437 593.056 49.437 594.746C49.437 595.161 49.5187 595.563 49.6797 595.943C49.7843 596.189 50.0685 596.303 50.3143 596.199C50.5602 596.094 50.675 595.81 50.5705 595.564C50.4605 595.305 50.4047 595.03 50.4047 594.746C50.4047 593.589 51.3453 592.649 52.5015 592.649C53.6577 592.649 54.5983 593.589 54.5983 594.746C54.5983 595.902 53.6577 596.842 52.5015 596.842C52.2173 596.842 51.9418 596.787 51.6828 596.677C51.4371 596.572 51.1528 596.687 51.0483 596.933C50.9438 597.179 51.0586 597.463 51.3046 597.567C51.6839 597.728 52.0866 597.81 52.5015 597.81C54.1912 597.81 55.566 596.435 55.566 594.746C55.5661 593.056 54.1913 591.681 52.5015 591.681ZM1173.02 107.263C1172.22 106.865 1171.17 106.645 1170.06 106.645C1168.96 106.645 1167.91 106.865 1167.11 107.263C1166.21 107.715 1165.71 108.355 1165.71 109.065C1165.71 109.774 1166.21 110.414 1167.11 110.866C1167.91 111.265 1168.96 111.484 1170.06 111.484C1171.17 111.484 1172.22 111.265 1173.02 110.866C1173.92 110.414 1174.42 109.774 1174.42 109.065C1174.42 108.355 1173.92 107.715 1173.02 107.263ZM1170.06 110.516C1168.13 110.516 1166.68 109.75 1166.68 109.065C1166.68 108.379 1168.13 107.613 1170.06 107.613C1172 107.613 1173.45 108.379 1173.45 109.065C1173.45 109.75 1172 110.516 1170.06 110.516ZM1156.64 96.1071C1156.64 96.3744 1156.42 96.591 1156.15 96.591C1155.89 96.591 1155.67 96.3744 1155.67 96.1071C1155.67 95.8398 1155.89 95.6232 1156.15 95.6232C1156.42 95.6232 1156.64 95.8398 1156.64 96.1071ZM1158.57 100.366C1158.57 100.633 1158.36 100.849 1158.09 100.849C1157.82 100.849 1157.6 100.633 1157.6 100.366C1157.6 100.098 1157.82 99.8816 1158.09 99.8816C1158.36 99.8816 1158.57 100.098 1158.57 100.366ZM1161.19 121.162C1161.19 121.429 1160.98 121.646 1160.71 121.646C1160.44 121.646 1160.23 121.429 1160.23 121.162C1160.23 120.895 1160.44 120.678 1160.71 120.678C1160.98 120.678 1161.19 120.895 1161.19 121.162ZM1184.4 118.087C1184.4 118.354 1184.18 118.57 1183.91 118.57C1183.65 118.57 1183.43 118.354 1183.43 118.087C1183.43 117.819 1183.65 117.603 1183.91 117.603C1184.18 117.603 1184.4 117.819 1184.4 118.087ZM1184.4 116.151C1184.4 116.418 1184.18 116.635 1183.91 116.635C1183.65 116.635 1183.43 116.418 1183.43 116.151C1183.43 115.884 1183.65 115.667 1183.91 115.667C1184.18 115.667 1184.4 115.884 1184.4 116.151ZM1170.55 112.936C1170.55 113.203 1170.33 113.42 1170.07 113.42C1169.8 113.42 1169.58 113.203 1169.58 112.936C1169.58 112.669 1169.8 112.452 1170.07 112.452C1170.33 112.452 1170.55 112.669 1170.55 112.936ZM1170.55 105.194C1170.55 105.461 1170.33 105.677 1170.07 105.677C1169.8 105.677 1169.58 105.461 1169.58 105.194C1169.58 104.926 1169.8 104.71 1170.07 104.71C1170.33 104.71 1170.55 104.926 1170.55 105.194ZM1170.55 103.258C1170.55 103.525 1170.33 103.742 1170.07 103.742C1169.8 103.742 1169.58 103.525 1169.58 103.258C1169.58 102.991 1169.8 102.774 1170.07 102.774C1170.33 102.774 1170.55 102.991 1170.55 103.258ZM1172.48 105.194C1172.48 105.461 1172.27 105.677 1172 105.677C1171.73 105.677 1171.52 105.461 1171.52 105.194C1171.52 104.926 1171.73 104.71 1172 104.71C1172.27 104.71 1172.48 104.926 1172.48 105.194ZM1164.74 109.065C1164.74 109.332 1164.53 109.549 1164.26 109.549C1163.99 109.549 1163.77 109.332 1163.77 109.065C1163.77 108.797 1163.99 108.581 1164.26 108.581C1164.53 108.581 1164.74 108.797 1164.74 109.065ZM1176.36 107.774C1176.36 108.042 1176.14 108.258 1175.87 108.258C1175.6 108.258 1175.39 108.042 1175.39 107.774C1175.39 107.507 1175.6 107.29 1175.87 107.29C1176.14 107.29 1176.36 107.507 1176.36 107.774ZM1168.61 114.226C1168.61 114.494 1168.4 114.71 1168.13 114.71C1167.86 114.71 1167.65 114.494 1167.65 114.226C1167.65 113.959 1167.86 113.742 1168.13 113.742C1168.4 113.742 1168.61 113.959 1168.61 114.226ZM1179.63 95.1524C1179.63 95.4197 1179.42 95.6364 1179.15 95.6364C1178.88 95.6364 1178.67 95.4197 1178.67 95.1524C1178.67 94.8852 1178.88 94.6685 1179.15 94.6685C1179.42 94.6685 1179.63 94.8852 1179.63 95.1524ZM1184.56 102.922C1183.99 100.655 1182.9 98.5083 1181.39 96.7129C1181.23 96.5188 1180.95 96.4828 1180.74 96.6301C1180.53 96.7775 1180.48 97.0586 1180.61 97.2749C1183.41 101.886 1183.39 107.398 1180.55 111.317C1180.43 111.476 1180.31 111.617 1180.18 111.766C1180.05 111.913 1179.92 112.065 1179.79 112.24C1179.11 112.91 1178.24 113.632 1177.2 114.163C1178.05 113.461 1178.78 112.588 1179.36 111.572C1180.56 109.467 1180.99 106.884 1180.54 104.486C1180.54 104.484 1180.54 104.481 1180.54 104.479C1180.16 102.555 1179.56 101.125 1178.55 99.6958C1176.95 97.4192 1174.78 95.8004 1171.9 94.7446C1169.56 93.9227 1166.98 93.778 1164.42 94.3265C1161.97 94.8529 1159.65 95.9874 1157.71 97.6071C1157.52 97.7696 1157.48 98.0542 1157.63 98.2599C1157.78 98.4656 1158.06 98.5233 1158.28 98.3916C1162.89 95.5885 1168.4 95.6132 1172.32 98.4544C1172.48 98.5743 1172.62 98.6951 1172.77 98.8229C1172.91 98.9492 1173.07 99.0794 1173.24 99.2117C1173.91 99.8883 1174.64 100.767 1175.17 101.808C1174.57 101.076 1173.84 100.431 1173 99.8979C1171.1 98.69 1168.8 98.1297 1166.51 98.3202C1166.25 98.3424 1166.05 98.5762 1166.07 98.8426C1166.09 99.1089 1166.33 99.3067 1166.59 99.2846C1170.99 98.918 1175.02 101.576 1175.95 105.468C1176.01 105.7 1176.23 105.857 1176.46 105.837C1176.7 105.817 1176.89 105.626 1176.91 105.388C1177.11 102.388 1175.39 99.9886 1173.9 98.5037C1173.88 98.4875 1173.87 98.4725 1173.85 98.4587C1173.69 98.338 1173.55 98.2166 1173.4 98.088C1173.24 97.9548 1173.08 97.8173 1172.89 97.6776C1172.89 97.6762 1172.89 97.6746 1172.89 97.6731C1170.7 96.0892 1168.08 95.2771 1165.31 95.3246C1164.93 95.3311 1164.55 95.3533 1164.17 95.391C1166.65 94.7748 1169.25 94.8377 1171.57 95.6552C1174.25 96.6388 1176.28 98.1426 1177.76 100.253C1178.7 101.582 1179.23 102.861 1179.59 104.665C1180.45 109.325 1177.74 113.94 1173.53 114.952C1173.3 115.008 1173.14 115.225 1173.16 115.463C1173.18 115.701 1173.37 115.889 1173.61 115.905C1173.78 115.916 1173.94 115.922 1174.1 115.922C1176.87 115.922 1179.09 114.303 1180.5 112.9C1180.51 112.884 1180.53 112.867 1180.54 112.848C1180.66 112.688 1180.78 112.546 1180.91 112.396C1181.05 112.24 1181.18 112.08 1181.32 111.894C1181.32 111.892 1181.33 111.89 1181.33 111.888C1182.91 109.704 1183.72 107.082 1183.68 104.305C1183.67 103.909 1183.64 103.513 1183.6 103.117C1184.15 105.289 1184.18 107.549 1183.63 109.65C1183.56 109.909 1183.71 110.173 1183.97 110.241C1184.23 110.31 1184.49 110.155 1184.56 109.897C1185.15 107.679 1185.15 105.268 1184.56 102.922ZM1167.43 118.36C1169.53 119.556 1172.12 119.987 1174.51 119.543C1174.52 119.543 1174.52 119.542 1174.52 119.542C1176.45 119.157 1177.88 118.562 1179.3 117.554C1181.35 116.116 1182.85 114.232 1183.9 111.793C1184 111.548 1183.89 111.263 1183.65 111.158C1183.4 111.052 1183.12 111.166 1183.01 111.411C1182.03 113.68 1180.64 115.431 1178.75 116.763C1177.42 117.701 1176.14 118.231 1174.34 118.592C1169.68 119.454 1165.06 116.735 1164.05 112.532C1163.99 112.3 1163.78 112.143 1163.54 112.163C1163.3 112.183 1163.11 112.373 1163.1 112.612C1162.89 115.612 1164.62 118.011 1166.1 119.496C1166.12 119.512 1166.13 119.528 1166.15 119.541C1166.31 119.662 1166.45 119.783 1166.6 119.912C1166.76 120.045 1166.92 120.183 1167.11 120.322C1167.11 120.324 1167.11 120.325 1167.11 120.327C1169.3 121.911 1171.92 122.722 1174.7 122.675C1175.08 122.669 1175.46 122.647 1175.84 122.609C1173.35 123.225 1170.76 123.162 1168.43 122.345C1165.75 121.361 1163.72 119.857 1162.24 117.747C1161.3 116.418 1160.77 115.14 1160.41 113.335C1159.55 108.674 1162.27 104.06 1166.47 103.048C1166.7 102.993 1166.86 102.776 1166.84 102.538C1166.82 102.3 1166.63 102.112 1166.39 102.095C1163.39 101.889 1160.99 103.615 1159.5 105.1C1159.49 105.116 1159.47 105.133 1159.46 105.152C1159.34 105.313 1159.22 105.454 1159.09 105.604C1158.96 105.76 1158.82 105.92 1158.68 106.106C1158.68 106.108 1158.68 106.11 1158.67 106.113C1157.09 108.296 1156.28 110.918 1156.33 113.695C1156.33 114.075 1156.35 114.455 1156.39 114.835C1155.78 112.349 1155.84 109.755 1156.66 107.431C1157.64 104.749 1159.14 102.723 1161.25 101.238C1162.35 100.461 1163.44 99.9603 1164.77 99.6131C1165.03 99.5457 1165.18 99.2814 1165.12 99.0228C1165.05 98.7643 1164.78 98.6092 1164.53 98.6765C1163.08 99.0543 1161.9 99.6004 1160.7 100.447C1158.42 102.049 1156.8 104.224 1155.75 107.104C1154.92 109.439 1154.78 112.025 1155.33 114.58C1155.85 117.033 1156.99 119.352 1158.61 121.287C1158.77 121.481 1159.05 121.517 1159.26 121.37C1159.47 121.223 1159.52 120.941 1159.39 120.725C1156.59 116.114 1156.61 110.603 1159.45 106.684C1159.57 106.524 1159.7 106.383 1159.82 106.234C1159.95 106.087 1160.08 105.935 1160.21 105.76C1160.89 105.09 1161.76 104.368 1162.8 103.837C1161.95 104.539 1161.22 105.412 1160.64 106.429C1159.44 108.533 1159.01 111.116 1159.46 113.514C1159.46 113.517 1159.46 113.519 1159.46 113.521C1159.84 115.445 1160.44 116.875 1161.45 118.304C1163.05 120.581 1165.22 122.2 1168.1 123.256C1169.51 123.751 1171.01 124 1172.54 124C1173.54 124 1174.57 123.892 1175.58 123.674C1178.03 123.147 1180.35 122.013 1182.29 120.393C1182.48 120.23 1182.52 119.946 1182.37 119.74C1182.22 119.534 1181.94 119.477 1181.73 119.608C1177.11 122.412 1171.6 122.387 1167.68 119.546C1167.52 119.426 1167.38 119.305 1167.23 119.177C1167.09 119.051 1166.94 118.921 1166.76 118.788C1166.09 118.114 1165.37 117.24 1164.84 116.205C1165.54 117.052 1166.41 117.782 1167.43 118.36ZM479.475 383.393C476.656 380.56 472.909 379 468.923 379C464.937 379 461.189 380.56 458.371 383.393C455.552 386.227 454 389.993 454 394C454 398.007 455.552 401.773 458.371 404.607C461.189 407.44 464.937 409 468.923 409C472.909 409 476.656 407.44 479.475 404.607C482.293 401.773 483.845 398.007 483.845 394C483.845 389.993 482.293 386.227 479.475 383.393ZM462.711 381.436C462.812 383.132 462.19 384.807 460.984 386.02C459.862 387.147 458.343 387.767 456.78 387.767C456.661 387.767 456.543 387.762 456.424 387.755C457.78 385.025 459.995 382.799 462.711 381.436ZM456.002 388.689C456.261 388.719 456.521 388.735 456.779 388.735C458.596 388.735 460.361 388.014 461.665 386.704C463.153 385.208 463.877 383.104 463.64 381.012C465.271 380.34 467.054 379.968 468.923 379.968C473.061 379.968 476.783 381.788 479.342 384.672C474.553 385.15 471.594 386.471 468.727 387.751C465.205 389.325 461.872 390.813 455.301 390.928C455.473 390.156 455.709 389.408 456.002 388.689ZM476.398 405.846C472.629 405.168 470.05 404.016 467.554 402.902C466.03 402.221 464.59 401.578 462.905 401.066C462.65 400.989 462.382 401.133 462.305 401.389C462.228 401.645 462.372 401.915 462.627 401.992C464.254 402.486 465.667 403.118 467.163 403.786C469.353 404.764 471.802 405.858 475.109 406.576C473.244 407.508 471.143 408.032 468.923 408.032C463.761 408.032 459.245 405.201 456.829 401.003C458.266 401.09 459.573 401.26 460.801 401.522C460.835 401.529 460.868 401.532 460.901 401.532C461.124 401.532 461.324 401.376 461.372 401.149C461.427 400.887 461.26 400.63 461 400.575C459.561 400.269 458.024 400.083 456.308 400.007C455.87 399.08 455.529 398.097 455.301 397.072C461.872 397.187 465.205 398.675 468.727 400.249C471.594 401.529 474.553 402.85 479.342 403.328C478.482 404.297 477.492 405.146 476.398 405.846ZM480.081 402.422C475.066 402.02 472.174 400.729 469.118 399.364C465.629 397.806 462.022 396.195 455.119 396.102C455.016 395.416 454.963 394.714 454.963 394C454.963 393.286 455.016 392.584 455.119 391.898C462.023 391.805 465.629 390.194 469.118 388.636C472.174 387.271 475.066 385.98 480.081 385.578C480.512 386.153 480.899 386.762 481.24 387.401C479.975 387.814 478.839 388.594 477.996 389.642C477.008 390.87 476.464 392.418 476.464 394C476.464 395.582 477.008 397.13 477.996 398.358C478.839 399.406 479.975 400.187 481.24 400.599C480.899 401.238 480.512 401.847 480.081 402.422ZM477.427 394C477.427 391.324 479.153 389.026 481.669 388.28C482.448 390.028 482.883 391.964 482.883 394C482.883 396.036 482.448 397.972 481.669 399.72C479.153 398.974 477.427 396.676 477.427 394ZM473.806 396.986C473.806 397.254 473.591 397.47 473.325 397.47C473.059 397.47 472.844 397.254 472.844 396.986C472.844 396.719 473.059 396.503 473.325 396.503C473.591 396.503 473.806 396.719 473.806 396.986ZM471.881 395.051C471.881 395.318 471.665 395.535 471.399 395.535C471.134 395.535 470.918 395.318 470.918 395.051C470.918 394.784 471.134 394.567 471.399 394.567C471.665 394.567 471.881 394.784 471.881 395.051ZM474.009 382.824C474.009 383.091 473.794 383.308 473.528 383.308C473.262 383.308 473.046 383.091 473.046 382.824C473.046 382.557 473.262 382.34 473.528 382.34C473.794 382.34 474.009 382.557 474.009 382.824Z" stroke="#ECECEC"/>
</svg>
